<svg width="50" height="50" viewBox="0 0 50 50" fill="none" xmlns="http://www.w3.org/2000/svg">
<path d="M21.5371 31.7134C21.9758 32.0028 22.3164 32.3808 22.5591 32.8474C22.8111 33.3048 22.9371 33.7948 22.9371 34.3174C22.9371 34.9521 22.7784 35.5261 22.4611 36.0394C22.1438 36.5434 21.6958 36.9448 21.1171 37.2434C20.5478 37.5328 19.8991 37.6774 19.1711 37.6774C18.4524 37.6774 17.8084 37.5328 17.2391 37.2434C16.6791 36.9541 16.2404 36.5574 15.9231 36.0534C15.6058 35.5494 15.4471 34.9894 15.4471 34.3734C15.4471 34.2614 15.4658 34.1121 15.5031 33.9254H17.8131C17.7944 34.0748 17.7851 34.1541 17.7851 34.1634C17.7851 34.5741 17.9158 34.9148 18.1771 35.1854C18.4384 35.4468 18.7744 35.5774 19.1851 35.5774C19.5958 35.5774 19.9318 35.4468 20.1931 35.1854C20.4638 34.9241 20.5991 34.5834 20.5991 34.1634C20.5991 33.7621 20.4638 33.4308 20.1931 33.1694C19.9318 32.8988 19.6004 32.7634 19.1991 32.7634H18.4851V30.9014H19.1991C19.5164 30.9014 19.7731 30.8034 19.9691 30.6074C20.1744 30.4021 20.2771 30.1361 20.2771 29.8094C20.2771 29.4921 20.1744 29.2308 19.9691 29.0254C19.7638 28.8201 19.5024 28.7174 19.1851 28.7174C18.8771 28.7174 18.6204 28.8201 18.4151 29.0254C18.2098 29.2308 18.1071 29.4921 18.1071 29.8094C18.1071 29.8841 18.1118 29.9401 18.1211 29.9774H15.9651C15.9558 29.9214 15.9511 29.8048 15.9511 29.6274C15.9511 29.0954 16.0864 28.6148 16.3571 28.1854C16.6371 27.7468 17.0198 27.4061 17.5051 27.1634C17.9998 26.9114 18.5551 26.7854 19.1711 26.7854C19.8058 26.7854 20.3704 26.9114 20.8651 27.1634C21.3598 27.4154 21.7424 27.7654 22.0131 28.2134C22.2931 28.6521 22.4331 29.1468 22.4331 29.6974C22.4331 30.0894 22.3538 30.4581 22.1951 30.8034C22.0458 31.1488 21.8264 31.4521 21.5371 31.7134ZM34.3843 37.4814H32.5503L32.5363 36.1094C32.1536 36.6134 31.6776 37.0008 31.1083 37.2714C30.5389 37.5421 29.8996 37.6774 29.1903 37.6774C28.1636 37.6774 27.2489 37.4441 26.4463 36.9774C25.6529 36.5014 25.0323 35.8481 24.5843 35.0174C24.1456 34.1868 23.9263 33.2534 23.9263 32.2174C23.9263 31.1628 24.1503 30.2248 24.5983 29.4034C25.0463 28.5821 25.6763 27.9428 26.4883 27.4854C27.3003 27.0188 28.2289 26.7854 29.2743 26.7854C30.5529 26.7854 31.6403 27.1028 32.5363 27.7374C33.4323 28.3628 34.0343 29.2354 34.3423 30.3554H31.7243C31.5469 29.9261 31.2529 29.5854 30.8423 29.3334C30.4409 29.0721 29.9323 28.9414 29.3163 28.9414C28.4109 28.9414 27.6969 29.2354 27.1743 29.8234C26.6609 30.4114 26.4043 31.2141 26.4043 32.2314C26.4043 33.2581 26.6609 34.0748 27.1743 34.6814C27.6876 35.2788 28.4016 35.5774 29.3163 35.5774C30.0256 35.5774 30.6229 35.4048 31.1083 35.0594C31.5936 34.7048 31.9296 34.2194 32.1163 33.6034H29.5543V31.8394H34.3843V37.4814Z" fill="#4F008C"/>
<path d="M33.1215 24.0082C31.0017 22.819 28.5727 22.1443 25.9891 22.1443C23.4055 22.1443 20.9764 22.819 18.8566 24.0082" stroke="#4F008C" stroke-width="2" stroke-miterlimit="10"/>
<path d="M36.5663 19.0568C33.4638 17.1699 29.8534 16.0721 26.0001 16.0721C22.1468 16.0721 18.5364 17.1585 15.4338 19.0568" stroke="#4F008C" stroke-width="2" stroke-miterlimit="10"/>
<path d="M40 14.1053C35.9259 11.5095 31.1341 10 26 10C20.8659 10.0114 16.0631 11.5095 12 14.1053" stroke="#4F008C" stroke-width="2" stroke-miterlimit="10"/>
</svg>
