<?xml version="1.0" encoding="UTF-8"?>
<svg id="Layer_2" data-name="Layer 2" xmlns="http://www.w3.org/2000/svg" viewBox="0 0 943.22 943.22">
  <defs>
    <style>
      .cls-1 {
        fill: #f8bf19;
      }

      .cls-1, .cls-2 {
        stroke-width: 0px;
      }

      .cls-2 {
        fill: #fff;
      }
    </style>
  </defs>
  <g id="Layer_1-2" data-name="Layer 1">
    <rect class="cls-1" y="0" width="943.22" height="943.22"/>
    <g>
      <path class="cls-2" d="M471.61,830.31h0c-6.5,0-11.77-5.27-11.77-11.77v-58.62c0-6.5,5.27-11.77,11.77-11.77h0c6.5,0,11.77,5.27,11.77,11.77v58.62c0,6.5-5.27,11.77-11.77,11.77Z"/>
      <g>
        <path class="cls-2" d="M609.08,592.04c0-75.92-61.55-137.47-137.47-137.47s-137.47,61.55-137.47,137.47,61.55,137.47,137.47,137.47,137.47-61.55,137.47-137.47ZM462.72,511.66c0-4.91,3.98-8.89,8.89-8.89s8.89,3.98,8.89,8.89v46.42c0,4.91-3.98,8.89-8.89,8.89s-8.89-3.98-8.89-8.89v-46.42ZM471.61,659.32c-38.18,0-69.24-31.06-69.24-69.25,0-30.19,19.45-55.86,46.46-65.31v22c-15.55,8.21-26.19,24.54-26.19,43.32,0,27.01,21.97,48.98,48.98,48.98s48.98-21.97,48.98-48.98c0-18.78-10.64-35.1-26.19-43.32v-22c27,9.45,46.46,35.12,46.46,65.31,0,38.18-31.06,69.25-69.25,69.25Z"/>
        <path class="cls-2" d="M471.61,435.93c6.5,0,11.77-5.27,11.77-11.77v-58.62c0-6.5-5.27-11.77-11.77-11.77s-11.77,5.27-11.77,11.77v58.62c0,6.5,5.27,11.77,11.77,11.77Z"/>
        <path class="cls-2" d="M549.66,456.85c5.63,3.25,12.83,1.32,16.08-4.31l29.31-50.77c3.25-5.63,1.32-12.83-4.31-16.08-5.63-3.25-12.83-1.32-16.08,4.31l-29.31,50.77c-3.25,5.63-1.32,12.83,4.31,16.08Z"/>
        <path class="cls-2" d="M393.56,727.23c-5.63-3.25-12.83-1.32-16.08,4.31l-29.31,50.77c-3.25,5.63-1.32,12.83,4.31,16.08,5.63,3.25,12.83,1.32,16.08-4.31l29.31-50.77c3.25-5.63,1.32-12.83-4.31-16.08Z"/>
        <path class="cls-2" d="M622.88,518.29l50.77-29.31c5.63-3.25,7.56-10.45,4.31-16.08-3.25-5.63-10.45-7.56-16.08-4.31l-50.77,29.31c-5.63,3.25-7.56,10.45-4.31,16.08,3.25,5.63,10.45,7.56,16.08,4.31Z"/>
        <path class="cls-2" d="M320.34,665.78l-50.77,29.31c-5.63,3.25-7.56,10.45-4.31,16.08,3.25,5.63,10.45,7.56,16.08,4.31l50.77-29.31c5.63-3.25,7.56-10.45,4.31-16.08-3.25-5.63-10.45-7.56-16.08-4.31Z"/>
        <path class="cls-2" d="M698.11,580.27h-58.62c-6.5,0-11.77,5.27-11.77,11.77s5.27,11.77,11.77,11.77h58.62c6.5,0,11.77-5.27,11.77-11.77s-5.27-11.77-11.77-11.77Z"/>
        <path class="cls-2" d="M315.51,592.04c0-6.5-5.27-11.77-11.77-11.77h-58.62c-6.5,0-11.77,5.27-11.77,11.77s5.27,11.77,11.77,11.77h58.62c6.5,0,11.77-5.27,11.77-11.77Z"/>
        <path class="cls-2" d="M673.65,695.09l-50.77-29.31c-5.63-3.25-12.83-1.32-16.08,4.31-3.25,5.63-1.32,12.83,4.31,16.08l50.77,29.31c5.63,3.25,12.83,1.32,16.08-4.31,3.25-5.63,1.32-12.83-4.31-16.08Z"/>
        <path class="cls-2" d="M269.57,488.98l50.77,29.31c5.63,3.25,12.83,1.32,16.08-4.31,3.25-5.63,1.32-12.83-4.31-16.08l-50.77-29.31c-5.63-3.25-12.83-1.32-16.08,4.31-3.25,5.63-1.32,12.83,4.31,16.08Z"/>
        <path class="cls-2" d="M565.74,731.54c-3.25-5.63-10.45-7.56-16.08-4.31-5.63,3.25-7.56,10.45-4.31,16.08l29.31,50.77c3.25,5.63,10.45,7.56,16.08,4.31,5.63-3.25,7.56-10.45,4.31-16.08l-29.31-50.77Z"/>
        <path class="cls-2" d="M377.48,452.54c3.25,5.63,10.45,7.56,16.08,4.31,5.63-3.25,7.56-10.45,4.31-16.08l-29.31-50.77c-3.25-5.63-10.45-7.56-16.08-4.31-5.63,3.25-7.56,10.45-4.31,16.08l29.31,50.77Z"/>
      </g>
    </g>
    <g>
      <path class="cls-2" d="M255,123.54l-4.33-15.28h-19.53l-4.41,15.28h-10.41l17.94-60h13.38l17.86,60h-10.49ZM233.65,99.46h14.52l-7.14-25.04h-.23l-7.14,25.04Z"/>
      <path class="cls-2" d="M310.48,72.34h-27.74v14.88h24.24v8.8h-24.24v27.52h-10.11v-60h37.85v8.8Z"/>
      <path class="cls-2" d="M355.93,72.34h-27.74v14.88h24.24v8.8h-24.24v27.52h-10.11v-60h37.85v8.8Z"/>
      <path class="cls-2" d="M375.2,120.74c-4.33-2.67-7.7-6.37-10.11-11.12-2.41-4.75-3.61-10.11-3.61-16.08s1.2-11.32,3.61-16.04c2.41-4.72,5.78-8.41,10.11-11.08,4.33-2.67,9.26-4,14.78-4s10.45,1.33,14.78,4c4.33,2.67,7.7,6.36,10.11,11.08,2.41,4.72,3.61,10.07,3.61,16.04s-1.2,11.33-3.61,16.08c-2.41,4.75-5.78,8.45-10.11,11.12-4.33,2.67-9.26,4-14.78,4s-10.45-1.33-14.78-4ZM399.55,112.1c2.74-1.76,4.85-4.24,6.35-7.44,1.49-3.2,2.24-6.88,2.24-11.04s-.75-7.92-2.24-11.12c-1.5-3.2-3.61-5.68-6.35-7.44-2.74-1.76-5.93-2.64-9.58-2.64s-6.84.88-9.58,2.64c-2.74,1.76-4.85,4.24-6.35,7.44-1.5,3.2-2.24,6.91-2.24,11.12s.75,7.84,2.24,11.04c1.49,3.2,3.61,5.68,6.35,7.44,2.74,1.76,5.93,2.64,9.58,2.64s6.84-.88,9.58-2.64Z"/>
      <path class="cls-2" d="M465.37,90.06c-1.93,2.75-4.61,4.65-8.06,5.72l10.79,27.76h-10.72l-10.26-26.88h-8.89v26.88h-10.11v-60h22.65c3.6,0,6.71.71,9.35,2.12,2.63,1.41,4.65,3.39,6.04,5.92,1.39,2.53,2.09,5.43,2.09,8.68,0,3.79-.96,7.05-2.89,9.8ZM438.24,87.86h11.7c2.68,0,4.66-.73,5.93-2.2,1.27-1.47,1.9-3.32,1.9-5.56s-.62-4.09-1.86-5.56c-1.24-1.47-3.18-2.2-5.81-2.2h-11.86v15.52Z"/>
      <path class="cls-2" d="M509.22,67.3c4.36,2.51,7.68,6.01,9.96,10.52,2.28,4.51,3.42,9.72,3.42,15.64s-1.15,11.16-3.46,15.72c-2.31,4.56-5.61,8.09-9.92,10.6s-9.42,3.76-15.35,3.76h-18.24v-60h18.16c5.93,0,11.07,1.25,15.43,3.76ZM507.78,108.22c3.09-3.76,4.64-8.68,4.64-14.76s-1.56-10.93-4.67-14.72c-3.12-3.79-7.82-5.68-14.1-5.68h-8.13v40.8h8.21c6.28,0,10.97-1.88,14.06-5.64Z"/>
      <path class="cls-2" d="M564.09,123.54l-4.33-15.28h-19.53l-4.41,15.28h-10.41l17.94-60h13.38l17.86,60h-10.49ZM542.74,99.46h14.52l-7.14-25.04h-.23l-7.14,25.04Z"/>
      <path class="cls-2" d="M620.03,96.02c1.62,2.51,2.43,5.49,2.43,8.96,0,3.73-.81,7-2.43,9.8-1.62,2.8-3.95,4.96-6.99,6.48-3.04,1.52-6.59,2.28-10.64,2.28h-20.67v-60h21.96c5.22,0,9.32,1.35,12.31,4.04,2.99,2.69,4.48,6.36,4.48,11,0,2.67-.65,5.04-1.94,7.12s-3.08,3.68-5.36,4.8c2.94,1.17,5.22,3.01,6.84,5.52ZM608.86,74.26c-1.42-1.28-3.47-1.92-6.16-1.92h-11.32v14.8h11.25c2.58,0,4.62-.67,6.12-2,1.49-1.33,2.24-3.12,2.24-5.36,0-2.4-.71-4.24-2.13-5.52ZM609.81,112.1c1.95-1.76,2.93-4.13,2.93-7.12s-.94-5.19-2.81-6.76c-1.88-1.57-4.56-2.36-8.06-2.36h-10.49v18.88h10.41c3.39,0,6.07-.88,8.02-2.64Z"/>
      <path class="cls-2" d="M639.71,114.74h25.46v8.8h-35.57v-60h10.11v51.2Z"/>
      <path class="cls-2" d="M683.11,114.74h26.68v8.8h-36.78v-60h35.8v8.8h-25.69v14.88h22.34v8.8h-22.34v18.72Z"/>
      <path class="cls-2" d="M771.95,123.54l-4.33-15.28h-19.53l-4.41,15.28h-10.41l17.94-60h13.38l17.86,60h-10.49ZM750.6,99.46h14.52l-7.14-25.04h-.23l-7.14,25.04Z"/>
      <path class="cls-2" d="M789.59,123.54v-60h10.49l24.85,42.8h.23v-42.8h9.58v60h-10.49l-24.85-42.8h-.23v42.8h-9.58Z"/>
      <path class="cls-2" d="M878.51,67.3c4.36,2.51,7.68,6.01,9.96,10.52,2.28,4.51,3.42,9.72,3.42,15.64s-1.15,11.16-3.46,15.72c-2.31,4.56-5.61,8.09-9.92,10.6s-9.42,3.76-15.35,3.76h-18.24v-60h18.16c5.93,0,11.07,1.25,15.43,3.76ZM877.06,108.22c3.09-3.76,4.64-8.68,4.64-14.76s-1.56-10.93-4.67-14.72c-3.12-3.79-7.82-5.68-14.1-5.68h-8.13v40.8h8.21c6.28,0,10.97-1.88,14.06-5.64Z"/>
      <path class="cls-2" d="M263.21,208.5c-4.76,4.16-10.69,6.24-17.78,6.24-5.47,0-10.34-1.33-14.59-4-4.26-2.67-7.58-6.36-9.96-11.08-2.38-4.72-3.57-10.09-3.57-16.12s1.19-11.4,3.57-16.12c2.38-4.72,5.7-8.4,9.96-11.04,4.26-2.64,9.12-3.96,14.59-3.96,6.99,0,12.87,2.03,17.63,6.08,4.76,4.05,7.88,9.65,9.35,16.8h-10.34c-1.42-4.27-3.47-7.48-6.16-9.64-2.69-2.16-6.18-3.24-10.49-3.24-3.6,0-6.74.88-9.42,2.64-2.69,1.76-4.75,4.24-6.19,7.44s-2.17,6.91-2.17,11.12.72,7.91,2.17,11.08c1.44,3.17,3.51,5.64,6.19,7.4,2.68,1.76,5.83,2.64,9.42,2.64,8.71,0,14.31-4.51,16.8-13.52h10.18c-1.37,7.36-4.43,13.12-9.2,17.28Z"/>
      <path class="cls-2" d="M292.01,204.74h25.46v8.8h-35.57v-60h10.11v51.2Z"/>
      <path class="cls-2" d="M335.41,204.74h26.68v8.8h-36.78v-60h35.8v8.8h-25.69v14.88h22.34v8.8h-22.34v18.72Z"/>
      <path class="cls-2" d="M405.63,213.54l-4.33-15.28h-19.53l-4.41,15.28h-10.41l17.94-60h13.38l17.86,60h-10.49ZM384.28,189.46h14.52l-7.14-25.04h-.23l-7.14,25.04Z"/>
      <path class="cls-2" d="M423.27,213.54v-60h10.49l24.85,42.8h.23v-42.8h9.58v60h-10.49l-24.85-42.8h-.23v42.8h-9.58Z"/>
      <path class="cls-2" d="M507.32,204.74h26.68v8.8h-36.78v-60h35.8v8.8h-25.69v14.88h22.34v8.8h-22.34v18.72Z"/>
      <path class="cls-2" d="M541.9,213.54v-60h10.49l24.85,42.8h.23v-42.8h9.58v60h-10.49l-24.85-42.8h-.23v42.8h-9.58Z"/>
      <path class="cls-2" d="M607.34,204.74h26.68v8.8h-36.78v-60h35.8v8.8h-25.69v14.88h22.34v8.8h-22.34v18.72Z"/>
      <path class="cls-2" d="M679.16,180.06c-1.93,2.75-4.61,4.65-8.06,5.72l10.79,27.76h-10.72l-10.26-26.88h-8.89v26.88h-10.11v-60h22.65c3.6,0,6.71.71,9.35,2.12,2.63,1.41,4.65,3.39,6.04,5.92,1.39,2.53,2.09,5.43,2.09,8.68,0,3.79-.96,7.05-2.89,9.8ZM652.03,177.86h11.7c2.68,0,4.66-.73,5.93-2.2,1.27-1.47,1.9-3.32,1.9-5.56s-.62-4.09-1.86-5.56c-1.24-1.47-3.18-2.2-5.81-2.2h-11.86v15.52Z"/>
      <path class="cls-2" d="M742.92,213.54h-8.36v-8.96c-2.08,3.25-4.75,5.76-8.02,7.52-3.27,1.76-7,2.64-11.21,2.64-5.37,0-10.18-1.36-14.44-4.08-4.26-2.72-7.58-6.45-9.96-11.2-2.38-4.75-3.57-10.05-3.57-15.92s1.19-11.32,3.57-16.04c2.38-4.72,5.71-8.41,9.99-11.08,4.28-2.67,9.18-4,14.71-4,6.64,0,12.35,1.75,17.14,5.24,4.79,3.49,8.02,8.31,9.69,14.44h-10.72c-1.22-3.09-3.18-5.53-5.89-7.32-2.71-1.79-6.07-2.68-10.07-2.68-3.65,0-6.84.89-9.58,2.68-2.74,1.79-4.85,4.31-6.35,7.56-1.5,3.25-2.24,7.01-2.24,11.28s.75,8.03,2.24,11.28c1.49,3.25,3.61,5.77,6.35,7.56,2.74,1.79,5.95,2.68,9.65,2.68,4.56,0,8.36-1.31,11.4-3.92,3.04-2.61,5.02-6.16,5.93-10.64h-14.44v-8.8h24.17v31.76Z"/>
      <path class="cls-2" d="M789.66,153.54l-18.09,41.12v18.88h-10.11v-19.04l-18.01-40.96h10.49l12.46,30.24h.23l12.54-30.24h10.49Z"/>
    </g>
    <path class="cls-2" d="M43.37,67.79h131.49v26.73l-75.87,175.77h-37.26l76.68-171.45H43.37v-31.05Z"/>
  </g>
</svg>