<?xml version="1.0" encoding="UTF-8"?>
<svg id="Layer_2" data-name="Layer 2" xmlns="http://www.w3.org/2000/svg" viewBox="0 0 943.22 943.22">
  <defs>
    <style>
      .cls-1 {
        fill: #25b3d3;
      }

      .cls-1, .cls-2 {
        stroke-width: 0px;
      }

      .cls-2 {
        fill: #fff;
      }
    </style>
  </defs>
  <g id="Layer_1-2" data-name="Layer 1">
    <rect class="cls-1" y="0" width="943.22" height="943.22"/>
    <path class="cls-2" d="M471.61,381.42h-172.77v19.22l54.49,330.22h76.24l2.66,59.17h-31.05l70.44,71.07,70.44-71.07h-31.05l2.66-59.17h76.24l54.49-330.22v-19.22h-172.77ZM471.61,674.22c-30.57,0-55.36-26.25-55.36-58.51,0-30.32,15.87-56.14,48.76-91.86q6.61-7.22,13.28,0c32.78,35.72,48.69,61.54,48.69,91.86,0,32.26-24.79,58.51-55.36,58.51ZM620.85,453.92s-18.29-7.7-65.47,13.48c-47.18,21.18-75.1,3.84-93.4-4.34-18.29-8.18-40.44-27.44-83.77-9.14-43.33,18.29-51.03,9.14-51.03,9.14l-12.52-63.06h313.88l-7.7,53.92Z"/>
    <g>
      <path class="cls-2" d="M293.09,126.83c-4.51,4.16-10.13,6.24-16.85,6.24-5.18,0-9.79-1.33-13.82-4-4.03-2.67-7.18-6.36-9.43-11.08-2.26-4.72-3.38-10.09-3.38-16.12s1.13-11.4,3.38-16.12c2.26-4.72,5.4-8.4,9.43-11.04,4.03-2.64,8.64-3.96,13.82-3.96,6.62,0,12.19,2.03,16.7,6.08,4.51,4.05,7.46,9.65,8.86,16.8h-9.79c-1.34-4.27-3.29-7.48-5.83-9.64-2.54-2.16-5.86-3.24-9.94-3.24-3.41,0-6.38.88-8.93,2.64-2.54,1.76-4.5,4.24-5.87,7.44-1.37,3.2-2.05,6.91-2.05,11.12s.68,7.91,2.05,11.08c1.37,3.17,3.32,5.64,5.87,7.4,2.54,1.76,5.52,2.64,8.93,2.64,8.26,0,13.56-4.51,15.91-13.52h9.65c-1.3,7.36-4.2,13.12-8.71,17.28Z"/>
      <path class="cls-2" d="M320.37,123.07h24.12v8.8h-33.7v-60h9.58v51.2Z"/>
      <path class="cls-2" d="M361.49,123.07h25.27v8.8h-34.85v-60h33.91v8.8h-24.34v14.88h21.17v8.8h-21.17v18.72Z"/>
      <path class="cls-2" d="M428.01,131.87l-4.1-15.28h-18.5l-4.18,15.28h-9.86l16.99-60h12.67l16.92,60h-9.94ZM407.78,107.79h13.75l-6.77-25.04h-.22l-6.77,25.04Z"/>
      <path class="cls-2" d="M444.72,131.87v-60h9.94l23.54,42.8h.22v-42.8h9.07v60h-9.94l-23.54-42.8h-.22v42.8h-9.07Z"/>
      <path class="cls-2" d="M575.54,71.87h9.79l-15.12,60h-11.66l-9.94-40.88-9.94,40.88h-11.59l-15.19-60h9.72l11.16,46.4h.22l10.87-43.68h9.5l10.87,43.68h.22l11.09-46.4Z"/>
      <path class="cls-2" d="M619.17,131.87l-4.1-15.28h-18.5l-4.18,15.28h-9.86l16.99-60h12.67l16.92,60h-9.94ZM598.94,107.79h13.75l-6.77-25.04h-.22l-6.77,25.04Z"/>
      <path class="cls-2" d="M642.14,131.87v-51.2h-15.91v-8.8h41.4v8.8h-15.91v51.2h-9.58Z"/>
      <path class="cls-2" d="M684.19,123.07h25.27v8.8h-34.85v-60h33.91v8.8h-24.34v14.88h21.17v8.8h-21.17v18.72Z"/>
      <path class="cls-2" d="M752.23,98.39c-1.82,2.75-4.37,4.65-7.63,5.72l10.22,27.76h-10.15l-9.72-26.88h-8.42v26.88h-9.58v-60h21.46c3.41,0,6.36.71,8.86,2.12,2.5,1.41,4.4,3.39,5.72,5.92,1.32,2.53,1.98,5.43,1.98,8.68,0,3.79-.91,7.05-2.74,9.8ZM726.53,96.19h11.09c2.54,0,4.42-.73,5.62-2.2,1.2-1.47,1.8-3.32,1.8-5.56s-.59-4.09-1.76-5.56c-1.18-1.47-3.01-2.2-5.51-2.2h-11.23v15.52Z"/>
      <path class="cls-2" d="M285.31,221.87l-4.1-15.28h-18.5l-4.18,15.28h-9.86l16.99-60h12.67l16.92,60h-9.94ZM265.08,197.79h13.75l-6.77-25.04h-.22l-6.77,25.04Z"/>
      <path class="cls-2" d="M302.01,221.87v-60h9.94l23.54,42.8h.22v-42.8h9.07v60h-9.94l-23.54-42.8h-.22v42.8h-9.07Z"/>
      <path class="cls-2" d="M386.25,165.63c4.13,2.51,7.27,6.01,9.43,10.52s3.24,9.72,3.24,15.64-1.09,11.16-3.28,15.72c-2.18,4.56-5.32,8.09-9.4,10.6-4.08,2.51-8.93,3.76-14.54,3.76h-17.28v-60h17.21c5.62,0,10.49,1.25,14.62,3.76ZM384.89,206.55c2.93-3.76,4.39-8.68,4.39-14.76s-1.48-10.93-4.43-14.72c-2.95-3.79-7.41-5.68-13.36-5.68h-7.7v40.8h7.78c5.95,0,10.39-1.88,13.32-5.64Z"/>
      <path class="cls-2" d="M428.08,217.19c-3.94-3.87-5.98-9.21-6.12-16.04h9.94c.1,3.95,1.26,7.03,3.49,9.24,2.23,2.21,5.24,3.32,9.04,3.32,3.17,0,5.74-.8,7.7-2.4,1.97-1.6,2.95-3.71,2.95-6.32,0-2.08-.41-3.75-1.22-5-.82-1.25-2.14-2.23-3.96-2.92-1.83-.69-4.34-1.2-7.56-1.52-6.29-.59-10.97-2.29-14.04-5.12-3.07-2.83-4.61-6.85-4.61-12.08,0-3.52.79-6.61,2.38-9.28,1.58-2.67,3.82-4.72,6.7-6.16s6.21-2.16,10.01-2.16c6.24,0,11.17,1.69,14.8,5.08,3.62,3.39,5.58,8.17,5.87,14.36h-9.86c-.24-3.31-1.27-5.85-3.1-7.64-1.83-1.79-4.34-2.68-7.56-2.68-2.98,0-5.34.71-7.09,2.12-1.75,1.41-2.63,3.32-2.63,5.72,0,1.97.41,3.55,1.22,4.72.82,1.17,2.15,2.09,4,2.76s4.36,1.13,7.52,1.4c6.38.59,11.09,2.29,14.11,5.12,3.02,2.83,4.54,6.99,4.54,12.48,0,3.79-.83,7.11-2.48,9.96-1.66,2.85-4.03,5.04-7.13,6.56-3.1,1.52-6.71,2.28-10.84,2.28-6.77,0-12.12-1.93-16.06-5.8Z"/>
      <path class="cls-2" d="M505.13,221.87l-4.1-15.28h-18.5l-4.18,15.28h-9.86l16.99-60h12.67l16.92,60h-9.94ZM484.89,197.79h13.75l-6.77-25.04h-.22l-6.77,25.04Z"/>
      <path class="cls-2" d="M521.83,221.87v-60h9.94l23.54,42.8h.22v-42.8h9.07v60h-9.94l-23.54-42.8h-.22v42.8h-9.07Z"/>
      <path class="cls-2" d="M574.25,161.87h9.43v60h-9.43v-60Z"/>
      <path class="cls-2" d="M606.57,221.87v-51.2h-15.91v-8.8h41.4v8.8h-15.91v51.2h-9.58Z"/>
      <path class="cls-2" d="M665.83,221.87l-4.1-15.28h-18.5l-4.18,15.28h-9.86l16.99-60h12.67l16.92,60h-9.94ZM645.6,197.79h13.75l-6.77-25.04h-.22l-6.77,25.04Z"/>
      <path class="cls-2" d="M688.8,221.87v-51.2h-15.91v-8.8h41.4v8.8h-15.91v51.2h-9.58Z"/>
      <path class="cls-2" d="M721.27,161.87h9.43v60h-9.43v-60Z"/>
      <path class="cls-2" d="M751.4,219.07c-4.1-2.67-7.3-6.37-9.58-11.12-2.28-4.75-3.42-10.11-3.42-16.08s1.14-11.32,3.42-16.04c2.28-4.72,5.47-8.41,9.58-11.08,4.1-2.67,8.77-4,14-4s9.9,1.33,14,4c4.1,2.67,7.3,6.36,9.58,11.08,2.28,4.72,3.42,10.07,3.42,16.04s-1.14,11.33-3.42,16.08c-2.28,4.75-5.47,8.45-9.58,11.12-4.1,2.67-8.77,4-14,4s-9.9-1.33-14-4ZM774.48,210.43c2.59-1.76,4.6-4.24,6.01-7.44,1.42-3.2,2.12-6.88,2.12-11.04s-.71-7.92-2.12-11.12c-1.42-3.2-3.42-5.68-6.01-7.44-2.59-1.76-5.62-2.64-9.07-2.64s-6.48.88-9.07,2.64c-2.59,1.76-4.6,4.24-6.01,7.44-1.42,3.2-2.12,6.91-2.12,11.12s.71,7.84,2.12,11.04c1.42,3.2,3.42,5.68,6.01,7.44,2.59,1.76,5.62,2.64,9.07,2.64s6.48-.88,9.07-2.64Z"/>
      <path class="cls-2" d="M801.55,221.87v-60h9.94l23.54,42.8h.22v-42.8h9.07v60h-9.94l-23.54-42.8h-.22v42.8h-9.07Z"/>
    </g>
    <path class="cls-2" d="M164.32,153.12c10.35,5.76,18.4,13.5,24.17,23.22,5.76,9.72,8.64,20.43,8.64,32.13,0,12.42-3.02,23.67-9.04,33.75-6.03,10.08-14.4,17.96-25.11,23.62-10.71,5.67-22.82,8.5-36.32,8.5s-25.07-2.83-35.77-8.5c-10.71-5.67-19.13-13.45-25.25-23.35-6.12-9.9-9.18-20.97-9.18-33.21s3.51-23.94,10.53-35.1l65.07-106.38h40.77l-48.06,76.95c.9-.18,2.25-.27,4.05-.27,13.32,0,25.15,2.88,35.5,8.64ZM153.11,233.71c7.02-6.57,10.53-14.99,10.53-25.25s-3.47-18.5-10.4-25.25c-6.93-6.75-15.79-10.12-26.59-10.12s-19.17,3.38-26.19,10.12c-7.02,6.75-10.53,15.17-10.53,25.25s3.51,18.68,10.53,25.25c7.02,6.57,15.75,9.85,26.19,9.85s19.44-3.28,26.46-9.85Z"/>
  </g>
</svg>