<?xml version="1.0" encoding="UTF-8"?>
<svg id="Layer_2" data-name="Layer 2" xmlns="http://www.w3.org/2000/svg" viewBox="0 0 943.22 943.22">
  <defs>
    <style>
      .cls-1 {
        fill: #377e46;
      }

      .cls-1, .cls-2 {
        stroke-width: 0px;
      }

      .cls-3 {
        font-family: STCForward-Medium, 'STC Forward';
        font-size: 270px;
        font-weight: 500;
      }

      .cls-3, .cls-2 {
        fill: #fff;
      }
    </style>
  </defs>
  <g id="Layer_1-2" data-name="Layer 1">
    <rect class="cls-1" width="943.22" height="943.22"/>
    <g>
      <path class="cls-2" d="M127.31,602.13s109.26-178.72,347.33-178.72,348.79,171.72,348.79,171.72c0,0-99.67,183.57-348.79,183.57s-347.33-176.56-347.33-176.56Z"/>
      <g>
        <path class="cls-1" d="M342.05,652.77c-1.96-5.02-3.66-10.16-5.05-15.43,1.41,6.58,3.12,12.09,5.05,15.43Z"/>
        <path class="cls-1" d="M460.07,647.22c-5.96,6.5-3.79,21.67-7.08,24.92-3.29,3.25-6.46,4.33-7,0s1.62-9.21,2.71-16.25c1.08-7.04,1.62-7.58,2.71-12.46,1.08-4.87,8.67-5.96,8.67-5.96,9.21,2.71,5.96,3.25,0,9.75ZM504.76,625.62l-6.23-4.94s1.08-5.42,2.71-5.42,9.75,2.71,9.75,2.71l-6.23,7.65ZM580.77,615.26c-1.5,0-2.71-1.21-2.71-2.71s1.21-2.71,2.71-2.71,2.71,1.21,2.71,2.71-1.21,2.71-2.71,2.71ZM592.77,637.47l-7.04-5.42s-.54-4.87,0-6.44c.54-1.56,4.87,1.56,7.04,0l3.79,5.7-3.79,6.15Z"/>
        <path class="cls-1" d="M344.7,655.88c8.67,4.87,14.62-3.25,18.96-3.79,4.33-.54,8.67-.69,13,5.34,4.33,6.03,5.96,11.99,10.83,16.32,4.87,4.33,4.87,7.04,5.96,13.54,1.08,6.5,1.62,23.29,12.46,20.58,10.83-2.71,20.04-13.54,21.12-22.21,1.08-8.67,2.17-9.75,7.04-15.17,4.87-5.42,9.21-15.17,7.04-22.21-2.17-7.04-3.25-3.79,3.79-11.37,7.04-7.58,7.04-14.08,2.71-19.5-4.33-5.42-16.79-14.08-16.25-21.12.54-7.04,1.62-12.46,9.21-4.33,7.58,8.12,17.87,18.96,22.21,13,4.33-5.96,10.29-7.55,2.71-15.69-7.58-8.14-14.62-12.48-14.62-18.43s2.17-12.46,11.37-3.79c9.21,8.67,13,9.75,15.17,17.33,2.17,7.58-1.63,8.12,8.67,10.83,10.29,2.71,17.87,2.17,22.75,7.58,4.87,5.42,7.58,14.62,11.92,9.75,4.33-4.87,1.08-3.25,8.13-13.54,7.04-10.29-9.21-11.37,0-16.25,9.21-4.88,13,.54,18.42,11.37,5.42,10.83,7.58,34.67,29.25,40.62,0,0-13.54-17.33-7.04-27.08,6.5-9.75,15.17-12.42,20.58-18.4,5.42-5.98,2.17-15.18,3.79-19.52,1.63-4.33,1.08-5.42,8.13-1.08,6.23,3.84,9.5,10.19,14.67,4.47-12.83-66.12-71.01-116.05-140.88-116.05-21.67,0-42.21,4.83-60.63,13.43,13.28-.61,27.96.73,30.46,9.24,4.73,16.09,7.57,14.19,11.36,17.98,3.79,3.79,2.84,14.2-4.73,17.03-7.57,2.84-30.01,4.73-26.36,0,3.65-4.73,5.54-10.41,14.06-12.3,1.19-.26,1.84-.41,2.15-.48-1.5.33-10.67,2.37-10.67,2.37h-11.36c-7.57,0-33.12-.95-36.91,7.57-3.79,8.52,10.41,15.14,17.03,14.19,6.62-.95,8.52-7.23,13.25-6.45,4.73.77,6.62,11.18,2.84,12.13-3.79.95-9.28,10.32-22.28,4.9-13-5.42-17.33-1.08-24.92,4.88-7.58,5.96-8.12,13-11.92,11.92-3.22-.92-11.12-5.95-16.08-2.54-1.29,3.49-2.41,7.05-3.42,10.66,1.17,4.05,5.07,6.41,9.22,4.33,6.5-3.25,24.92-14.08,30.33-13,5.42,1.08,2.71,2.71,5.96,8.67,3.25,5.96,5.96,7.58,5.96,7.58,0,0-4.33-8.12-.54-10.83,3.79-2.71,5.7-2.17,9.62,2.17,3.92,4.33,11.5-2.17,9.88,5.42-1.62,7.58,9.5,18.96-9.88,18.96s-33.46-11.37-37.25-13c-3.79-1.62-24.92-2.71-27.62,13-1.76,10.19-.08,34.93,3.67,52.41,1.39,5.27,3.09,10.41,5.05,15.43.85,1.46,1.73,2.59,2.65,3.11Z"/>
        <path class="cls-1" d="M460.07,637.47s-7.58,1.08-8.67,5.96c-1.08,4.88-1.62,5.42-2.71,12.46-1.08,7.04-3.25,11.92-2.71,16.25s3.71,3.25,7,0c3.29-3.25,1.13-18.42,7.08-24.92,5.96-6.5,9.21-7.04,0-9.75Z"/>
        <path class="cls-1" d="M617.92,580.83c-.27-.07-.49-.18-.77-.23,0,0-.54,1.08-2.71,5.42-2.17,4.33-4.88,3.25-6.5,10.29-1.62,7.04,4.33,21.67,9.21,27.08.11.12.2.16.31.27,1.21-7.5,1.86-15.18,1.86-23.02,0-6.72-.5-13.33-1.39-19.81Z"/>
        <path class="cls-1" d="M597.11,643.43c-4.84,2.71-17.33,6.5-26.54,9.75-9.21,3.25-14.62,2.17-23.83,17.99-9.21,15.83,3.79,25.34,14.62,25.34s6.5,2.17,13.54,3.25c1.52.23,2.76.52,3.85.82,15.18-15.64,26.83-34.7,33.66-55.94-.04-.41-.06-.87-.14-1.21-2.17-9.21-15.17,0-15.17,0Z"/>
        <path class="cls-1" d="M524.52,724.82c-9.21,5.02-17.33.94-42.25-8.27-24.92-9.21-48.75,18.42-48.75,18.42l-1.55,2.38c13.81,4.42,28.52,6.83,43.8,6.83,31.55,0,60.7-10.2,84.39-27.46-2.69-.96-6.89-1.31-13.43-2.05-11.92-1.34-13,5.13-22.21,10.15Z"/>
        <path class="cls-1" d="M372.32,522.1c-1.63-1.63-4.33-3.79-14.08,0-1.5.58-2.88,1.46-4.18,2.48-2.91,4.64-5.57,9.45-7.94,14.43,2-1.43,4.68-3.52,7.24-6.08,4.88-4.88,20.58-9.21,18.96-10.83Z"/>
        <path class="cls-1" d="M380.99,496.64c.97-2.13.93-3.33.24-3.96-5.47,4.8-10.59,10-15.28,15.57,1.91-.77,4.08-1.32,6.48-1.32,8.78,0,5.84-4.33,8.55-10.29Z"/>
        <path class="cls-1" d="M498.53,620.68l6.23,4.94,6.23-7.65s-8.12-2.71-9.75-2.71-2.71,5.42-2.71,5.42Z"/>
        <path class="cls-1" d="M585.73,625.62c-.54,1.56,0,6.44,0,6.44l7.04,5.42,3.79-6.15-3.79-5.7c-2.17,1.56-6.5-1.56-7.04,0Z"/>
        <path class="cls-1" d="M580.77,609.84c-1.5,0-2.71,1.21-2.71,2.71s1.21,2.71,2.71,2.71,2.71-1.21,2.71-2.71-1.21-2.71-2.71-2.71Z"/>
      </g>
    </g>
    <g>
      <path class="cls-2" d="M382.16,128.86c-4.76,4.16-10.69,6.24-17.78,6.24-5.47,0-10.34-1.33-14.59-4-4.26-2.67-7.58-6.36-9.96-11.08-2.38-4.72-3.57-10.09-3.57-16.12s1.19-11.4,3.57-16.12c2.38-4.72,5.7-8.4,9.96-11.04,4.26-2.64,9.12-3.96,14.59-3.96,6.99,0,12.87,2.03,17.63,6.08,4.76,4.05,7.88,9.65,9.35,16.8h-10.34c-1.42-4.27-3.47-7.48-6.16-9.64-2.69-2.16-6.18-3.24-10.49-3.24-3.6,0-6.74.88-9.42,2.64-2.69,1.76-4.75,4.24-6.19,7.44s-2.17,6.91-2.17,11.12.72,7.91,2.17,11.08c1.44,3.17,3.51,5.64,6.19,7.4,2.68,1.76,5.83,2.64,9.42,2.64,8.71,0,14.31-4.51,16.8-13.52h10.18c-1.37,7.36-4.43,13.12-9.2,17.28Z"/>
      <path class="cls-2" d="M410.97,125.1h25.46v8.8h-35.57v-60h10.11v51.2Z"/>
      <path class="cls-2" d="M444.25,73.9h9.96v60h-9.96v-60Z"/>
      <path class="cls-2" d="M464.39,133.9v-60h15.35l14.59,44.4h.23l14.67-44.4h15.28v60h-10.11v-45.44h-.23l-15.66,45.12h-8.13l-15.66-45.12h-.23v45.44h-10.11Z"/>
      <path class="cls-2" d="M570.34,133.9l-4.33-15.28h-19.53l-4.41,15.28h-10.41l17.94-60h13.38l17.86,60h-10.49ZM548.98,109.82h14.52l-7.14-25.04h-.23l-7.14,25.04Z"/>
      <path class="cls-2" d="M594.58,133.9v-51.2h-16.8v-8.8h43.7v8.8h-16.8v51.2h-10.11Z"/>
      <path class="cls-2" d="M638.97,125.1h26.68v8.8h-36.78v-60h35.8v8.8h-25.69v14.88h22.34v8.8h-22.34v18.72Z"/>
      <path class="cls-2" d="M373.95,223.9l-4.33-15.28h-19.53l-4.41,15.28h-10.41l17.94-60h13.38l17.86,60h-10.49ZM352.6,199.82h14.52l-7.14-25.04h-.23l-7.14,25.04Z"/>
      <path class="cls-2" d="M433.16,218.86c-4.76,4.16-10.69,6.24-17.78,6.24-5.47,0-10.34-1.33-14.59-4-4.26-2.67-7.58-6.36-9.96-11.08-2.38-4.72-3.57-10.09-3.57-16.12s1.19-11.4,3.57-16.12c2.38-4.72,5.7-8.4,9.96-11.04,4.26-2.64,9.12-3.96,14.59-3.96,6.99,0,12.87,2.03,17.63,6.08,4.76,4.05,7.88,9.65,9.35,16.8h-10.34c-1.42-4.27-3.47-7.48-6.16-9.64-2.69-2.16-6.18-3.24-10.49-3.24-3.6,0-6.74.88-9.42,2.64-2.69,1.76-4.75,4.24-6.19,7.44s-2.17,6.91-2.17,11.12.72,7.91,2.17,11.08c1.44,3.17,3.51,5.64,6.19,7.4,2.68,1.76,5.83,2.64,9.42,2.64,8.71,0,14.31-4.51,16.8-13.52h10.18c-1.37,7.36-4.43,13.12-9.2,17.28Z"/>
      <path class="cls-2" d="M460.14,223.9v-51.2h-16.8v-8.8h43.7v8.8h-16.8v51.2h-10.11Z"/>
      <path class="cls-2" d="M494.41,163.9h9.96v60h-9.96v-60Z"/>
      <path class="cls-2" d="M526.22,221.1c-4.33-2.67-7.7-6.37-10.11-11.12-2.41-4.75-3.61-10.11-3.61-16.08s1.2-11.32,3.61-16.04c2.41-4.72,5.78-8.41,10.11-11.08,4.33-2.67,9.26-4,14.78-4s10.45,1.33,14.78,4c4.33,2.67,7.7,6.36,10.11,11.08,2.41,4.72,3.61,10.07,3.61,16.04s-1.2,11.33-3.61,16.08c-2.41,4.75-5.78,8.45-10.11,11.12-4.33,2.67-9.26,4-14.78,4s-10.45-1.33-14.78-4ZM550.58,212.46c2.74-1.76,4.85-4.24,6.35-7.44,1.49-3.2,2.24-6.88,2.24-11.04s-.75-7.92-2.24-11.12c-1.5-3.2-3.61-5.68-6.35-7.44-2.74-1.76-5.93-2.64-9.58-2.64s-6.84.88-9.58,2.64c-2.74,1.76-4.85,4.24-6.35,7.44-1.5,3.2-2.24,6.91-2.24,11.12s.75,7.84,2.24,11.04c1.49,3.2,3.61,5.68,6.35,7.44,2.74,1.76,5.93,2.64,9.58,2.64s6.84-.88,9.58-2.64Z"/>
      <path class="cls-2" d="M579.15,223.9v-60h10.49l24.85,42.8h.23v-42.8h9.58v60h-10.49l-24.85-42.8h-.23v42.8h-9.58Z"/>
    </g>
    <text class="cls-3" transform="translate(33.53 270.98)"><tspan x="0" y="0">13</tspan></text>
  </g>
</svg>