<?xml version="1.0" encoding="UTF-8"?>
<svg id="Layer_2" data-name="Layer 2" xmlns="http://www.w3.org/2000/svg" viewBox="0 0 943.22 943.22">
  <defs>
    <style>
      .cls-1 {
        fill: #fff;
      }

      .cls-1, .cls-2 {
        stroke-width: 0px;
      }

      .cls-2 {
        fill: #9a2041;
      }
    </style>
  </defs>
  <g id="Layer_1-2" data-name="Layer 1">
    <rect class="cls-2" y="0" width="943.22" height="943.22"/>
    <g>
      <path class="cls-1" d="M380.42,579.86l-106.14,101.59c-.65.62-1.01,1.48-1.01,2.37v143.2c0,1.81,1.47,3.28,3.28,3.28h106.14c1.81,0,3.28-1.47,3.28-3.28v-244.79c0-2.89-3.47-4.37-5.55-2.37Z"/>
      <path class="cls-1" d="M519.28,592.09l-48.56,48.17c-1.23,1.22-3.21,1.27-4.5.12l-48.58-43.44c-2.12-1.89-5.47-.39-5.47,2.45v227.64c0,1.81,1.47,3.28,3.28,3.28h106.14c1.81,0,3.28-1.47,3.28-3.28v-232.61c0-2.92-3.52-4.39-5.59-2.33Z"/>
      <path class="cls-1" d="M658.16,453.44l-106.14,106.6c-.61.62-.96,1.45-.96,2.32v264.66c0,1.81,1.47,3.28,3.28,3.28h106.14c1.81,0,3.28-1.47,3.28-3.28v-371.27c0-2.93-3.54-4.39-5.61-2.32Z"/>
      <path class="cls-1" d="M691.68,349.26l-78.52,18.29c-2.51.58-3.4,3.69-1.58,5.51l17.11,17.16-161.9,161.9-74.41-74.41c-1.28-1.28-3.36-1.28-4.64,0l-5.3,5.3-15.46,15.46-119.79,119.79c-1.28,1.28-1.28,3.36,0,4.64l20.75,20.75c1.28,1.28,3.36,1.28,4.64,0l117.46-117.46,74.41,74.41c1.28,1.28,3.36,1.28,4.64,0l1.07-1.07,19.68-19.68,164.18-164.18,18.32,18.38c1.83,1.83,4.96.93,5.53-1.6l17.74-79.27c.53-2.36-1.59-4.46-3.95-3.91Z"/>
    </g>
    <g>
      <path class="cls-1" d="M263.45,67.3c4.36,2.51,7.68,6.01,9.96,10.52,2.28,4.51,3.42,9.72,3.42,15.64s-1.15,11.16-3.46,15.72c-2.31,4.56-5.61,8.09-9.92,10.6s-9.42,3.76-15.35,3.76h-18.24v-60h18.16c5.93,0,11.07,1.25,15.43,3.76ZM262.01,108.22c3.09-3.76,4.64-8.68,4.64-14.76s-1.56-10.93-4.67-14.72c-3.12-3.79-7.82-5.68-14.1-5.68h-8.13v40.8h8.21c6.28,0,10.97-1.88,14.06-5.64Z"/>
      <path class="cls-1" d="M296.59,114.74h26.68v8.8h-36.78v-60h35.8v8.8h-25.69v14.88h22.34v8.8h-22.34v18.72Z"/>
      <path class="cls-1" d="M375.02,118.5c-4.76,4.16-10.69,6.24-17.78,6.24-5.47,0-10.34-1.33-14.59-4-4.26-2.67-7.58-6.36-9.96-11.08-2.38-4.72-3.57-10.09-3.57-16.12s1.19-11.4,3.57-16.12c2.38-4.72,5.7-8.4,9.96-11.04,4.26-2.64,9.12-3.96,14.59-3.96,6.99,0,12.87,2.03,17.63,6.08,4.76,4.05,7.88,9.65,9.35,16.8h-10.34c-1.42-4.27-3.47-7.48-6.16-9.64-2.69-2.16-6.18-3.24-10.49-3.24-3.6,0-6.74.88-9.42,2.64-2.69,1.76-4.75,4.24-6.19,7.44s-2.17,6.91-2.17,11.12.72,7.91,2.17,11.08c1.44,3.17,3.51,5.64,6.19,7.4,2.68,1.76,5.83,2.64,9.42,2.64,8.71,0,14.31-4.51,16.8-13.52h10.18c-1.37,7.36-4.43,13.12-9.2,17.28Z"/>
      <path class="cls-1" d="M403.82,114.74h26.68v8.8h-36.78v-60h35.8v8.8h-25.69v14.88h22.34v8.8h-22.34v18.72Z"/>
      <path class="cls-1" d="M438.4,123.54v-60h10.49l24.85,42.8h.23v-42.8h9.58v60h-10.49l-24.85-42.8h-.23v42.8h-9.58Z"/>
      <path class="cls-1" d="M507.71,123.54v-51.2h-16.8v-8.8h43.7v8.8h-16.8v51.2h-10.11Z"/>
      <path class="cls-1" d="M624.22,63.54h10.34l-15.96,60h-12.31l-10.49-40.88-10.49,40.88h-12.24l-16.04-60h10.26l11.78,46.4h.23l11.48-43.68h10.03l11.48,43.68h.23l11.7-46.4Z"/>
      <path class="cls-1" d="M650.33,120.74c-4.33-2.67-7.7-6.37-10.11-11.12-2.41-4.75-3.61-10.11-3.61-16.08s1.2-11.32,3.61-16.04c2.41-4.72,5.78-8.41,10.11-11.08,4.33-2.67,9.26-4,14.78-4s10.45,1.33,14.78,4c4.33,2.67,7.7,6.36,10.11,11.08,2.41,4.72,3.61,10.07,3.61,16.04s-1.2,11.33-3.61,16.08c-2.41,4.75-5.78,8.45-10.11,11.12-4.33,2.67-9.26,4-14.78,4s-10.45-1.33-14.78-4ZM674.69,112.1c2.74-1.76,4.85-4.24,6.35-7.44,1.49-3.2,2.24-6.88,2.24-11.04s-.75-7.92-2.24-11.12c-1.5-3.2-3.61-5.68-6.35-7.44-2.74-1.76-5.93-2.64-9.58-2.64s-6.84.88-9.58,2.64c-2.74,1.76-4.85,4.24-6.35,7.44-1.5,3.2-2.24,6.91-2.24,11.12s.75,7.84,2.24,11.04c1.49,3.2,3.61,5.68,6.35,7.44,2.74,1.76,5.93,2.64,9.58,2.64s6.84-.88,9.58-2.64Z"/>
      <path class="cls-1" d="M740.5,90.06c-1.93,2.75-4.61,4.65-8.06,5.72l10.79,27.76h-10.72l-10.26-26.88h-8.89v26.88h-10.11v-60h22.65c3.6,0,6.71.71,9.35,2.12,2.63,1.41,4.65,3.39,6.04,5.92,1.39,2.53,2.09,5.43,2.09,8.68,0,3.79-.96,7.05-2.89,9.8ZM713.37,87.86h11.7c2.68,0,4.66-.73,5.93-2.2,1.27-1.47,1.9-3.32,1.9-5.56s-.62-4.09-1.86-5.56c-1.24-1.47-3.18-2.2-5.81-2.2h-11.86v15.52Z"/>
      <path class="cls-1" d="M786.41,123.54l-18.77-27.52h-6.76v27.52h-10.11v-60h10.11v23.68h6.69l17.78-23.68h11.93l-20.82,27.76,22.04,32.24h-12.08Z"/>
      <path class="cls-1" d="M265.5,213.54l-4.33-15.28h-19.53l-4.41,15.28h-10.41l17.94-60h13.38l17.86,60h-10.49ZM244.15,189.46h14.52l-7.14-25.04h-.23l-7.14,25.04Z"/>
      <path class="cls-1" d="M283.13,213.54v-60h10.49l24.85,42.8h.23v-42.8h9.58v60h-10.49l-24.85-42.8h-.23v42.8h-9.58Z"/>
      <path class="cls-1" d="M372.05,157.3c4.36,2.51,7.68,6.01,9.96,10.52,2.28,4.51,3.42,9.72,3.42,15.64s-1.15,11.16-3.46,15.72c-2.31,4.56-5.61,8.09-9.92,10.6s-9.42,3.76-15.35,3.76h-18.24v-60h18.16c5.93,0,11.07,1.25,15.43,3.76ZM370.61,198.22c3.09-3.76,4.64-8.68,4.64-14.76s-1.56-10.93-4.67-14.72c-3.12-3.79-7.82-5.68-14.1-5.68h-8.13v40.8h8.21c6.28,0,10.97-1.88,14.06-5.64Z"/>
      <path class="cls-1" d="M422.29,204.74h26.68v8.8h-36.78v-60h35.8v8.8h-25.69v14.88h22.34v8.8h-22.34v18.72Z"/>
      <path class="cls-1" d="M500.72,208.5c-4.76,4.16-10.69,6.24-17.78,6.24-5.47,0-10.34-1.33-14.59-4-4.26-2.67-7.58-6.36-9.96-11.08-2.38-4.72-3.57-10.09-3.57-16.12s1.19-11.4,3.57-16.12c2.38-4.72,5.7-8.4,9.96-11.04,4.26-2.64,9.12-3.96,14.59-3.96,6.99,0,12.87,2.03,17.63,6.08,4.76,4.05,7.88,9.65,9.35,16.8h-10.34c-1.42-4.27-3.47-7.48-6.16-9.64-2.69-2.16-6.18-3.24-10.49-3.24-3.6,0-6.74.88-9.42,2.64-2.69,1.76-4.75,4.24-6.19,7.44s-2.17,6.91-2.17,11.12.72,7.91,2.17,11.08c1.44,3.17,3.51,5.64,6.19,7.4,2.68,1.76,5.83,2.64,9.42,2.64,8.71,0,14.31-4.51,16.8-13.52h10.18c-1.37,7.36-4.43,13.12-9.2,17.28Z"/>
      <path class="cls-1" d="M530.32,210.74c-4.33-2.67-7.7-6.37-10.11-11.12-2.41-4.75-3.61-10.11-3.61-16.08s1.2-11.32,3.61-16.04c2.41-4.72,5.78-8.41,10.11-11.08,4.33-2.67,9.26-4,14.78-4s10.45,1.33,14.78,4c4.33,2.67,7.7,6.36,10.11,11.08,2.41,4.72,3.61,10.07,3.61,16.04s-1.2,11.33-3.61,16.08c-2.41,4.75-5.78,8.45-10.11,11.12-4.33,2.67-9.26,4-14.78,4s-10.45-1.33-14.78-4ZM554.68,202.1c2.74-1.76,4.85-4.24,6.35-7.44,1.49-3.2,2.24-6.88,2.24-11.04s-.75-7.92-2.24-11.12c-1.5-3.2-3.61-5.68-6.35-7.44-2.74-1.76-5.93-2.64-9.58-2.64s-6.84.88-9.58,2.64c-2.74,1.76-4.85,4.24-6.35,7.44-1.5,3.2-2.24,6.91-2.24,11.12s.75,7.84,2.24,11.04c1.49,3.2,3.61,5.68,6.35,7.44,2.74,1.76,5.93,2.64,9.58,2.64s6.84-.88,9.58-2.64Z"/>
      <path class="cls-1" d="M583.26,213.54v-60h10.49l24.85,42.8h.23v-42.8h9.58v60h-10.49l-24.85-42.8h-.23v42.8h-9.58Z"/>
      <path class="cls-1" d="M650.25,210.74c-4.33-2.67-7.7-6.37-10.11-11.12-2.41-4.75-3.61-10.11-3.61-16.08s1.2-11.32,3.61-16.04c2.41-4.72,5.78-8.41,10.11-11.08,4.33-2.67,9.26-4,14.78-4s10.45,1.33,14.78,4c4.33,2.67,7.7,6.36,10.11,11.08,2.41,4.72,3.61,10.07,3.61,16.04s-1.2,11.33-3.61,16.08c-2.41,4.75-5.78,8.45-10.11,11.12-4.33,2.67-9.26,4-14.78,4s-10.45-1.33-14.78-4ZM674.61,202.1c2.74-1.76,4.85-4.24,6.35-7.44,1.49-3.2,2.24-6.88,2.24-11.04s-.75-7.92-2.24-11.12c-1.5-3.2-3.61-5.68-6.35-7.44-2.74-1.76-5.93-2.64-9.58-2.64s-6.84.88-9.58,2.64c-2.74,1.76-4.85,4.24-6.35,7.44-1.5,3.2-2.24,6.91-2.24,11.12s.75,7.84,2.24,11.04c1.49,3.2,3.61,5.68,6.35,7.44,2.74,1.76,5.93,2.64,9.58,2.64s6.84-.88,9.58-2.64Z"/>
      <path class="cls-1" d="M703.19,213.54v-60h15.35l14.59,44.4h.23l14.67-44.4h15.28v60h-10.11v-45.44h-.23l-15.66,45.12h-8.13l-15.66-45.12h-.23v45.44h-10.11Z"/>
      <path class="cls-1" d="M773.49,153.54h9.96v60h-9.96v-60Z"/>
      <path class="cls-1" d="M837.48,208.5c-4.76,4.16-10.69,6.24-17.78,6.24-5.47,0-10.34-1.33-14.59-4-4.26-2.67-7.58-6.36-9.96-11.08-2.38-4.72-3.57-10.09-3.57-16.12s1.19-11.4,3.57-16.12c2.38-4.72,5.7-8.4,9.96-11.04,4.26-2.64,9.12-3.96,14.59-3.96,6.99,0,12.87,2.03,17.63,6.08,4.76,4.05,7.88,9.65,9.35,16.8h-10.34c-1.42-4.27-3.47-7.48-6.16-9.64-2.69-2.16-6.18-3.24-10.49-3.24-3.6,0-6.74.88-9.42,2.64-2.69,1.76-4.75,4.24-6.19,7.44s-2.17,6.91-2.17,11.12.72,7.91,2.17,11.08c1.44,3.17,3.51,5.64,6.19,7.4,2.68,1.76,5.83,2.64,9.42,2.64,8.71,0,14.31-4.51,16.8-13.52h10.18c-1.37,7.36-4.43,13.12-9.2,17.28Z"/>
      <path class="cls-1" d="M283.36,303.54h-8.36v-8.96c-2.08,3.25-4.75,5.76-8.02,7.52-3.27,1.76-7,2.64-11.21,2.64-5.37,0-10.18-1.36-14.44-4.08-4.26-2.72-7.58-6.45-9.96-11.2-2.38-4.75-3.57-10.05-3.57-15.92s1.19-11.32,3.57-16.04c2.38-4.72,5.71-8.41,9.99-11.08,4.28-2.67,9.18-4,14.71-4,6.64,0,12.35,1.75,17.14,5.24,4.79,3.49,8.02,8.31,9.69,14.44h-10.72c-1.22-3.09-3.18-5.53-5.89-7.32-2.71-1.79-6.07-2.68-10.07-2.68-3.65,0-6.84.89-9.58,2.68-2.74,1.79-4.85,4.31-6.35,7.56-1.5,3.25-2.24,7.01-2.24,11.28s.75,8.03,2.24,11.28c1.49,3.25,3.61,5.77,6.35,7.56,2.74,1.79,5.95,2.68,9.65,2.68,4.56,0,8.36-1.31,11.4-3.92,3.04-2.61,5.02-6.16,5.93-10.64h-14.44v-8.8h24.17v31.76Z"/>
      <path class="cls-1" d="M329.8,270.06c-1.93,2.75-4.61,4.65-8.06,5.72l10.79,27.76h-10.72l-10.26-26.88h-8.89v26.88h-10.11v-60h22.65c3.6,0,6.71.71,9.35,2.12,2.63,1.41,4.65,3.39,6.04,5.92,1.39,2.53,2.09,5.43,2.09,8.68,0,3.79-.96,7.05-2.89,9.8ZM302.67,267.86h11.7c2.68,0,4.66-.73,5.93-2.2,1.27-1.47,1.9-3.32,1.9-5.56s-.62-4.09-1.86-5.56c-1.24-1.47-3.18-2.2-5.81-2.2h-11.86v15.52Z"/>
      <path class="cls-1" d="M351.72,300.74c-4.33-2.67-7.7-6.37-10.11-11.12-2.41-4.75-3.61-10.11-3.61-16.08s1.2-11.32,3.61-16.04c2.41-4.72,5.78-8.41,10.11-11.08,4.33-2.67,9.26-4,14.78-4s10.45,1.33,14.78,4c4.33,2.67,7.7,6.36,10.11,11.08,2.41,4.72,3.61,10.07,3.61,16.04s-1.2,11.33-3.61,16.08c-2.41,4.75-5.78,8.45-10.11,11.12-4.33,2.67-9.26,4-14.78,4s-10.45-1.33-14.78-4ZM376.08,292.1c2.74-1.76,4.85-4.24,6.35-7.44,1.49-3.2,2.24-6.88,2.24-11.04s-.75-7.92-2.24-11.12c-1.5-3.2-3.61-5.68-6.35-7.44-2.74-1.76-5.93-2.64-9.58-2.64s-6.84.88-9.58,2.64c-2.74,1.76-4.85,4.24-6.35,7.44-1.5,3.2-2.24,6.91-2.24,11.12s.75,7.84,2.24,11.04c1.49,3.2,3.61,5.68,6.35,7.44,2.74,1.76,5.93,2.64,9.58,2.64s6.84-.88,9.58-2.64Z"/>
      <path class="cls-1" d="M464.24,243.54h10.34l-15.96,60h-12.31l-10.49-40.88-10.49,40.88h-12.24l-16.04-60h10.26l11.78,46.4h.23l11.48-43.68h10.03l11.48,43.68h.23l11.7-46.4Z"/>
      <path class="cls-1" d="M495.71,303.54v-51.2h-16.8v-8.8h43.7v8.8h-16.8v51.2h-10.11Z"/>
      <path class="cls-1" d="M562.81,243.54h10.11v60h-10.11v-27.52h-22.72v27.52h-10.11v-60h10.11v23.68h22.72v-23.68Z"/>
    </g>
    <path class="cls-1" d="M179.58,179.44c5.49,9.27,8.24,19.4,8.24,30.38,0,12.06-2.97,23-8.91,32.81-5.94,9.81-14.17,17.55-24.71,23.22-10.53,5.67-22.46,8.5-35.77,8.5s-24.98-2.83-35.5-8.5c-10.53-5.67-18.77-13.45-24.71-23.35-5.94-9.9-8.91-20.79-8.91-32.67,0-10.8,2.74-20.88,8.23-30.24,5.49-9.36,12.91-16.83,22.28-22.41-6.3-4.68-11.21-10.48-14.71-17.42-3.51-6.93-5.26-14.45-5.26-22.54,0-9.9,2.52-18.9,7.56-27,5.04-8.1,12.06-14.49,21.06-19.17,9-4.68,18.99-7.02,29.97-7.02s21.24,2.34,30.24,7.02c9,4.68,16.02,11.07,21.06,19.17,5.04,8.1,7.56,17.1,7.56,27,0,8.1-1.75,15.57-5.26,22.41-3.51,6.84-8.5,12.69-14.99,17.55,9.54,5.58,17.05,13.01,22.54,22.27ZM144.21,233.71c6.75-6.75,10.12-15.25,10.12-25.51s-3.38-18.23-10.12-24.98-15.35-10.12-25.79-10.12-18.77,3.38-25.52,10.12-10.12,15.08-10.12,24.98,3.33,18.76,9.99,25.51c6.66,6.75,15.21,10.12,25.65,10.12s19.04-3.38,25.79-10.12ZM99.12,100.33c-5.13,4.95-7.69,11.21-7.69,18.76s2.56,13.82,7.69,18.77c5.13,4.95,11.56,7.42,19.31,7.42s14.44-2.47,19.57-7.42c5.13-4.95,7.7-11.21,7.7-18.77s-2.52-13.81-7.56-18.76c-5.04-4.95-11.61-7.42-19.71-7.42s-14.18,2.48-19.31,7.42Z"/>
  </g>
</svg>