<?xml version="1.0" encoding="UTF-8"?>
<svg id="Layer_2" data-name="Layer 2" xmlns="http://www.w3.org/2000/svg" viewBox="0 0 943.22 943.22">
  <defs>
    <style>
      .cls-1 {
        fill: #e83b29;
      }

      .cls-1, .cls-2 {
        stroke-width: 0px;
      }

      .cls-2 {
        fill: #fff;
      }
    </style>
  </defs>
  <g id="Layer_1-2" data-name="Layer 1">
    <rect class="cls-1" y="0" width="943.22" height="943.22"/>
    <g>
      <path class="cls-2" d="M534.68,362.7v40.54h48.44l-49.54,50.38c-25.38-19.47-57.1-31.08-91.49-31.08-83.05,0-150.62,67.57-150.62,150.62,0,75.72,56.17,138.54,129.03,149.05v47.57h-49.13v40.53h49.13v44.45h40.54v-44.45h49.12v-40.53h-49.12v-47.23c74.13-9.35,131.67-72.75,131.67-149.38,0-34.07-11.39-65.53-30.54-90.8l49.04-49.87v48.92h40.54v-118.71h-117.07ZM442.09,683.23c-60.7,0-110.08-49.38-110.08-110.08s49.38-110.08,110.08-110.08,110.08,49.38,110.08,110.08-49.38,110.08-110.08,110.08Z"/>
      <rect class="cls-2" x="372.7" y="523.2" width="138.79" height="40.54"/>
      <rect class="cls-2" x="372.7" y="582.25" width="138.79" height="40.53"/>
    </g>
    <g>
      <path class="cls-2" d="M303.51,131.87h-8.36v-8.96c-2.08,3.25-4.75,5.76-8.02,7.52-3.27,1.76-7.01,2.64-11.21,2.64-5.37,0-10.18-1.36-14.44-4.08s-7.57-6.45-9.96-11.2c-2.38-4.75-3.57-10.05-3.57-15.92s1.19-11.32,3.57-16.04c2.38-4.72,5.71-8.41,9.99-11.08,4.28-2.67,9.18-4,14.71-4,6.64,0,12.35,1.75,17.14,5.24,4.79,3.49,8.02,8.31,9.69,14.44h-10.72c-1.21-3.09-3.18-5.53-5.89-7.32-2.71-1.79-6.07-2.68-10.07-2.68-3.65,0-6.84.89-9.58,2.68-2.74,1.79-4.85,4.31-6.35,7.56-1.5,3.25-2.24,7.01-2.24,11.28s.75,8.03,2.24,11.28c1.49,3.25,3.61,5.77,6.35,7.56,2.74,1.79,5.95,2.68,9.65,2.68,4.56,0,8.36-1.31,11.4-3.92,3.04-2.61,5.02-6.16,5.93-10.64h-14.44v-8.8h24.17v31.76Z"/>
      <path class="cls-2" d="M322.82,123.07h26.68v8.8h-36.78v-60h35.79v8.8h-25.69v14.88h22.34v8.8h-22.34v18.72Z"/>
      <path class="cls-2" d="M357.4,131.87v-60h10.49l24.85,42.8h.23v-42.8h9.58v60h-10.49l-24.85-42.8h-.23v42.8h-9.58Z"/>
      <path class="cls-2" d="M446.32,75.63c4.36,2.51,7.68,6.01,9.96,10.52,2.28,4.51,3.42,9.72,3.42,15.64s-1.15,11.16-3.46,15.72c-2.31,4.56-5.61,8.09-9.92,10.6s-9.42,3.76-15.35,3.76h-18.24v-60h18.16c5.93,0,11.07,1.25,15.43,3.76ZM444.87,116.55c3.09-3.76,4.63-8.68,4.63-14.76s-1.56-10.93-4.67-14.72c-3.12-3.79-7.82-5.68-14.1-5.68h-8.13v40.8h8.21c6.28,0,10.97-1.88,14.06-5.64Z"/>
      <path class="cls-2" d="M479.45,123.07h26.68v8.8h-36.79v-60h35.8v8.8h-25.69v14.88h22.34v8.8h-22.34v18.72Z"/>
      <path class="cls-2" d="M551.27,98.39c-1.93,2.75-4.61,4.65-8.06,5.72l10.79,27.76h-10.72l-10.26-26.88h-8.89v26.88h-10.11v-60h22.65c3.6,0,6.71.71,9.35,2.12,2.63,1.41,4.65,3.39,6.04,5.92,1.39,2.53,2.09,5.43,2.09,8.68,0,3.79-.96,7.05-2.89,9.8ZM524.14,96.19h11.71c2.68,0,4.66-.73,5.93-2.2,1.27-1.47,1.9-3.32,1.9-5.56s-.62-4.09-1.86-5.56c-1.24-1.47-3.18-2.2-5.81-2.2h-11.86v15.52Z"/>
      <path class="cls-2" d="M260.12,213.07h26.68v8.8h-36.79v-60h35.8v8.8h-25.69v14.88h22.34v8.8h-22.34v18.72Z"/>
      <path class="cls-2" d="M347.67,204.11c-1.32,3.79-3.22,7.07-5.7,9.84l7.3,7.92h-10.49l-2.74-2.88c-4.41,2.72-9.38,4.08-14.9,4.08s-10.45-1.33-14.78-4c-4.33-2.67-7.7-6.37-10.11-11.12-2.41-4.75-3.61-10.11-3.61-16.08s1.2-11.32,3.61-16.04c2.4-4.72,5.78-8.41,10.11-11.08,4.33-2.67,9.26-4,14.78-4s10.45,1.33,14.78,4c4.33,2.67,7.7,6.36,10.11,11.08,2.41,4.72,3.61,10.07,3.61,16.04,0,4.37-.66,8.45-1.97,12.24ZM305.22,202.99c1.49,3.2,3.61,5.68,6.35,7.44,2.74,1.76,5.93,2.64,9.58,2.64,2.79,0,5.35-.53,7.68-1.6l-12.23-13.04h11.02l7.37,8c2.89-3.79,4.33-8.61,4.33-14.48,0-4.21-.75-7.92-2.24-11.12s-3.61-5.68-6.35-7.44c-2.74-1.76-5.93-2.64-9.58-2.64s-6.84.88-9.58,2.64c-2.74,1.76-4.85,4.24-6.35,7.44s-2.24,6.91-2.24,11.12.75,7.84,2.24,11.04Z"/>
      <path class="cls-2" d="M402.73,211.03c-1.95,3.87-4.74,6.84-8.36,8.92-3.62,2.08-7.87,3.12-12.73,3.12s-9.03-1.04-12.65-3.12-6.42-5.05-8.4-8.92c-1.97-3.87-2.96-8.41-2.96-13.64v-35.52h10.11v36.24c0,4.64,1.23,8.35,3.69,11.12,2.46,2.77,5.87,4.16,10.22,4.16s7.76-1.39,10.22-4.16c2.46-2.77,3.69-6.48,3.69-11.12v-36.24h10.11v35.52c0,5.23-.97,9.77-2.93,13.64Z"/>
      <path class="cls-2" d="M447.53,221.87l-4.33-15.28h-19.53l-4.41,15.28h-10.41l17.94-60h13.38l17.86,60h-10.49ZM426.18,197.79h14.52l-7.14-25.04h-.23l-7.14,25.04Z"/>
      <path class="cls-2" d="M475.27,213.07h25.46v8.8h-35.57v-60h10.11v51.2Z"/>
      <path class="cls-2" d="M508.56,161.87h9.96v60h-9.96v-60Z"/>
      <path class="cls-2" d="M542.69,221.87v-51.2h-16.8v-8.8h43.7v8.8h-16.8v51.2h-10.11Z"/>
      <path class="cls-2" d="M619.83,161.87l-18.09,41.12v18.88h-10.11v-19.04l-18.01-40.96h10.49l12.46,30.24h.23l12.54-30.24h10.49Z"/>
    </g>
    <path class="cls-2" d="M86.13,266.11c-10.44-5.49-18.63-13.05-24.57-22.68-5.94-9.63-8.91-20.38-8.91-32.26,0-2.88.27-5.67.81-8.37h32.67c-.36,2.34-.54,4.5-.54,6.48,0,10.08,3.33,18.41,9.99,24.97,6.66,6.57,15.21,9.85,25.65,9.85,11.16,0,20.12-3.46,26.87-10.39,6.75-6.93,10.12-16.24,10.12-27.95,0-10.8-3.47-19.62-10.4-26.46-6.93-6.84-15.79-10.26-26.59-10.26-5.58,0-11.21.99-16.88,2.97-5.67,1.98-10.39,4.59-14.17,7.83h-34.29l21.06-112.05h103.68v31.05h-79.38l-9.72,52.11c3.6-3.42,8.68-6.25,15.25-8.5,6.57-2.25,13.1-3.38,19.58-3.38,12.6,0,23.8,2.83,33.62,8.5,9.81,5.67,17.46,13.68,22.95,24.03,5.49,10.35,8.23,22.27,8.23,35.77s-2.93,24.8-8.77,34.96c-5.85,10.17-14.04,18.05-24.57,23.62s-22.73,8.37-36.58,8.37c-12.96,0-24.66-2.75-35.1-8.23Z"/>
  </g>
</svg>