<?xml version="1.0" encoding="UTF-8"?>
<svg id="Layer_2" data-name="Layer 2" xmlns="http://www.w3.org/2000/svg" viewBox="0 0 943.22 943.22">
  <defs>
    <style>
      .cls-1 {
        fill: #b8202d;
      }

      .cls-1, .cls-2, .cls-3, .cls-4, .cls-5, .cls-6, .cls-7, .cls-8, .cls-9, .cls-10, .cls-11, .cls-12, .cls-13, .cls-14, .cls-15, .cls-16, .cls-17, .cls-18 {
        stroke-width: 0px;
      }

      .cls-2 {
        fill: #5cba47;
      }

      .cls-3 {
        fill: #25b3d3;
      }

      .cls-4 {
        fill: #e83b29;
      }

      .cls-5 {
        fill: #d4a345;
      }

      .cls-6 {
        fill: #d12166;
      }

      .cls-7 {
        fill: #f1f0f0;
      }

      .cls-8 {
        fill: #07699e;
      }

      .cls-9 {
        fill: #377e46;
      }

      .cls-10 {
        fill: #e51d3c;
      }

      .cls-11 {
        fill: #f8bf19;
      }

      .cls-12 {
        fill: #f2982e;
      }

      .cls-13 {
        fill: #9a2041;
      }

      .cls-14 {
        fill: #2196d4;
      }

      .cls-15 {
        fill: #be8b2c;
      }

      .cls-16 {
        fill: #549c44;
      }

      .cls-17 {
        fill: #ed6e34;
      }

      .cls-18 {
        fill: #18496a;
      }
    </style>
  </defs>
  <g id="Layer_1-2" data-name="Layer 1">
    <rect class="cls-7" width="943.22" height="943.22" transform="translate(943.22 943.22) rotate(180)"/>
    <g>
      <path class="cls-10" d="M527.09,311.75l56.39-145.53c-33.11-12.17-68.76-19.01-105.88-19.68v155.99c17.29.61,33.89,3.79,49.49,9.22Z"/>
      <path class="cls-11" d="M565.68,612.21l81.96,132.49c30.36-19.63,57.24-44.17,79.54-72.51l-124.29-93.93c-10.65,13.07-23.18,24.54-37.21,33.95Z"/>
      <path class="cls-16" d="M620.39,390.79l139.48-69.42c-16.81-32.14-38.83-61.12-64.95-85.84l-104.98,115.13c12.02,11.77,22.34,25.25,30.45,40.13Z"/>
      <path class="cls-1" d="M639.39,450.01l155.34-14.36c-4.05-36.7-14.2-71.57-29.46-103.58l-139.66,69.51c6.89,15.1,11.6,31.35,13.78,48.42Z"/>
      <path class="cls-4" d="M640.92,471.53c0,14-1.89,27.53-5.11,40.54l150.09,42.75c7.06-26.6,10.86-54.51,10.86-83.3,0-8.06-.4-16.02-.98-23.94l-155.35,14.36c.18,3.19.48,6.35.48,9.58Z"/>
      <path class="cls-3" d="M610.07,568.66l124.36,93.99c21.06-28.89,37.51-61.33,48.19-96.29l-149.99-42.73c-5.26,16.23-12.94,31.35-22.56,45.03Z"/>
      <path class="cls-5" d="M581.07,342.59l105-115.15c-26.92-23.69-57.76-43-91.43-56.82l-56.32,145.34c15.61,6.72,29.97,15.76,42.75,26.62Z"/>
      <path class="cls-15" d="M310.53,523.47l-150.02,42.57c10.64,34.97,27.05,67.43,48.08,96.33l124.46-93.85c-9.61-13.69-17.27-28.82-22.52-45.05Z"/>
      <path class="cls-9" d="M302.3,471.53c0-3.29.31-6.51.49-9.75l-155.34-14.52c-.59,8.02-1,16.1-1,24.27,0,28.67,3.77,56.47,10.77,82.97l150.14-42.6c-3.19-12.97-5.07-26.44-5.07-40.37Z"/>
      <path class="cls-12" d="M340.23,578.12l-124.39,93.81c22.27,28.36,49.12,52.93,79.47,72.59l82.09-132.4c-14.02-9.43-26.53-20.91-37.16-34Z"/>
      <path class="cls-6" d="M387.64,618.35l-82.18,132.54c30.58,18.26,64.37,31.68,100.34,39.1l28.75-153.35c-16.71-3.75-32.47-9.98-46.92-18.28Z"/>
      <path class="cls-14" d="M317.69,401.42l-139.6-69.66c-15.3,31.99-25.48,66.86-29.56,103.55l155.33,14.52c2.2-17.07,6.93-33.32,13.83-48.41Z"/>
      <path class="cls-13" d="M508.97,636.55l28.12,153.51c35.98-7.38,69.78-20.78,100.38-39.01l-82.03-132.61c-14.32,8.21-29.92,14.37-46.46,18.11Z"/>
      <path class="cls-8" d="M405.07,315.89l-56.16-145.39c-33.69,13.78-64.55,33.06-91.5,56.72l104.87,115.26c12.79-10.85,27.16-19.88,42.78-26.59Z"/>
      <path class="cls-2" d="M353.42,350.54l-104.86-115.25c-26.15,24.7-48.2,53.65-65.05,85.78l139.42,69.57c8.12-14.87,18.46-28.35,30.49-40.1Z"/>
      <path class="cls-18" d="M465.61,302.53v-155.99c-37,.67-72.54,7.47-105.56,19.57l56.24,145.59c15.55-5.4,32.1-8.56,49.32-9.17Z"/>
      <path class="cls-17" d="M471.61,640.84c-8.61,0-17-.85-25.26-2.1l-28.76,153.37c17.58,2.96,35.61,4.57,54.02,4.57s36.21-1.59,53.68-4.51l-28.11-153.47c-8.36,1.28-16.86,2.14-25.57,2.14Z"/>
    </g>
  </g>
</svg>