<?xml version="1.0" encoding="UTF-8"?>
<svg id="Layer_2" data-name="Layer 2" xmlns="http://www.w3.org/2000/svg" viewBox="0 0 943.22 943.22">
  <defs>
    <style>
      .cls-1 {
        fill: #fff;
      }

      .cls-1, .cls-2 {
        stroke-width: 0px;
      }

      .cls-2 {
        fill: #549c44;
      }
    </style>
  </defs>
  <g id="Layer_1-2" data-name="Layer 1">
    <rect class="cls-2" y="0" width="943.22" height="943.22"/>
    <g>
      <path class="cls-1" d="M524.24,797.99c-.27,0-.53,0-.8-.03-6.01-.36-10.98-4.8-12.03-10.72l-32.92-185.19-45.88,83.02c-2.71,4.9-8.23,7.54-13.74,6.52-5.51-1.01-9.75-5.41-10.56-10.95l-20.11-139.22-38.1,80.28c-2.16,4.54-6.74,7.44-11.77,7.44h-154.64c-7.2,0-13.03-5.83-13.03-13.03s5.83-13.03,13.03-13.03h146.4l53.07-111.82c2.47-5.19,8.06-8.14,13.72-7.29,5.68.86,10.13,5.33,10.95,11.02l20.73,143.55,44.92-81.28c2.67-4.83,8.1-7.47,13.54-6.55,5.45.9,9.73,5.14,10.7,10.57l29.92,168.3,110.55-359.85c1.57-5.11,6.1-8.74,11.42-9.16,5.38-.42,10.37,2.45,12.73,7.24l61.65,125.33c3.18,6.46.52,14.26-5.94,17.44-6.46,3.18-14.26.51-17.44-5.94l-47.15-95.85-116.75,380.02c-1.69,5.5-6.76,9.2-12.45,9.2Z"/>
      <path class="cls-1" d="M724.94,698.05l-1.75-1.32c-3.43-2.61-83.89-64.28-83.89-106.53-.45-14.61,3.78-26.66,12.58-35.72,10.63-10.96,25.52-14.86,35.92-14.86l1.42.02c16.32.59,30.44,15.5,35.8,21.95,5.62-6.4,20.47-21.37,36.8-21.95l1.41-.02c10.23,0,24.88,3.84,35.34,14.63,8.81,9.08,13.04,21.2,12.59,36.04,0,42.17-81.02,103.84-84.46,106.45l-1.75,1.32Z"/>
    </g>
    <g>
      <path class="cls-1" d="M288.48,131.87h-8.36v-8.96c-2.08,3.25-4.75,5.76-8.02,7.52-3.27,1.76-7,2.64-11.21,2.64-5.37,0-10.18-1.36-14.44-4.08-4.26-2.72-7.58-6.45-9.96-11.2-2.38-4.75-3.57-10.05-3.57-15.92s1.19-11.32,3.57-16.04c2.38-4.72,5.71-8.41,9.99-11.08,4.28-2.67,9.18-4,14.71-4,6.64,0,12.35,1.75,17.14,5.24,4.79,3.49,8.02,8.31,9.69,14.44h-10.72c-1.22-3.09-3.18-5.53-5.89-7.32-2.71-1.79-6.07-2.68-10.07-2.68-3.65,0-6.84.89-9.58,2.68-2.74,1.79-4.85,4.31-6.35,7.56-1.5,3.25-2.24,7.01-2.24,11.28s.75,8.03,2.24,11.28c1.49,3.25,3.61,5.77,6.35,7.56,2.74,1.79,5.95,2.68,9.65,2.68,4.56,0,8.36-1.31,11.4-3.92,3.04-2.61,5.02-6.16,5.93-10.64h-14.44v-8.8h24.17v31.76Z"/>
      <path class="cls-1" d="M308.58,129.07c-4.33-2.67-7.7-6.37-10.11-11.12-2.41-4.75-3.61-10.11-3.61-16.08s1.2-11.32,3.61-16.04c2.41-4.72,5.78-8.41,10.11-11.08,4.33-2.67,9.26-4,14.78-4s10.45,1.33,14.78,4c4.33,2.67,7.7,6.36,10.11,11.08,2.41,4.72,3.61,10.07,3.61,16.04s-1.2,11.33-3.61,16.08c-2.41,4.75-5.78,8.45-10.11,11.12-4.33,2.67-9.26,4-14.78,4s-10.45-1.33-14.78-4ZM332.94,120.43c2.74-1.76,4.85-4.24,6.35-7.44,1.49-3.2,2.24-6.88,2.24-11.04s-.75-7.92-2.24-11.12c-1.5-3.2-3.61-5.68-6.35-7.44-2.74-1.76-5.93-2.64-9.58-2.64s-6.84.88-9.58,2.64c-2.74,1.76-4.85,4.24-6.35,7.44-1.5,3.2-2.24,6.91-2.24,11.12s.75,7.84,2.24,11.04c1.49,3.2,3.61,5.68,6.35,7.44,2.74,1.76,5.93,2.64,9.58,2.64s6.84-.88,9.58-2.64Z"/>
      <path class="cls-1" d="M372.42,129.07c-4.33-2.67-7.7-6.37-10.11-11.12-2.41-4.75-3.61-10.11-3.61-16.08s1.2-11.32,3.61-16.04c2.41-4.72,5.78-8.41,10.11-11.08,4.33-2.67,9.26-4,14.78-4s10.45,1.33,14.78,4c4.33,2.67,7.7,6.36,10.11,11.08,2.41,4.72,3.61,10.07,3.61,16.04s-1.2,11.33-3.61,16.08c-2.41,4.75-5.78,8.45-10.11,11.12-4.33,2.67-9.26,4-14.78,4s-10.45-1.33-14.78-4ZM396.78,120.43c2.74-1.76,4.85-4.24,6.35-7.44,1.49-3.2,2.24-6.88,2.24-11.04s-.75-7.92-2.24-11.12c-1.5-3.2-3.61-5.68-6.35-7.44-2.74-1.76-5.93-2.64-9.58-2.64s-6.84.88-9.58,2.64c-2.74,1.76-4.85,4.24-6.35,7.44-1.5,3.2-2.24,6.91-2.24,11.12s.75,7.84,2.24,11.04c1.49,3.2,3.61,5.68,6.35,7.44,2.74,1.76,5.93,2.64,9.58,2.64s6.84-.88,9.58-2.64Z"/>
      <path class="cls-1" d="M458.95,75.63c4.36,2.51,7.68,6.01,9.96,10.52,2.28,4.51,3.42,9.72,3.42,15.64s-1.15,11.16-3.46,15.72c-2.31,4.56-5.61,8.09-9.92,10.6s-9.42,3.76-15.35,3.76h-18.24v-60h18.16c5.93,0,11.07,1.25,15.43,3.76ZM457.5,116.55c3.09-3.76,4.64-8.68,4.64-14.76s-1.56-10.93-4.67-14.72c-3.12-3.79-7.82-5.68-14.1-5.68h-8.13v40.8h8.21c6.28,0,10.97-1.88,14.06-5.64Z"/>
      <path class="cls-1" d="M531.91,71.87h10.11v60h-10.11v-27.52h-22.72v27.52h-10.11v-60h10.11v23.68h22.72v-23.68Z"/>
      <path class="cls-1" d="M562.31,123.07h26.68v8.8h-36.78v-60h35.8v8.8h-25.69v14.88h22.34v8.8h-22.34v18.72Z"/>
      <path class="cls-1" d="M632.53,131.87l-4.33-15.28h-19.53l-4.41,15.28h-10.41l17.94-60h13.38l17.86,60h-10.49ZM611.18,107.79h14.52l-7.14-25.04h-.23l-7.14,25.04Z"/>
      <path class="cls-1" d="M660.27,123.07h25.46v8.8h-35.57v-60h10.11v51.2Z"/>
      <path class="cls-1" d="M698.88,131.87v-51.2h-16.8v-8.8h43.7v8.8h-16.8v51.2h-10.11Z"/>
      <path class="cls-1" d="M765.99,71.87h10.11v60h-10.11v-27.52h-22.72v27.52h-10.11v-60h10.11v23.68h22.72v-23.68Z"/>
      <path class="cls-1" d="M270.62,221.87l-4.33-15.28h-19.53l-4.41,15.28h-10.41l17.94-60h13.38l17.86,60h-10.49ZM249.26,197.79h14.52l-7.14-25.04h-.23l-7.14,25.04Z"/>
      <path class="cls-1" d="M288.25,221.87v-60h10.49l24.85,42.8h.23v-42.8h9.58v60h-10.49l-24.85-42.8h-.23v42.8h-9.58Z"/>
      <path class="cls-1" d="M377.17,165.63c4.36,2.51,7.68,6.01,9.96,10.52,2.28,4.51,3.42,9.72,3.42,15.64s-1.15,11.16-3.46,15.72c-2.31,4.56-5.61,8.09-9.92,10.6s-9.42,3.76-15.35,3.76h-18.24v-60h18.16c5.93,0,11.07,1.25,15.43,3.76ZM375.73,206.55c3.09-3.76,4.64-8.68,4.64-14.76s-1.56-10.93-4.67-14.72c-3.12-3.79-7.82-5.68-14.1-5.68h-8.13v40.8h8.21c6.28,0,10.97-1.88,14.06-5.64Z"/>
      <path class="cls-1" d="M481.45,161.87h10.34l-15.96,60h-12.31l-10.49-40.88-10.49,40.88h-12.24l-16.04-60h10.26l11.78,46.4h.23l11.48-43.68h10.03l11.48,43.68h.23l11.7-46.4Z"/>
      <path class="cls-1" d="M509.03,213.07h26.68v8.8h-36.78v-60h35.8v8.8h-25.69v14.88h22.34v8.8h-22.34v18.72Z"/>
      <path class="cls-1" d="M553.72,213.07h25.46v8.8h-35.57v-60h10.11v51.2Z"/>
      <path class="cls-1" d="M597.12,213.07h25.46v8.8h-35.57v-60h10.11v51.2Z"/>
      <path class="cls-1" d="M623.03,194.11v-6.96h23.94v6.96h-23.94Z"/>
      <path class="cls-1" d="M695.54,194.35c1.62,2.51,2.43,5.49,2.43,8.96,0,3.73-.81,7-2.43,9.8-1.62,2.8-3.95,4.96-6.99,6.48-3.04,1.52-6.59,2.28-10.64,2.28h-20.67v-60h21.96c5.22,0,9.32,1.35,12.31,4.04,2.99,2.69,4.48,6.36,4.48,11,0,2.67-.65,5.04-1.94,7.12s-3.08,3.68-5.36,4.8c2.94,1.17,5.22,3.01,6.84,5.52ZM684.36,172.59c-1.42-1.28-3.47-1.92-6.16-1.92h-11.32v14.8h11.25c2.58,0,4.62-.67,6.12-2,1.49-1.33,2.24-3.12,2.24-5.36,0-2.4-.71-4.24-2.13-5.52ZM685.31,210.43c1.95-1.76,2.93-4.13,2.93-7.12s-.94-5.19-2.81-6.76c-1.88-1.57-4.56-2.36-8.06-2.36h-10.49v18.88h10.41c3.39,0,6.07-.88,8.02-2.64Z"/>
      <path class="cls-1" d="M715.22,213.07h26.68v8.8h-36.78v-60h35.8v8.8h-25.69v14.88h22.34v8.8h-22.34v18.72Z"/>
      <path class="cls-1" d="M749.8,161.87h9.96v60h-9.96v-60Z"/>
      <path class="cls-1" d="M769.94,221.87v-60h10.49l24.85,42.8h.23v-42.8h9.58v60h-10.49l-24.85-42.8h-.23v42.8h-9.58Z"/>
      <path class="cls-1" d="M878.77,221.87h-8.36v-8.96c-2.08,3.25-4.75,5.76-8.02,7.52-3.27,1.76-7,2.64-11.21,2.64-5.37,0-10.18-1.36-14.44-4.08-4.26-2.72-7.58-6.45-9.96-11.2-2.38-4.75-3.57-10.05-3.57-15.92s1.19-11.32,3.57-16.04c2.38-4.72,5.71-8.41,9.99-11.08,4.28-2.67,9.18-4,14.71-4,6.64,0,12.35,1.75,17.14,5.24,4.79,3.49,8.02,8.31,9.69,14.44h-10.72c-1.22-3.09-3.18-5.53-5.89-7.32-2.71-1.79-6.07-2.68-10.07-2.68-3.65,0-6.84.89-9.58,2.68-2.74,1.79-4.85,4.31-6.35,7.56-1.5,3.25-2.24,7.01-2.24,11.28s.75,8.03,2.24,11.28c1.49,3.25,3.61,5.77,6.35,7.56,2.74,1.79,5.95,2.68,9.65,2.68,4.56,0,8.36-1.31,11.4-3.92,3.04-2.61,5.02-6.16,5.93-10.64h-14.44v-8.8h24.17v31.76Z"/>
    </g>
    <path class="cls-1" d="M176.58,179.44c5.49,9.27,8.24,19.4,8.24,30.38,0,12.24-3.02,23.27-9.04,33.08-6.03,9.81-14.31,17.51-24.84,23.08-10.53,5.58-22.37,8.37-35.5,8.37s-24.71-2.79-35.23-8.37c-10.53-5.58-18.81-13.27-24.84-23.08-6.03-9.81-9.04-20.74-9.04-32.8,0-2.88.27-5.49.81-7.83h33.21c-.36,3.6-.54,5.58-.54,5.94,0,10.44,3.33,18.99,9.99,25.65,6.66,6.66,15.21,9.99,25.65,9.99s19.26-3.28,25.92-9.86c6.66-6.57,9.99-15.16,9.99-25.78,0-9.9-3.38-18.18-10.12-24.84-6.75-6.66-15.17-9.99-25.25-9.99h-15.12v-28.35h15.12c7.74,0,14.13-2.43,19.17-7.29,5.04-4.86,7.56-11.07,7.56-18.63s-2.57-14.04-7.7-18.9c-5.13-4.86-11.66-7.29-19.58-7.29s-14.17,2.48-19.3,7.42c-5.13,4.95-7.7,11.21-7.7,18.76,0,1.62.09,2.7.27,3.24h-31.32c-.36-1.44-.54-3.24-.54-5.4,0-9.9,2.57-18.85,7.7-26.86,5.13-8.01,12.15-14.35,21.06-19.04,8.91-4.68,18.85-7.02,29.83-7.02s21.2,2.29,30.11,6.89c8.91,4.59,15.93,10.93,21.06,19.03,5.13,8.1,7.7,17.19,7.7,27.27,0,7.92-1.75,15.39-5.26,22.41-3.51,7.02-8.51,12.96-14.99,17.82,9.54,5.4,17.05,12.74,22.54,22Z"/>
  </g>
</svg>