<?xml version="1.0" encoding="UTF-8"?>
<svg id="Layer_2" data-name="Layer 2" xmlns="http://www.w3.org/2000/svg" viewBox="0 0 943.22 943.22">
  <defs>
    <style>
      .cls-1 {
        fill: #fff;
      }

      .cls-1, .cls-2 {
        stroke-width: 0px;
      }

      .cls-2 {
        fill: #ed6e34;
      }
    </style>
  </defs>
  <g id="Layer_1-2" data-name="Layer 1">
    <rect class="cls-2" y="0" width="943.22" height="943.22"/>
    <path class="cls-1" d="M593.78,552.47v-132.77l-116.99-68.15c-2.52-1.47-5.63-1.49-8.16-.06l-120.87,68.21v132.77l-113.25,66.39v143.51l126.92,67.94,112.27-63.06,114.22,63.06,121.06-68.92v-143.51l-115.2-65.41ZM346.98,800.81l-93.85-51.22v-108.2l93.85,54.24v105.19ZM365.75,441.46l86.81,50.05-86.81,50.05v-100.1ZM365.75,803.55v-97.76l86.81,50.05-86.81,47.71ZM461.95,737.08l-84.46-47.71,84.46-47.98v95.69ZM461.95,606.47l-84.46-49.27,84.46-49.27v98.54ZM579.26,441.46v100.1l-87.59-50.05,87.59-50.05ZM482.28,507.93l82.9,48.49-82.9,50.05v-98.54ZM587.08,679.2l-95.41-53.96,96.19-55.53,94.63,55.53-95.41,53.96ZM691.87,750.37l-96.19,55.53v-110.27l96.19-54.24v108.98Z"/>
    <g>
      <path class="cls-1" d="M234.31,63.54h9.96v60h-9.96v-60Z"/>
      <path class="cls-1" d="M254.45,123.54v-60h10.49l24.85,42.8h.23v-42.8h9.58v60h-10.49l-24.85-42.8h-.23v42.8h-9.58Z"/>
      <path class="cls-1" d="M343.37,67.3c4.36,2.51,7.68,6.01,9.96,10.52s3.42,9.72,3.42,15.64-1.15,11.16-3.46,15.72c-2.3,4.56-5.61,8.09-9.92,10.6s-9.42,3.76-15.35,3.76h-18.24v-60h18.16c5.93,0,11.07,1.25,15.43,3.76ZM341.93,108.22c3.09-3.76,4.64-8.68,4.64-14.76s-1.56-10.93-4.67-14.72c-3.12-3.79-7.82-5.68-14.1-5.68h-8.13v40.8h8.21c6.28,0,10.97-1.88,14.06-5.64Z"/>
      <path class="cls-1" d="M409.84,112.7c-1.95,3.87-4.74,6.84-8.36,8.92-3.62,2.08-7.87,3.12-12.73,3.12s-9.03-1.04-12.65-3.12-6.42-5.05-8.4-8.92c-1.97-3.87-2.96-8.41-2.96-13.64v-35.52h10.11v36.24c0,4.64,1.23,8.35,3.69,11.12,2.46,2.77,5.87,4.16,10.22,4.16s7.76-1.39,10.22-4.16c2.46-2.77,3.69-6.48,3.69-11.12v-36.24h10.11v35.52c0,5.23-.97,9.77-2.93,13.64Z"/>
      <path class="cls-1" d="M426.06,118.86c-4.16-3.87-6.31-9.21-6.46-16.04h10.49c.1,3.95,1.33,7.03,3.69,9.24,2.36,2.21,5.54,3.32,9.54,3.32,3.34,0,6.05-.8,8.13-2.4,2.08-1.6,3.12-3.71,3.12-6.32,0-2.08-.43-3.75-1.29-5-.86-1.25-2.25-2.23-4.18-2.92-1.93-.69-4.59-1.2-7.98-1.52-6.64-.59-11.58-2.29-14.82-5.12-3.24-2.83-4.86-6.85-4.86-12.08,0-3.52.84-6.61,2.51-9.28,1.67-2.67,4.03-4.72,7.07-6.16,3.04-1.44,6.56-2.16,10.56-2.16,6.59,0,11.79,1.69,15.62,5.08,3.83,3.39,5.89,8.17,6.19,14.36h-10.41c-.26-3.31-1.34-5.85-3.27-7.64-1.93-1.79-4.59-2.68-7.98-2.68-3.14,0-5.64.71-7.49,2.12-1.85,1.41-2.78,3.32-2.78,5.72,0,1.97.43,3.55,1.29,4.72.86,1.17,2.27,2.09,4.22,2.76,1.95.67,4.6,1.13,7.94,1.4,6.74.59,11.7,2.29,14.9,5.12,3.19,2.83,4.79,6.99,4.79,12.48,0,3.79-.87,7.11-2.62,9.96-1.75,2.85-4.26,5.04-7.53,6.56-3.27,1.52-7.08,2.28-11.44,2.28-7.14,0-12.79-1.93-16.95-5.8Z"/>
      <path class="cls-1" d="M484.43,123.54v-51.2h-16.79v-8.8h43.7v8.8h-16.8v51.2h-10.11Z"/>
      <path class="cls-1" d="M555.94,90.06c-1.93,2.75-4.61,4.65-8.05,5.72l10.79,27.76h-10.72l-10.26-26.88h-8.89v26.88h-10.11v-60h22.65c3.6,0,6.71.71,9.35,2.12,2.63,1.41,4.65,3.39,6.04,5.92,1.39,2.53,2.09,5.43,2.09,8.68,0,3.79-.96,7.05-2.89,9.8ZM528.81,87.86h11.7c2.69,0,4.66-.73,5.93-2.2,1.27-1.47,1.9-3.32,1.9-5.56s-.62-4.09-1.86-5.56c-1.24-1.47-3.18-2.2-5.81-2.2h-11.86v15.52Z"/>
      <path class="cls-1" d="M608.08,63.54l-18.09,41.12v18.88h-10.11v-19.04l-18.01-40.96h10.49l12.46,30.24h.23l12.54-30.24h10.49Z"/>
      <path class="cls-1" d="M234.31,153.54h9.96v60h-9.96v-60Z"/>
      <path class="cls-1" d="M254.45,213.54v-60h10.49l24.85,42.8h.23v-42.8h9.58v60h-10.49l-24.85-42.8h-.23v42.8h-9.58Z"/>
      <path class="cls-1" d="M309.78,213.54v-60h10.49l24.85,42.8h.23v-42.8h9.58v60h-10.49l-24.85-42.8h-.23v42.8h-9.58Z"/>
      <path class="cls-1" d="M376.77,210.74c-4.33-2.67-7.7-6.37-10.11-11.12-2.41-4.75-3.61-10.11-3.61-16.08s1.2-11.32,3.61-16.04,5.78-8.41,10.11-11.08c4.33-2.67,9.26-4,14.78-4s10.45,1.33,14.78,4c4.33,2.67,7.7,6.36,10.11,11.08s3.61,10.07,3.61,16.04-1.21,11.33-3.61,16.08c-2.41,4.75-5.78,8.45-10.11,11.12-4.33,2.67-9.26,4-14.78,4s-10.45-1.33-14.78-4ZM401.13,202.1c2.73-1.76,4.85-4.24,6.35-7.44,1.49-3.2,2.24-6.88,2.24-11.04s-.75-7.92-2.24-11.12c-1.5-3.2-3.61-5.68-6.35-7.44-2.74-1.76-5.93-2.64-9.58-2.64s-6.84.88-9.58,2.64c-2.74,1.76-4.85,4.24-6.35,7.44-1.5,3.2-2.24,6.91-2.24,11.12s.75,7.84,2.24,11.04c1.49,3.2,3.61,5.68,6.35,7.44,2.74,1.76,5.93,2.64,9.58,2.64s6.84-.88,9.58-2.64Z"/>
      <path class="cls-1" d="M439.67,213.54l-17.56-60h10.64l13.53,49.04h.23l13.45-49.04h10.64l-17.48,60h-13.45Z"/>
      <path class="cls-1" d="M506.32,213.54l-4.33-15.28h-19.53l-4.41,15.28h-10.41l17.94-60h13.38l17.86,60h-10.49ZM484.96,189.46h14.52l-7.14-25.04h-.23l-7.14,25.04Z"/>
      <path class="cls-1" d="M530.56,213.54v-51.2h-16.8v-8.8h43.7v8.8h-16.8v51.2h-10.11Z"/>
      <path class="cls-1" d="M564.84,153.54h9.96v60h-9.96v-60Z"/>
      <path class="cls-1" d="M596.64,210.74c-4.33-2.67-7.7-6.37-10.11-11.12-2.41-4.75-3.61-10.11-3.61-16.08s1.2-11.32,3.61-16.04c2.4-4.72,5.78-8.41,10.11-11.08,4.33-2.67,9.26-4,14.78-4s10.45,1.33,14.78,4c4.33,2.67,7.7,6.36,10.11,11.08,2.41,4.72,3.61,10.07,3.61,16.04s-1.2,11.33-3.61,16.08c-2.41,4.75-5.78,8.45-10.11,11.12-4.33,2.67-9.26,4-14.78,4s-10.45-1.33-14.78-4ZM621,202.1c2.74-1.76,4.85-4.24,6.35-7.44s2.24-6.88,2.24-11.04-.75-7.92-2.24-11.12-3.61-5.68-6.35-7.44c-2.74-1.76-5.93-2.64-9.58-2.64s-6.84.88-9.58,2.64c-2.74,1.76-4.85,4.24-6.35,7.44s-2.24,6.91-2.24,11.12.75,7.84,2.24,11.04,3.61,5.68,6.35,7.44c2.74,1.76,5.93,2.64,9.58,2.64s6.84-.88,9.58-2.64Z"/>
      <path class="cls-1" d="M649.58,213.54v-60h10.49l24.85,42.8h.23v-42.8h9.58v60h-10.49l-24.85-42.8h-.23v42.8h-9.58Z"/>
      <path class="cls-1" d="M759.17,213.54l-4.33-15.28h-19.53l-4.41,15.28h-10.41l17.94-60h13.38l17.86,60h-10.49ZM737.81,189.46h14.52l-7.14-25.04h-.23l-7.14,25.04Z"/>
      <path class="cls-1" d="M776.8,213.54v-60h10.49l24.85,42.8h.23v-42.8h9.58v60h-10.49l-24.85-42.8h-.23v42.8h-9.58Z"/>
      <path class="cls-1" d="M865.72,157.3c4.36,2.51,7.68,6.01,9.96,10.52,2.28,4.51,3.42,9.72,3.42,15.64s-1.15,11.16-3.46,15.72c-2.31,4.56-5.61,8.09-9.92,10.6s-9.42,3.76-15.35,3.76h-18.24v-60h18.16c5.93,0,11.07,1.25,15.43,3.76ZM864.28,198.22c3.09-3.76,4.63-8.68,4.63-14.76s-1.56-10.93-4.67-14.72c-3.12-3.79-7.82-5.68-14.1-5.68h-8.13v40.8h8.21c6.28,0,10.97-1.88,14.06-5.64Z"/>
      <path class="cls-1" d="M234.31,243.54h9.96v60h-9.96v-60Z"/>
      <path class="cls-1" d="M254.45,303.54v-60h10.49l24.85,42.8h.23v-42.8h9.58v60h-10.49l-24.85-42.8h-.23v42.8h-9.58Z"/>
      <path class="cls-1" d="M347.63,252.34h-27.74v14.88h24.24v8.8h-24.24v27.52h-10.11v-60h37.85v8.8Z"/>
      <path class="cls-1" d="M392.47,270.06c-1.93,2.75-4.61,4.65-8.06,5.72l10.79,27.76h-10.72l-10.26-26.88h-8.89v26.88h-10.11v-60h22.65c3.6,0,6.71.71,9.35,2.12,2.63,1.41,4.65,3.39,6.04,5.92,1.39,2.53,2.09,5.43,2.09,8.68,0,3.79-.96,7.05-2.89,9.8ZM365.34,267.86h11.71c2.68,0,4.66-.73,5.93-2.2,1.27-1.47,1.9-3.32,1.9-5.56s-.62-4.09-1.86-5.56c-1.24-1.47-3.18-2.2-5.81-2.2h-11.86v15.52Z"/>
      <path class="cls-1" d="M436.85,303.54l-4.33-15.28h-19.53l-4.41,15.28h-10.41l17.94-60h13.38l17.86,60h-10.49ZM415.5,279.46h14.52l-7.14-25.04h-.23l-7.14,25.04Z"/>
      <path class="cls-1" d="M456.99,298.86c-4.15-3.87-6.31-9.21-6.46-16.04h10.49c.1,3.95,1.33,7.03,3.69,9.24,2.36,2.21,5.54,3.32,9.54,3.32,3.34,0,6.05-.8,8.13-2.4,2.08-1.6,3.12-3.71,3.12-6.32,0-2.08-.43-3.75-1.29-5-.86-1.25-2.26-2.23-4.18-2.92-1.93-.69-4.59-1.2-7.98-1.52-6.64-.59-11.58-2.29-14.82-5.12-3.24-2.83-4.86-6.85-4.86-12.08,0-3.52.84-6.61,2.51-9.28,1.67-2.67,4.03-4.72,7.07-6.16,3.04-1.44,6.56-2.16,10.56-2.16,6.59,0,11.79,1.69,15.62,5.08,3.82,3.39,5.89,8.17,6.19,14.36h-10.41c-.25-3.31-1.34-5.85-3.27-7.64-1.93-1.79-4.59-2.68-7.98-2.68-3.14,0-5.64.71-7.49,2.12-1.85,1.41-2.77,3.32-2.77,5.72,0,1.97.43,3.55,1.29,4.72.86,1.17,2.27,2.09,4.22,2.76,1.95.67,4.6,1.13,7.94,1.4,6.74.59,11.71,2.29,14.9,5.12,3.19,2.83,4.79,6.99,4.79,12.48,0,3.79-.88,7.11-2.62,9.96-1.75,2.85-4.26,5.04-7.52,6.56-3.27,1.52-7.08,2.28-11.44,2.28-7.14,0-12.79-1.93-16.95-5.8Z"/>
      <path class="cls-1" d="M515.36,303.54v-51.2h-16.8v-8.8h43.7v8.8h-16.8v51.2h-10.11Z"/>
      <path class="cls-1" d="M586.88,270.06c-1.93,2.75-4.61,4.65-8.06,5.72l10.79,27.76h-10.72l-10.26-26.88h-8.89v26.88h-10.11v-60h22.65c3.6,0,6.71.71,9.35,2.12,2.63,1.41,4.65,3.39,6.04,5.92,1.39,2.53,2.09,5.43,2.09,8.68,0,3.79-.96,7.05-2.89,9.8ZM559.75,267.86h11.71c2.68,0,4.66-.73,5.93-2.2,1.27-1.47,1.9-3.32,1.9-5.56s-.62-4.09-1.86-5.56c-1.24-1.47-3.18-2.2-5.81-2.2h-11.86v15.52Z"/>
      <path class="cls-1" d="M641.33,292.7c-1.95,3.87-4.74,6.84-8.36,8.92-3.62,2.08-7.87,3.12-12.73,3.12s-9.03-1.04-12.65-3.12-6.42-5.05-8.4-8.92c-1.97-3.87-2.96-8.41-2.96-13.64v-35.52h10.11v36.24c0,4.64,1.23,8.35,3.69,11.12,2.46,2.77,5.87,4.16,10.22,4.16s7.76-1.39,10.22-4.16c2.46-2.77,3.69-6.48,3.69-11.12v-36.24h10.11v35.52c0,5.23-.97,9.77-2.93,13.64Z"/>
      <path class="cls-1" d="M698.14,298.5c-4.76,4.16-10.69,6.24-17.79,6.24-5.47,0-10.34-1.33-14.59-4-4.26-2.67-7.57-6.36-9.96-11.08-2.38-4.72-3.57-10.09-3.57-16.12s1.19-11.4,3.57-16.12c2.38-4.72,5.7-8.4,9.96-11.04,4.26-2.64,9.12-3.96,14.59-3.96,6.99,0,12.87,2.03,17.63,6.08,4.76,4.05,7.88,9.65,9.35,16.8h-10.34c-1.42-4.27-3.47-7.48-6.16-9.64s-6.18-3.24-10.49-3.24c-3.6,0-6.74.88-9.42,2.64-2.69,1.76-4.75,4.24-6.19,7.44-1.45,3.2-2.17,6.91-2.17,11.12s.72,7.91,2.17,11.08c1.44,3.17,3.51,5.64,6.19,7.4,2.69,1.76,5.83,2.64,9.42,2.64,8.71,0,14.31-4.51,16.8-13.52h10.18c-1.37,7.36-4.43,13.12-9.2,17.28Z"/>
      <path class="cls-1" d="M725.12,303.54v-51.2h-16.8v-8.8h43.7v8.8h-16.8v51.2h-10.11Z"/>
      <path class="cls-1" d="M803.59,292.7c-1.95,3.87-4.74,6.84-8.36,8.92-3.62,2.08-7.87,3.12-12.73,3.12s-9.03-1.04-12.65-3.12-6.42-5.05-8.4-8.92c-1.97-3.87-2.96-8.41-2.96-13.64v-35.52h10.11v36.24c0,4.64,1.23,8.35,3.69,11.12,2.46,2.77,5.87,4.16,10.22,4.16s7.76-1.39,10.22-4.16c2.46-2.77,3.69-6.48,3.69-11.12v-36.24h10.11v35.52c0,5.23-.97,9.77-2.93,13.64Z"/>
      <path class="cls-1" d="M853.03,270.06c-1.93,2.75-4.61,4.65-8.05,5.72l10.79,27.76h-10.72l-10.26-26.88h-8.89v26.88h-10.11v-60h22.65c3.6,0,6.71.71,9.35,2.12,2.63,1.41,4.65,3.39,6.04,5.92,1.39,2.53,2.09,5.43,2.09,8.68,0,3.79-.96,7.05-2.89,9.8ZM825.9,267.86h11.7c2.69,0,4.66-.73,5.93-2.2,1.27-1.47,1.9-3.32,1.9-5.56s-.62-4.09-1.86-5.56c-1.24-1.47-3.18-2.2-5.81-2.2h-11.86v15.52Z"/>
      <path class="cls-1" d="M873.4,294.74h26.68v8.8h-36.79v-60h35.8v8.8h-25.69v14.88h22.34v8.8h-22.34v18.72Z"/>
    </g>
    <path class="cls-1" d="M157.23,72.38c10.62,5.58,18.99,13.32,25.11,23.22,6.12,9.9,9.18,20.97,9.18,33.21s-3.51,23.94-10.53,35.1l-65.07,106.38h-40.23l48.06-76.95c-.9.18-2.43.27-4.59.27-13.32,0-25.16-2.88-35.5-8.64-10.35-5.76-18.41-13.5-24.17-23.22-5.76-9.72-8.64-20.43-8.64-32.13,0-12.42,3.01-23.62,9.04-33.62,6.03-9.99,14.4-17.82,25.11-23.49,10.71-5.67,22.82-8.5,36.32-8.5s25.29,2.79,35.91,8.37ZM147.5,154.87c7.02-6.75,10.53-15.16,10.53-25.25s-3.51-18.4-10.53-24.97c-7.02-6.57-15.75-9.86-26.19-9.86s-19.67,3.24-26.6,9.72c-6.93,6.48-10.39,14.85-10.39,25.11s3.46,18.5,10.39,25.25c6.93,6.75,15.79,10.12,26.6,10.12s19.17-3.38,26.19-10.12Z"/>
  </g>
</svg>