<?xml version="1.0" encoding="UTF-8"?>
<svg id="Layer_2" data-name="Layer 2" xmlns="http://www.w3.org/2000/svg" viewBox="0 0 943.22 943.22">
  <defs>
    <style>
      .cls-1 {
        fill: #fff;
      }

      .cls-1, .cls-2 {
        stroke-width: 0px;
      }

      .cls-2 {
        fill: #2196d4;
      }
    </style>
  </defs>
  <g id="Layer_1-2" data-name="Layer 1">
    <rect class="cls-2" width="943.22" height="943.22"/>
    <g>
      <path class="cls-1" d="M723.87,383.22c-7.08,3.91-64.19,33.31-125.74-.42,0,0-60.71,36.05-126.49,0,0,0-60.71,36.05-126.49,0,0,0-60.71,36.05-126.49,0v48.06s61.98,29.72,126.49,0c0,0,61.98,29.72,126.49,0,0,0,61.98,29.72,126.49,0,0,0,61.5,29.48,125.74.32v-47.97Z"/>
      <path class="cls-1" d="M723.87,462.65c-7.08,3.91-64.19,33.31-125.74-.42,0,0-60.71,36.05-126.49,0,0,0-60.71,36.05-126.49,0,0,0-60.71,36.05-126.49,0v48.06s61.98,29.72,126.49,0c0,0,61.98,29.72,126.49,0,0,0,61.98,29.72,126.49,0,0,0,61.5,29.48,125.74.32v-47.97Z"/>
      <path class="cls-1" d="M718.93,681.7c-163.64-197.73-344.01-56.67-380.85-24.1-15.73-37.63-55.37-67.7-106.16-80.81-6.93-1.79-12.28,6.14-7.79,11.71,19.58,24.32,32.18,62.35,32.18,105.11s-12.6,80.79-32.18,105.11c-4.49,5.58.86,13.5,7.79,11.71,52.26-13.48,92.7-44.94,107.45-84.1,219.62,189.24,368.24-4.69,379.56-17.9,11.46-13.37,0-26.73,0-26.73ZM589.71,702.7c-15.82,0-28.64-12.82-28.64-28.64s12.82-28.64,28.64-28.64,28.64,12.82,28.64,28.64-12.82,28.64-28.64,28.64Z"/>
    </g>
    <g>
      <path class="cls-1" d="M351.97,125.1h25.46v8.8h-35.57v-60h10.11v51.2Z"/>
      <path class="cls-1" d="M385.26,73.9h9.96v60h-9.96v-60Z"/>
      <path class="cls-1" d="M443.25,82.7h-27.74v14.88h24.24v8.8h-24.24v27.52h-10.11v-60h37.85v8.8Z"/>
      <path class="cls-1" d="M460.96,125.1h26.68v8.8h-36.78v-60h35.8v8.8h-25.69v14.88h22.34v8.8h-22.34v18.72Z"/>
      <path class="cls-1" d="M552.46,106.38c1.62,2.51,2.43,5.49,2.43,8.96,0,3.73-.81,7-2.43,9.8-1.62,2.8-3.95,4.96-6.99,6.48-3.04,1.52-6.59,2.28-10.64,2.28h-20.67v-60h21.96c5.22,0,9.32,1.35,12.31,4.04,2.99,2.69,4.48,6.36,4.48,11,0,2.67-.65,5.04-1.94,7.12s-3.08,3.68-5.36,4.8c2.94,1.17,5.22,3.01,6.84,5.52ZM541.29,84.62c-1.42-1.28-3.47-1.92-6.16-1.92h-11.32v14.8h11.25c2.58,0,4.62-.67,6.12-2,1.49-1.33,2.24-3.12,2.24-5.36,0-2.4-.71-4.24-2.13-5.52ZM542.24,122.46c1.95-1.76,2.93-4.13,2.93-7.12s-.94-5.19-2.81-6.76c-1.88-1.57-4.56-2.36-8.06-2.36h-10.49v18.88h10.41c3.39,0,6.07-.88,8.02-2.64Z"/>
      <path class="cls-1" d="M572.14,125.1h26.68v8.8h-36.78v-60h35.8v8.8h-25.69v14.88h22.34v8.8h-22.34v18.72Z"/>
      <path class="cls-1" d="M616.83,125.1h25.46v8.8h-35.57v-60h10.11v51.2Z"/>
      <path class="cls-1" d="M657.91,131.1c-4.33-2.67-7.7-6.37-10.11-11.12-2.41-4.75-3.61-10.11-3.61-16.08s1.2-11.32,3.61-16.04c2.41-4.72,5.78-8.41,10.11-11.08,4.33-2.67,9.26-4,14.78-4s10.45,1.33,14.78,4c4.33,2.67,7.7,6.36,10.11,11.08,2.41,4.72,3.61,10.07,3.61,16.04s-1.2,11.33-3.61,16.08c-2.41,4.75-5.78,8.45-10.11,11.12-4.33,2.67-9.26,4-14.78,4s-10.45-1.33-14.78-4ZM682.27,122.46c2.74-1.76,4.85-4.24,6.35-7.44,1.49-3.2,2.24-6.88,2.24-11.04s-.75-7.92-2.24-11.12c-1.5-3.2-3.61-5.68-6.35-7.44-2.74-1.76-5.93-2.64-9.58-2.64s-6.84.88-9.58,2.64c-2.74,1.76-4.85,4.24-6.35,7.44-1.5,3.2-2.24,6.91-2.24,11.12s.75,7.84,2.24,11.04c1.49,3.2,3.61,5.68,6.35,7.44,2.74,1.76,5.93,2.64,9.58,2.64s6.84-.88,9.58-2.64Z"/>
      <path class="cls-1" d="M770.43,73.9h10.34l-15.96,60h-12.31l-10.49-40.88-10.49,40.88h-12.24l-16.04-60h10.26l11.78,46.4h.23l11.48-43.68h10.03l11.48,43.68h.23l11.7-46.4Z"/>
      <path class="cls-1" d="M406.01,163.9h10.34l-15.96,60h-12.31l-10.49-40.88-10.49,40.88h-12.24l-16.04-60h10.26l11.78,46.4h.23l11.48-43.68h10.03l11.48,43.68h.23l11.7-46.4Z"/>
      <path class="cls-1" d="M452.06,223.9l-4.33-15.28h-19.53l-4.41,15.28h-10.41l17.94-60h13.38l17.86,60h-10.49ZM430.71,199.82h14.52l-7.14-25.04h-.23l-7.14,25.04Z"/>
      <path class="cls-1" d="M476.31,223.9v-51.2h-16.8v-8.8h43.7v8.8h-16.8v51.2h-10.11Z"/>
      <path class="cls-1" d="M520.69,215.1h26.68v8.8h-36.78v-60h35.8v8.8h-25.69v14.88h22.34v8.8h-22.34v18.72Z"/>
      <path class="cls-1" d="M592.51,190.42c-1.93,2.75-4.61,4.65-8.06,5.72l10.79,27.76h-10.72l-10.26-26.88h-8.89v26.88h-10.11v-60h22.65c3.6,0,6.71.71,9.35,2.12,2.63,1.41,4.65,3.39,6.04,5.92,1.39,2.53,2.09,5.43,2.09,8.68,0,3.79-.96,7.05-2.89,9.8ZM565.38,188.22h11.7c2.68,0,4.66-.73,5.93-2.2,1.27-1.47,1.9-3.32,1.9-5.56s-.62-4.09-1.86-5.56c-1.24-1.47-3.18-2.2-5.81-2.2h-11.86v15.52Z"/>
    </g>
    <g>
      <path class="cls-1" d="M85.72,68.48h28.62v202.5h-33.75V103.31l-41.58,15.66v-31.59l46.71-18.9Z"/>
      <path class="cls-1" d="M291.73,189.17v29.7h-27.27v52.11h-33.48v-52.11h-93.15v-24.3l93.15-126.09h33.48v120.69h27.27ZM178.6,189.17h52.38v-71.01l-52.38,71.01Z"/>
    </g>
  </g>
</svg>