<?xml version="1.0" encoding="UTF-8"?>
<svg id="Layer_2" data-name="Layer 2" xmlns="http://www.w3.org/2000/svg" viewBox="0 0 943.22 943.22">
  <defs>
    <style>
      .cls-1 {
        fill: #5cba47;
      }

      .cls-1, .cls-2 {
        stroke-width: 0px;
      }

      .cls-2 {
        fill: #fff;
      }
    </style>
  </defs>
  <g id="Layer_1-2" data-name="Layer 1">
    <rect class="cls-1" width="943.22" height="943.22"/>
    <g>
      <g>
        <rect class="cls-2" x="240.36" y="740" width="459.53" height="37.08"/>
        <rect class="cls-2" x="240.36" y="795.03" width="459.53" height="37.08"/>
        <rect class="cls-2" x="365.1" y="640.41" width="33.02" height="77.05"/>
        <path class="cls-2" d="M281.88,536.89c-10.46,9.22-17.09,22.68-17.09,37.71,0,27.78,22.52,50.3,50.3,50.3,1.56,0,3.1-.09,4.62-.23h99.51c1.54.1,3.06.23,4.62.23s3.08-.14,4.62-.23h.98v-.05c38.06-2.87,68.07-34.59,68.07-73.38,0-36.69-26.85-67.03-61.96-72.65,4.77-9.15,7.51-19.53,7.51-30.56,0-36.56-29.64-66.2-66.2-66.2-33.84,0-61.69,25.4-65.67,58.17-.18,0-.35-.03-.54-.03-29.13,0-52.74,23.61-52.74,52.74,0,18.51,9.55,34.76,23.97,44.17Z"/>
      </g>
      <g>
        <path class="cls-2" d="M683.1,564.32c-39.54-29.66-72.56,2.13-72.56,2.13,0,0-33.02-31.78-72.56-2.13-6.07,4.55-10.32,15.11,8.5,10.29,17.65-4.52,43.57.53,60.75,17.94,1.79,1.82,4.84,1.82,6.63,0,17.18-17.41,43.1-22.47,60.75-17.94,18.82,4.82,14.57-5.73,8.5-10.29Z"/>
        <path class="cls-2" d="M610.54,594.64c-1.46,0-2.83-.56-3.83-1.58-17.13-17.36-43.18-22.08-60.05-17.75-8.01,2.05-12.79,1.61-14.19-1.32-1.42-2.96,1.46-7.54,5.07-10.25,36.95-27.7,68.66-2.06,73,1.73,4.34-3.8,36.06-29.44,73-1.73h0c3.61,2.71,6.5,7.28,5.07,10.25-1.41,2.93-6.18,3.37-14.19,1.32-16.87-4.32-42.91.39-60.05,17.75-1,1.02-2.36,1.58-3.83,1.58ZM559.78,572.31c15.46,0,34.03,5.61,47.96,19.73,1.46,1.48,4.14,1.48,5.6,0,18.34-18.58,44.71-22.42,61.44-18.14,6.94,1.78,11.5,1.58,12.52-.54,1.05-2.19-1.55-6.15-4.64-8.46-38.6-28.96-71.3,1.75-71.62,2.07l-.5.48-.5-.48c-.33-.32-33.05-31-71.63-2.07-3.09,2.32-5.69,6.27-4.64,8.46,1.02,2.12,5.58,2.32,12.52.54,4.02-1.03,8.6-1.59,13.49-1.59Z"/>
      </g>
      <g>
        <path class="cls-2" d="M612.06,443.75c-34.54-23.15-60.86,5.02-60.86,5.02,0,0-29.15-25.22-61.05,1.45-4.9,4.1-8,13.15,7.6,8.26,14.62-4.58,36.62-1.49,51.83,12.36,1.59,1.45,4.14,1.31,5.57-.3,13.65-15.39,35.2-20.79,50.23-17.78,16.03,3.21,11.99-5.47,6.68-9.02Z"/>
        <path class="cls-2" d="M552.2,473.3c-1.35,0-2.61-.48-3.6-1.38-14.93-13.61-36.67-16.37-50.42-12.05-7.07,2.21-11.43,1.93-12.96-.88-1.59-2.91.87-7.26,4-9.88,29.04-24.31,56.26-6.46,61.87-2.26,5.13-4.76,30.31-25.39,61.77-4.3,3.39,2.27,6.3,6.33,5.03,9.4-1.23,2.94-5.54,3.7-12.8,2.24-14.13-2.84-35.45,2.21-48.86,17.33-.95,1.07-2.27,1.7-3.73,1.78-.1,0-.2,0-.3,0ZM511.73,455.05c12.58,0,27.23,4.16,38.83,14.72.48.44,1.07.66,1.79.62.68-.04,1.29-.32,1.72-.81,14.79-16.67,37.11-21.13,51.6-18.24,6.36,1.27,9.12.52,9.55-.51.49-1.17-1.14-3.99-3.96-5.88h0c-33.08-22.16-57.95,3.7-59,4.81l-.95,1.01-1.05-.91c-1.15-.99-28.62-24.08-59.17,1.47-2.61,2.18-3.92,5.16-3.32,6.27.54.98,3.36,1.44,9.56-.5,4.18-1.31,9.11-2.05,14.41-2.05Z"/>
      </g>
      <g>
        <path class="cls-2" d="M674.78,414.58c-17.83-26.61-44.22-12.52-44.22-12.52,0,0-13.46-26.72-43.36-15.24-4.59,1.76-9.3,7.73,3.04,8.23,11.57.47,26.18,8.68,33.01,23.14.71,1.51,2.55,2.09,4,1.27,13.91-7.89,30.58-6.18,40.31.1,10.38,6.7,9.96-.89,7.22-4.98Z"/>
        <path class="cls-2" d="M674.02,424.41c-2.96,0-6.28-2.14-7.64-3.02-8.87-5.72-24.79-7.57-38.06-.03-1.22.7-2.67.85-4,.42-1.33-.42-2.43-1.39-3.03-2.65-6.51-13.81-20.59-21.47-31.13-21.9-2.27-.09-9.17-.37-9.91-4.88-.53-3.2,2.71-6.22,6.19-7.55,26.63-10.23,41.15,8.45,45.01,14.5,6.65-2.72,29.27-9.62,45.15,14.08h0c2.07,3.09,2.98,7.42.71,9.73-.93.94-2.07,1.3-3.28,1.3ZM647.52,411.98c8.34,0,15.94,2.35,21.22,5.76,4.2,2.71,5.5,2.27,5.52,2.28.2-.38-.05-2.39-1.28-4.22h0c-16.48-24.6-40.39-12.34-41.4-11.81l-1.95,1.03-1-1.97c-.52-1.02-13.02-24.81-40.64-14.2-2.05.79-3.42,2.29-3.45,2.82h0c.05,0,1,1.02,5.8,1.22,11.49.47,27.3,8.3,34.89,24.38.11.23.28.32.41.37.13.04.33.06.55-.06,7.01-3.98,14.43-5.6,21.34-5.6Z"/>
      </g>
    </g>
    <g>
      <path class="cls-2" d="M355.17,125.1h25.46v8.8h-35.57v-60h10.11v51.2Z"/>
      <path class="cls-2" d="M388.45,73.9h9.96v60h-9.96v-60Z"/>
      <path class="cls-2" d="M446.44,82.7h-27.74v14.88h24.24v8.8h-24.24v27.52h-10.11v-60h37.85v8.8Z"/>
      <path class="cls-2" d="M464.15,125.1h26.68v8.8h-36.78v-60h35.79v8.8h-25.69v14.88h22.34v8.8h-22.34v18.72Z"/>
      <path class="cls-2" d="M356.72,221.1c-4.33-2.67-7.7-6.37-10.11-11.12-2.41-4.75-3.61-10.11-3.61-16.08s1.2-11.32,3.61-16.04c2.4-4.72,5.78-8.41,10.11-11.08,4.33-2.67,9.26-4,14.78-4s10.45,1.33,14.78,4c4.33,2.67,7.7,6.36,10.11,11.08,2.41,4.72,3.61,10.07,3.61,16.04s-1.2,11.33-3.61,16.08c-2.41,4.75-5.78,8.45-10.11,11.12-4.33,2.67-9.26,4-14.78,4s-10.45-1.33-14.78-4ZM381.08,212.46c2.74-1.76,4.85-4.24,6.35-7.44s2.24-6.88,2.24-11.04-.75-7.92-2.24-11.12-3.61-5.68-6.35-7.44c-2.74-1.76-5.93-2.64-9.58-2.64s-6.84.88-9.58,2.64c-2.74,1.76-4.85,4.24-6.35,7.44s-2.24,6.91-2.24,11.12.75,7.84,2.24,11.04,3.61,5.68,6.35,7.44c2.74,1.76,5.93,2.64,9.58,2.64s6.84-.88,9.58-2.64Z"/>
      <path class="cls-2" d="M409.66,223.9v-60h10.49l24.85,42.8h.23v-42.8h9.58v60h-10.49l-24.85-42.8h-.23v42.8h-9.58Z"/>
      <path class="cls-2" d="M493.71,215.1h25.46v8.8h-35.57v-60h10.11v51.2Z"/>
      <path class="cls-2" d="M561.89,223.9l-4.33-15.28h-19.53l-4.41,15.28h-10.41l17.94-60h13.38l17.86,60h-10.49ZM540.53,199.82h14.52l-7.14-25.04h-.23l-7.14,25.04Z"/>
      <path class="cls-2" d="M579.52,223.9v-60h10.49l24.85,42.8h.23v-42.8h9.58v60h-10.49l-24.85-42.8h-.23v42.8h-9.58Z"/>
      <path class="cls-2" d="M668.44,167.66c4.36,2.51,7.68,6.01,9.96,10.52s3.42,9.72,3.42,15.64-1.15,11.16-3.46,15.72c-2.3,4.56-5.61,8.09-9.92,10.6s-9.42,3.76-15.35,3.76h-18.24v-60h18.16c5.93,0,11.07,1.25,15.43,3.76ZM666.99,208.58c3.09-3.76,4.64-8.68,4.64-14.76s-1.56-10.93-4.67-14.72c-3.12-3.79-7.82-5.68-14.1-5.68h-8.13v40.8h8.21c6.28,0,10.97-1.88,14.06-5.64Z"/>
    </g>
    <g>
      <path class="cls-2" d="M90.94,68.48h28.62v202.5h-33.75V103.31l-41.58,15.66v-31.59l46.71-18.9Z"/>
      <path class="cls-2" d="M181.93,266.8c-10.44-5.49-18.63-13.05-24.57-22.68-5.94-9.63-8.91-20.38-8.91-32.26,0-2.88.27-5.67.81-8.37h32.67c-.36,2.34-.54,4.5-.54,6.48,0,10.08,3.33,18.41,9.99,24.97,6.66,6.57,15.21,9.85,25.65,9.85,11.16,0,20.12-3.46,26.87-10.39,6.75-6.93,10.12-16.24,10.12-27.95,0-10.8-3.47-19.62-10.39-26.46-6.93-6.84-15.79-10.26-26.6-10.26-5.58,0-11.21.99-16.88,2.97-5.67,1.98-10.39,4.59-14.17,7.83h-34.29l21.06-112.05h103.68v31.05h-79.38l-9.72,52.11c3.6-3.42,8.68-6.25,15.25-8.5,6.57-2.25,13.1-3.38,19.58-3.38,12.6,0,23.8,2.83,33.62,8.5,9.81,5.67,17.46,13.68,22.95,24.03,5.49,10.35,8.23,22.27,8.23,35.77s-2.93,24.8-8.77,34.96c-5.85,10.17-14.04,18.05-24.57,23.62-10.53,5.58-22.73,8.37-36.59,8.37-12.96,0-24.66-2.75-35.1-8.23Z"/>
    </g>
  </g>
</svg>