<?xml version="1.0" encoding="UTF-8"?>
<svg id="Layer_2" data-name="Layer 2" xmlns="http://www.w3.org/2000/svg" viewBox="0 0 943.22 943.22">
  <defs>
    <style>
      .cls-1 {
        fill: #e51d3c;
      }

      .cls-1, .cls-2 {
        stroke-width: 0px;
      }

      .cls-2 {
        fill: #fff;
      }
    </style>
  </defs>
  <g id="Layer_1-2" data-name="Layer 1">
    <rect class="cls-1" y="0" width="943.22" height="943.22"/>
    <g>
      <path class="cls-2" d="M196.32,477.71c15.07,0,27.29-12.22,27.29-27.29s-12.22-27.29-27.29-27.29-27.29,12.22-27.29,27.29,12.22,27.29,27.29,27.29Z"/>
      <circle class="cls-2" cx="765.5" cy="450.42" r="27.29" transform="translate(-57.63 116.75) rotate(-8.41)"/>
      <path class="cls-2" d="M669.26,603.59c12.48,0,22.61-10.12,22.61-22.61s-10.12-22.61-22.61-22.61-22.61,10.12-22.61,22.61,10.12,22.61,22.61,22.61Z"/>
      <path class="cls-2" d="M301.6,603.59c12.48,0,22.61-10.12,22.61-22.61s-10.12-22.61-22.61-22.61-22.61,10.12-22.61,22.61,10.12,22.61,22.61,22.61Z"/>
      <circle class="cls-2" cx="415.81" cy="464.5" r="27.29" transform="translate(-206.66 430.07) rotate(-45)"/>
      <circle class="cls-2" cx="563.66" cy="464.5" r="27.29" transform="translate(-91.94 142.53) rotate(-13.34)"/>
      <path class="cls-2" d="M623.55,615.83c6.28-1.83,10.14-9.5,8.64-17.14l-14.07-74.79c-2.71-14.4-13.24-24.61-25.38-24.61h-63.6c-12.03,0-22.49,10.02-25.31,24.24l-14.83,74.73c-1.51,7.63,2.36,15.31,8.64,17.14l2.85.83c6.28,1.83,12.59-2.87,14.09-10.51l12.41-62.94h4.09l-18.28,97.98h16.25v81.64c0,7.16,5.8,12.96,12.96,12.96h3.25c7.16,0,12.96-5.8,12.96-12.96v-81.64h5.47v81.42c0,7.28,5.9,13.18,13.18,13.18h3.3c7.28,0,13.18-5.9,13.18-13.18v-81.42h15.28l-18.28-97.98h3.76l12.5,63.36c1.51,7.63,7.81,12.34,14.09,10.51l2.85-.83Z"/>
      <path class="cls-2" d="M473.34,523.9c-2.71-14.4-13.24-24.61-25.39-24.61h-63.6c-12.03,0-22.49,10.02-25.31,24.24l-12.19,61.46c-1.03-.61-2.14-1.02-3.26-1.19-3.53-.54-7.21,1-9.23,4.22l-16.11,25.67c-9.3,0-23.39,0-32.85,0l-16.84-26.82c-2.02-3.22-5.7-4.76-9.23-4.22,0,0-.01,0-.02,0v-64.23c0-18.09-14.66-32.75-32.75-32.75h-60.49c-18.09,0-32.75,14.66-32.75,32.75v76.8c0,4.09,1.87,7.71,4.76,10.17l-23.42,123.36c-.6,3.14,1.47,6.17,4.61,6.77.36.07.73.1,1.09.1,2.73,0,5.16-1.93,5.68-4.71l23.26-122.54c6.18-1.2,10.85-6.63,10.85-13.16l-.07-70.25h3.93l.06,83.67h.09v114.42c0,7.16,5.8,12.96,12.96,12.96h3.25c7.16,0,12.96-5.8,12.96-12.96v-114.42h5.47v114.2c0,7.28,5.9,13.18,13.18,13.18h3.3c7.28,0,13.18-5.9,13.18-13.18v-114.2h-.02l.08-83.01h3.93l.02,69.6c0,7.41,6.01,13.42,13.42,13.42h0c4.53,0,8.52-2.26,10.95-5.7l18.71,29.8v23.92l-11.65,30.43c-.41,1.07.38,2.23,1.53,2.23h10.12v36.16c0,5.82,4.72,10.53,10.53,10.53h2.64c5.82,0,10.53-4.72,10.53-10.53v-36.16h4.44v35.99c0,5.92,4.8,10.71,10.71,10.71h2.68c5.41,0,9.83-4.02,10.56-9.22v-37.47h9.23c1.11,0,1.9-1.07,1.57-2.13l-10.79-34.54v-19.2l16.96-27.01c1.3,4.32,4.29,7.8,8.25,8.96l2.85.83c6.28,1.83,12.59-2.87,14.09-10.51l12.41-62.94h4.09l-18.28,97.98h16.25v81.64c0,7.16,5.8,12.96,12.96,12.96h3.25c7.16,0,12.96-5.8,12.96-12.96v-81.64h5.47v81.42c0,7.28,5.9,13.18,13.18,13.18h3.3c7.28,0,13.18-5.9,13.18-13.18v-81.42h15.28l-18.28-97.98h3.76l12.5,63.36c1.51,7.63,7.81,12.34,14.09,10.51l2.85-.83c6.28-1.83,10.14-9.5,8.64-17.14l-14.07-74.79Z"/>
      <path class="cls-2" d="M795.91,485.69h-60.49c-18.09,0-32.75,14.66-32.75,32.75v76.8c0,7.41,6.01,13.42,13.41,13.42s13.42-6.01,13.42-13.42l-.07-70.25h3.93l.06,83.67h.09v114.42c0,7.16,5.8,12.96,12.96,12.96h3.25c7.16,0,12.96-5.8,12.96-12.96v-114.42h5.47v114.2c0,7.28,5.9,13.18,13.18,13.18h3.3c7.28,0,13.18-5.9,13.18-13.18v-114.2h-.02l.08-83.01h3.93l.02,69.6c0,7.41,6.01,13.42,13.42,13.42s13.42-6.01,13.42-13.42v-76.8c0-18.09-14.66-32.75-32.75-32.75Z"/>
      <path class="cls-2" d="M699.48,614.16c-1.65-3.8-5.67-5.83-9.59-5.08-.28-.03-.52-.16-.8-.16-9.94,0-27.71,0-37.65,0-.37,0-.7.16-1.05.21-.63-.14-1.25-.22-1.88-.22-3.36,0-6.56,1.96-7.98,5.24l-20.79,48.1c-1.9,4.41.12,9.52,4.53,11.42,4.41,1.92,9.51-.13,11.42-4.53l8.52-19.73v76.08c0,5.82,4.72,10.53,10.53,10.53h2.64c5.82,0,10.53-4.72,10.53-10.53v-41.02h4.44v40.85c0,5.92,4.8,10.71,10.71,10.71h2.68c5.41,0,9.83-4.02,10.56-9.22v-76.17l8,18.51c1.42,3.28,4.62,5.24,7.98,5.24,1.15,0,2.32-.23,3.44-.72,4.4-1.9,6.43-7.02,4.53-11.42l-20.79-48.1Z"/>
    </g>
    <g>
      <path class="cls-2" d="M182.36,131.87v-60h10.49l24.85,42.8h.23v-42.8h9.58v60h-10.49l-24.85-42.8h-.23v42.8h-9.58Z"/>
      <path class="cls-2" d="M249.35,129.07c-4.33-2.67-7.7-6.37-10.11-11.12-2.41-4.75-3.61-10.11-3.61-16.08s1.2-11.32,3.61-16.04c2.41-4.72,5.78-8.41,10.11-11.08,4.33-2.67,9.26-4,14.78-4s10.45,1.33,14.78,4c4.33,2.67,7.7,6.36,10.11,11.08,2.41,4.72,3.61,10.07,3.61,16.04s-1.2,11.33-3.61,16.08c-2.41,4.75-5.78,8.45-10.11,11.12-4.33,2.67-9.26,4-14.78,4s-10.45-1.33-14.78-4ZM273.71,120.43c2.74-1.76,4.85-4.24,6.35-7.44,1.49-3.2,2.24-6.88,2.24-11.04s-.75-7.92-2.24-11.12c-1.5-3.2-3.61-5.68-6.35-7.44-2.74-1.76-5.93-2.64-9.58-2.64s-6.84.88-9.58,2.64c-2.74,1.76-4.85,4.24-6.35,7.44-1.5,3.2-2.24,6.91-2.24,11.12s.75,7.84,2.24,11.04c1.49,3.2,3.61,5.68,6.35,7.44,2.74,1.76,5.93,2.64,9.58,2.64s6.84-.88,9.58-2.64Z"/>
      <path class="cls-2" d="M217.96,166.39c3.01,3.01,4.52,7,4.52,11.96,0,3.25-.67,6.15-2.01,8.68-1.34,2.53-3.28,4.49-5.81,5.88-2.53,1.39-5.52,2.08-8.97,2.08h-13.22v26.88h-10.11v-60h23.26c5.22,0,9.33,1.51,12.35,4.52ZM210.59,183.99c1.19-1.47,1.79-3.35,1.79-5.64s-.58-4.01-1.75-5.48c-1.17-1.47-2.94-2.2-5.32-2.2h-12.84v15.52h12.62c2.48,0,4.32-.73,5.51-2.2Z"/>
      <path class="cls-2" d="M241.45,219.07c-4.33-2.67-7.7-6.37-10.11-11.12-2.41-4.75-3.61-10.11-3.61-16.08s1.2-11.32,3.61-16.04c2.41-4.72,5.78-8.41,10.11-11.08,4.33-2.67,9.26-4,14.78-4s10.45,1.33,14.78,4c4.33,2.67,7.7,6.36,10.11,11.08,2.41,4.72,3.61,10.07,3.61,16.04s-1.2,11.33-3.61,16.08c-2.41,4.75-5.78,8.45-10.11,11.12-4.33,2.67-9.26,4-14.78,4s-10.45-1.33-14.78-4ZM265.8,210.43c2.74-1.76,4.85-4.24,6.35-7.44,1.49-3.2,2.24-6.88,2.24-11.04s-.75-7.92-2.24-11.12c-1.5-3.2-3.61-5.68-6.35-7.44-2.74-1.76-5.93-2.64-9.58-2.64s-6.84.88-9.58,2.64c-2.74,1.76-4.85,4.24-6.35,7.44-1.5,3.2-2.24,6.91-2.24,11.12s.75,7.84,2.24,11.04c1.49,3.2,3.61,5.68,6.35,7.44,2.74,1.76,5.93,2.64,9.58,2.64s6.84-.88,9.58-2.64Z"/>
      <path class="cls-2" d="M304.34,221.87l-17.56-60h10.64l13.53,49.04h.23l13.45-49.04h10.64l-17.48,60h-13.45Z"/>
      <path class="cls-2" d="M352.52,213.07h26.68v8.8h-36.78v-60h35.8v8.8h-25.69v14.88h22.34v8.8h-22.34v18.72Z"/>
      <path class="cls-2" d="M424.34,188.39c-1.93,2.75-4.61,4.65-8.06,5.72l10.79,27.76h-10.72l-10.26-26.88h-8.89v26.88h-10.11v-60h22.65c3.6,0,6.71.71,9.35,2.12,2.63,1.41,4.65,3.39,6.04,5.92,1.39,2.53,2.09,5.43,2.09,8.68,0,3.79-.96,7.05-2.89,9.8ZM397.21,186.19h11.7c2.68,0,4.66-.73,5.93-2.2,1.27-1.47,1.9-3.32,1.9-5.56s-.62-4.09-1.86-5.56c-1.24-1.47-3.18-2.2-5.81-2.2h-11.86v15.52Z"/>
      <path class="cls-2" d="M448.05,221.87v-51.2h-16.8v-8.8h43.7v8.8h-16.8v51.2h-10.11Z"/>
      <path class="cls-2" d="M525.19,161.87l-18.09,41.12v18.88h-10.11v-19.04l-18.01-40.96h10.49l12.46,30.24h.23l12.54-30.24h10.49Z"/>
    </g>
    <path class="cls-2" d="M94.55,67.8h28.62v202.5h-33.75V102.63l-41.58,15.66v-31.59l46.71-18.9Z"/>
  </g>
</svg>