<?xml version="1.0" encoding="UTF-8"?>
<svg id="Layer_2" data-name="Layer 2" xmlns="http://www.w3.org/2000/svg" viewBox="0 0 943.22 943.22">
  <defs>
    <style>
      .cls-1 {
        fill: #fff;
      }

      .cls-1, .cls-2 {
        stroke-width: 0px;
      }

      .cls-2 {
        fill: #18496a;
      }
    </style>
  </defs>
  <g id="Layer_1-2" data-name="Layer 1">
    <rect class="cls-2" width="943.22" height="943.22"/>
    <path class="cls-1" d="M690.91,578.97c0-65.68-51.97-119.31-116.94-122.29-17.06-47.2-62.19-81.08-115.19-81.08s-98.13,33.88-115.19,81.08c-64.96,2.98-116.94,56.61-116.94,122.29,0,39.08,18.45,73.86,47.02,96.32-2.89,10.42-4.56,21.35-4.56,32.68,0,67.59,54.99,122.58,122.58,122.58,25.22,0,48.67-7.67,68.18-20.78,19.51,13.11,42.96,20.78,68.18,20.78,67.59,0,122.58-54.99,122.58-122.58,0-11.82-1.77-23.22-4.91-34.05,27.55-22.5,45.19-56.69,45.19-94.95ZM555.31,498.17c0,48.37-35.8,88.42-82.27,95.35-.73-4.76-1.22-9.6-1.22-14.55,0-48.37,35.8-88.42,82.27-95.35.73,4.76,1.22,9.6,1.22,14.56ZM493.58,639.92c-1.73-2.58-3.61-5.04-5.53-7.47-2.04-3.05-3.86-6.26-5.55-9.54,13.58-7.3,29.08-11.46,45.55-11.46,37.39,0,69.81,21.41,85.83,52.57-13.58,7.3-29.08,11.46-45.55,11.46-30.12,0-57.04-13.88-74.75-35.56ZM459.88,776.22c-17.5-17.48-28.34-41.62-28.34-68.25s10.84-50.77,28.34-68.25c2.32,2.31,4.5,4.76,6.57,7.3,1.73,2.58,3.62,5.04,5.53,7.47,10.24,15.32,16.24,33.71,16.24,53.49,0,26.63-10.84,50.77-28.34,68.25ZM363.49,483.62c46.47,6.92,82.27,46.98,82.27,95.35,0,4.96-.49,9.79-1.22,14.55-46.47-6.92-82.27-46.98-82.27-95.35,0-4.96.49-9.8,1.22-14.56ZM435.48,622.06c-15.87,31.62-48.52,53.43-86.24,53.43-15.77,0-30.62-3.88-43.78-10.61,15.87-31.62,48.52-53.43,86.24-53.43,15.77,0,30.62,3.88,43.78,10.61ZM458.79,401.65c39.04,0,72.67,23.35,87.86,56.77-38.55,6.93-70.83,31.89-87.86,65.86-17.03-33.97-49.3-58.94-87.85-65.86,15.19-33.43,48.81-56.77,87.85-56.77ZM252.72,578.97c0-49.14,36.94-89.74,84.49-95.69-.6,4.89-1,9.84-1,14.89,0,34.84,14.68,66.26,38.1,88.6-39.1,5.59-72.34,29.56-90.46,62.99-19.09-17.65-31.13-42.81-31.13-70.79ZM295.18,707.97c0-6.26.65-12.36,1.79-18.29,15.88,7.53,33.56,11.87,52.27,11.87,21.05,0,40.87-5.34,58.2-14.73-1.21,6.89-1.96,13.93-1.96,21.15,0,32.53,12.82,62.05,33.56,84.02-14,7.92-30.14,12.5-47.35,12.5-53.22,0-96.52-43.3-96.52-96.52ZM624.58,707.97c0,53.22-43.3,96.52-96.52,96.52-17.21,0-33.34-4.58-47.35-12.5,20.74-21.97,33.56-51.49,33.56-84.02,0-6.83-.7-13.49-1.78-20.02,16.77,8.63,35.72,13.59,55.84,13.59s37.91-4.7,54.3-12.85c1.27,6.23,1.94,12.67,1.94,19.27ZM543.58,586.48c23.24-22.32,37.79-53.62,37.79-88.31,0-5.05-.4-10-1-14.89,47.55,5.95,84.49,46.55,84.49,95.69,0,27.3-11.44,51.93-29.72,69.5-18.56-33.27-52.17-56.98-91.56-61.99Z"/>
    <g>
      <path class="cls-1" d="M372.91,78.42c2.86,3.01,4.28,7,4.28,11.96,0,3.25-.64,6.15-1.91,8.68-1.27,2.53-3.11,4.49-5.51,5.88-2.4,1.39-5.23,2.08-8.5,2.08h-12.53v26.88h-9.58v-60h22.03c4.94,0,8.84,1.51,11.7,4.52ZM365.92,96.02c1.13-1.47,1.69-3.35,1.69-5.64s-.55-4.01-1.66-5.48c-1.11-1.47-2.79-2.2-5.04-2.2h-12.17v15.52h11.95c2.35,0,4.09-.73,5.22-2.2Z"/>
      <path class="cls-1" d="M411.9,133.9l-4.1-15.28h-18.5l-4.18,15.28h-9.86l16.99-60h12.67l16.92,60h-9.94ZM391.66,109.82h13.75l-6.77-25.04h-.22l-6.77,25.04Z"/>
      <path class="cls-1" d="M463.88,100.42c-1.82,2.75-4.37,4.65-7.63,5.72l10.22,27.76h-10.15l-9.72-26.88h-8.42v26.88h-9.58v-60h21.46c3.41,0,6.36.71,8.86,2.12,2.5,1.41,4.4,3.39,5.72,5.92,1.32,2.53,1.98,5.43,1.98,8.68,0,3.79-.91,7.05-2.74,9.8ZM438.18,98.22h11.09c2.54,0,4.42-.73,5.62-2.2,1.2-1.47,1.8-3.32,1.8-5.56s-.59-4.09-1.76-5.56c-1.18-1.47-3.01-2.2-5.51-2.2h-11.23v15.52Z"/>
      <path class="cls-1" d="M486.34,133.9v-51.2h-15.91v-8.8h41.4v8.8h-15.91v51.2h-9.58Z"/>
      <path class="cls-1" d="M518.82,133.9v-60h9.94l23.54,42.8h.22v-42.8h9.07v60h-9.94l-23.54-42.8h-.22v42.8h-9.07Z"/>
      <path class="cls-1" d="M580.81,125.1h25.27v8.8h-34.85v-60h33.91v8.8h-24.34v14.88h21.17v8.8h-21.17v18.72Z"/>
      <path class="cls-1" d="M648.85,100.42c-1.82,2.75-4.37,4.65-7.63,5.72l10.22,27.76h-10.15l-9.72-26.88h-8.42v26.88h-9.58v-60h21.46c3.41,0,6.36.71,8.86,2.12,2.5,1.41,4.4,3.39,5.72,5.92,1.32,2.53,1.98,5.43,1.98,8.68,0,3.79-.91,7.05-2.74,9.8ZM623.14,98.22h11.09c2.54,0,4.42-.73,5.62-2.2,1.2-1.47,1.8-3.32,1.8-5.56s-.59-4.09-1.76-5.56c-1.18-1.47-3.01-2.2-5.51-2.2h-11.23v15.52Z"/>
      <path class="cls-1" d="M662.38,129.22c-3.94-3.87-5.98-9.21-6.12-16.04h9.94c.1,3.95,1.26,7.03,3.49,9.24,2.23,2.21,5.24,3.32,9.04,3.32,3.17,0,5.74-.8,7.7-2.4,1.97-1.6,2.95-3.71,2.95-6.32,0-2.08-.41-3.75-1.22-5-.82-1.25-2.14-2.23-3.96-2.92-1.83-.69-4.34-1.2-7.56-1.52-6.29-.59-10.97-2.29-14.04-5.12-3.07-2.83-4.61-6.85-4.61-12.08,0-3.52.79-6.61,2.38-9.28,1.58-2.67,3.82-4.72,6.7-6.16s6.21-2.16,10.01-2.16c6.24,0,11.17,1.69,14.8,5.08,3.62,3.39,5.58,8.17,5.87,14.36h-9.86c-.24-3.31-1.27-5.85-3.1-7.64-1.83-1.79-4.34-2.68-7.56-2.68-2.98,0-5.34.71-7.09,2.12-1.75,1.41-2.63,3.32-2.63,5.72,0,1.97.41,3.55,1.22,4.72.82,1.17,2.15,2.09,4,2.76s4.36,1.13,7.52,1.4c6.38.59,11.09,2.29,14.11,5.12,3.02,2.83,4.54,6.99,4.54,12.48,0,3.79-.83,7.11-2.48,9.96-1.66,2.85-4.03,5.04-7.13,6.56-3.1,1.52-6.71,2.28-10.84,2.28-6.77,0-12.12-1.93-16.06-5.8Z"/>
      <path class="cls-1" d="M736.98,73.9h9.58v60h-9.58v-27.52h-21.53v27.52h-9.58v-60h9.58v23.68h21.53v-23.68Z"/>
      <path class="cls-1" d="M756.2,73.9h9.43v60h-9.43v-60Z"/>
      <path class="cls-1" d="M809.01,78.42c2.86,3.01,4.28,7,4.28,11.96,0,3.25-.64,6.15-1.91,8.68-1.27,2.53-3.11,4.49-5.51,5.88-2.4,1.39-5.23,2.08-8.5,2.08h-12.53v26.88h-9.58v-60h22.03c4.94,0,8.84,1.51,11.7,4.52ZM802.03,96.02c1.13-1.47,1.69-3.35,1.69-5.64s-.55-4.01-1.66-5.48c-1.11-1.47-2.79-2.2-5.04-2.2h-12.17v15.52h11.95c2.35,0,4.09-.73,5.22-2.2Z"/>
      <path class="cls-1" d="M824.31,129.22c-3.94-3.87-5.98-9.21-6.12-16.04h9.94c.1,3.95,1.26,7.03,3.49,9.24,2.23,2.21,5.24,3.32,9.04,3.32,3.17,0,5.74-.8,7.7-2.4,1.97-1.6,2.95-3.71,2.95-6.32,0-2.08-.41-3.75-1.22-5-.82-1.25-2.14-2.23-3.96-2.92-1.83-.69-4.34-1.2-7.56-1.52-6.29-.59-10.97-2.29-14.04-5.12-3.07-2.83-4.61-6.85-4.61-12.08,0-3.52.79-6.61,2.38-9.28,1.58-2.67,3.82-4.72,6.7-6.16s6.21-2.16,10.01-2.16c6.24,0,11.17,1.69,14.8,5.08,3.62,3.39,5.58,8.17,5.87,14.36h-9.86c-.24-3.31-1.27-5.85-3.1-7.64-1.83-1.79-4.34-2.68-7.56-2.68-2.98,0-5.34.71-7.09,2.12-1.75,1.41-2.63,3.32-2.63,5.72,0,1.97.41,3.55,1.22,4.72.82,1.17,2.15,2.09,4,2.76s4.36,1.13,7.52,1.4c6.38.59,11.09,2.29,14.11,5.12,3.02,2.83,4.54,6.99,4.54,12.48,0,3.79-.83,7.11-2.48,9.96-1.66,2.85-4.03,5.04-7.13,6.56-3.1,1.52-6.71,2.28-10.84,2.28-6.77,0-12.12-1.93-16.06-5.8Z"/>
      <path class="cls-1" d="M375.03,172.7h-26.28v14.88h22.97v8.8h-22.97v27.52h-9.58v-60h35.86v8.8Z"/>
      <path class="cls-1" d="M393.28,221.1c-4.1-2.67-7.3-6.37-9.58-11.12-2.28-4.75-3.42-10.11-3.42-16.08s1.14-11.32,3.42-16.04c2.28-4.72,5.47-8.41,9.58-11.08,4.1-2.67,8.77-4,14-4s9.9,1.33,14,4c4.1,2.67,7.3,6.36,9.58,11.08,2.28,4.72,3.42,10.07,3.42,16.04s-1.14,11.33-3.42,16.08c-2.28,4.75-5.47,8.45-9.58,11.12-4.1,2.67-8.77,4-14,4s-9.9-1.33-14-4ZM416.36,212.46c2.59-1.76,4.6-4.24,6.01-7.44,1.42-3.2,2.12-6.88,2.12-11.04s-.71-7.92-2.12-11.12c-1.42-3.2-3.42-5.68-6.01-7.44-2.59-1.76-5.62-2.64-9.07-2.64s-6.48.88-9.07,2.64c-2.59,1.76-4.6,4.24-6.01,7.44-1.42,3.2-2.12,6.91-2.12,11.12s.71,7.84,2.12,11.04c1.42,3.2,3.42,5.68,6.01,7.44,2.59,1.76,5.62,2.64,9.07,2.64s6.48-.88,9.07-2.64Z"/>
      <path class="cls-1" d="M478.71,190.42c-1.82,2.75-4.37,4.65-7.63,5.72l10.22,27.76h-10.15l-9.72-26.88h-8.42v26.88h-9.58v-60h21.46c3.41,0,6.36.71,8.86,2.12,2.5,1.41,4.4,3.39,5.72,5.92,1.32,2.53,1.98,5.43,1.98,8.68,0,3.79-.91,7.05-2.74,9.8ZM453.01,188.22h11.09c2.54,0,4.42-.73,5.62-2.2,1.2-1.47,1.8-3.32,1.8-5.56s-.59-4.09-1.76-5.56c-1.18-1.47-3.01-2.2-5.51-2.2h-11.23v15.52Z"/>
      <path class="cls-1" d="M516.87,223.9v-51.2h-15.91v-8.8h41.4v8.8h-15.91v51.2h-9.58Z"/>
      <path class="cls-1" d="M580.45,163.9h9.58v60h-9.58v-27.52h-21.53v27.52h-9.58v-60h9.58v23.68h21.53v-23.68Z"/>
      <path class="cls-1" d="M609.25,215.1h25.27v8.8h-34.85v-60h33.91v8.8h-24.34v14.88h21.17v8.8h-21.17v18.72Z"/>
      <path class="cls-1" d="M710.34,223.9h-7.92v-8.96c-1.97,3.25-4.5,5.76-7.6,7.52-3.1,1.76-6.64,2.64-10.62,2.64-5.09,0-9.65-1.36-13.68-4.08-4.03-2.72-7.18-6.45-9.43-11.2-2.26-4.75-3.38-10.05-3.38-15.92s1.13-11.32,3.38-16.04c2.26-4.72,5.41-8.41,9.47-11.08,4.06-2.67,8.7-4,13.93-4,6.29,0,11.7,1.75,16.24,5.24,4.54,3.49,7.6,8.31,9.18,14.44h-10.15c-1.15-3.09-3.01-5.53-5.58-7.32-2.57-1.79-5.75-2.68-9.54-2.68-3.46,0-6.48.89-9.07,2.68-2.59,1.79-4.6,4.31-6.01,7.56-1.42,3.25-2.12,7.01-2.12,11.28s.71,8.03,2.12,11.28,3.42,5.77,6.01,7.56c2.59,1.79,5.64,2.68,9.14,2.68,4.32,0,7.92-1.31,10.8-3.92,2.88-2.61,4.75-6.16,5.62-10.64h-13.68v-8.8h22.9v31.76Z"/>
      <path class="cls-1" d="M729.38,221.1c-4.1-2.67-7.3-6.37-9.58-11.12-2.28-4.75-3.42-10.11-3.42-16.08s1.14-11.32,3.42-16.04c2.28-4.72,5.47-8.41,9.58-11.08,4.1-2.67,8.77-4,14-4s9.9,1.33,14,4c4.1,2.67,7.3,6.36,9.58,11.08,2.28,4.72,3.42,10.07,3.42,16.04s-1.14,11.33-3.42,16.08c-2.28,4.75-5.47,8.45-9.58,11.12-4.1,2.67-8.77,4-14,4s-9.9-1.33-14-4ZM752.46,212.46c2.59-1.76,4.6-4.24,6.01-7.44,1.42-3.2,2.12-6.88,2.12-11.04s-.71-7.92-2.12-11.12c-1.42-3.2-3.42-5.68-6.01-7.44-2.59-1.76-5.62-2.64-9.07-2.64s-6.48.88-9.07,2.64c-2.59,1.76-4.6,4.24-6.01,7.44-1.42,3.2-2.12,6.91-2.12,11.12s.71,7.84,2.12,11.04c1.42,3.2,3.42,5.68,6.01,7.44,2.59,1.76,5.62,2.64,9.07,2.64s6.48-.88,9.07-2.64Z"/>
      <path class="cls-1" d="M809.7,223.9l-4.1-15.28h-18.5l-4.18,15.28h-9.86l16.99-60h12.67l16.92,60h-9.94ZM789.46,199.82h13.75l-6.77-25.04h-.22l-6.77,25.04Z"/>
      <path class="cls-1" d="M835.98,215.1h24.12v8.8h-33.7v-60h9.58v51.2Z"/>
      <path class="cls-1" d="M870.61,219.22c-3.94-3.87-5.98-9.21-6.12-16.04h9.94c.1,3.95,1.26,7.03,3.49,9.24,2.23,2.21,5.24,3.32,9.04,3.32,3.17,0,5.74-.8,7.7-2.4,1.97-1.6,2.95-3.71,2.95-6.32,0-2.08-.41-3.75-1.22-5-.82-1.25-2.14-2.23-3.96-2.92-1.83-.69-4.34-1.2-7.56-1.52-6.29-.59-10.97-2.29-14.04-5.12-3.07-2.83-4.61-6.85-4.61-12.08,0-3.52.79-6.61,2.38-9.28,1.58-2.67,3.82-4.72,6.7-6.16s6.21-2.16,10.01-2.16c6.24,0,11.17,1.69,14.8,5.08,3.62,3.39,5.58,8.17,5.87,14.36h-9.86c-.24-3.31-1.27-5.85-3.1-7.64-1.83-1.79-4.34-2.68-7.56-2.68-2.98,0-5.34.71-7.09,2.12-1.75,1.41-2.63,3.32-2.63,5.72,0,1.97.41,3.55,1.22,4.72.82,1.17,2.15,2.09,4,2.76s4.36,1.13,7.52,1.4c6.38.59,11.09,2.29,14.11,5.12,3.02,2.83,4.54,6.99,4.54,12.48,0,3.79-.83,7.11-2.48,9.96-1.66,2.85-4.03,5.04-7.13,6.56-3.1,1.52-6.71,2.28-10.84,2.28-6.77,0-12.12-1.93-16.06-5.8Z"/>
    </g>
    <g>
      <path class="cls-1" d="M91.92,68.48h28.62v202.5h-33.75V103.31l-41.58,15.66v-31.59l46.71-18.9Z"/>
      <path class="cls-1" d="M145.38,68.48h131.49v26.73l-75.87,175.77h-37.26l76.68-171.45h-95.04v-31.05Z"/>
    </g>
  </g>
</svg>