<?xml version="1.0" encoding="UTF-8"?>
<svg id="Layer_2" data-name="Layer 2" xmlns="http://www.w3.org/2000/svg" viewBox="0 0 943.22 943.22">
  <defs>
    <style>
      .cls-1 {
        fill: #07699e;
      }

      .cls-1, .cls-2 {
        stroke-width: 0px;
      }

      .cls-2 {
        fill: #fff;
      }
    </style>
  </defs>
  <g id="Layer_1-2" data-name="Layer 1">
    <rect class="cls-1" width="943.22" height="943.22"/>
    <rect class="cls-2" x="245.53" y="731.69" width="27.12" height="49.12" rx="10.54" ry="10.54"/>
    <g>
      <path class="cls-2" d="M644.52,681.53h-80.88c-7.24,0-13.11,5.87-13.11,13.11s5.87,13.11,13.11,13.11h80.88c7.24,0,13.11-5.87,13.11-13.11s-5.87-13.11-13.11-13.11Z"/>
      <path class="cls-2" d="M644.52,803.9h-80.88c-7.24,0-13.11,5.87-13.11,13.11s5.87,13.11,13.11,13.11h80.88c7.24,0,13.11-5.87,13.11-13.11s-5.87-13.11-13.11-13.11Z"/>
      <path class="cls-2" d="M560.64,791.85c0,4.09,3.32,7.41,7.41,7.41h72.05c4.09,0,7.41-3.32,7.41-7.41v-72.05c0-4.09-3.32-7.41-7.41-7.41h-72.05c-4.09,0-7.41,3.32-7.41,7.41v20.71c-14.69.92-52.06,2.77-116.4,2.83v-40.55c105.3-10.67,105.48-70.93,106.29-105.21.9-38.38,16.37-51.81,28.52-59.49,3.8-2.4,9.24-3.8,14.75-4.69.66,15.13,4.28,28.12,5.36,31.65.18.58.7.95,1.31.95h8.14s-4.53-17.01-5.74-33.69c8.35-.76,14.61-.9,11.99-2.53-2.73-1.71-7.64-4.53-12.22-7.84.21-5.99,1.13-11.42,3.22-15.31,12-22.26,32.51-39.11,39.47-45.15,1.12-.97,1.11-2.71-.04-3.66l-3.44-2.86c-1.01-.84-2.44-.89-3.48-.07-4.66,3.7-18.03,15.18-34.32,36.81-5.12,6.8-7.9,14.91-9.28,23.21-.65-.8-1.24-1.61-1.68-2.41-19.2-35.2-51.81-8.96-62.69.64-10.87,9.6-55.85,70.03-115.78,9.6-75.48-76.12-129.78-54.27-129.78-54.27,32.23,24.83,22.65,26.2,39.98,87.82,17.33,61.62,65.47,67.4,65.47,67.4-20.22,5.78-31.08,17.26-46.75,28.12-15.27,10.59-61.97,3.35-61.97,3.35,20.85,5.65,39.66,21.75,39.66,21.75,44.78,30.7,80.6,27.51,80.6,27.51.4,0,.77,0,1.17,0v38.74c-37.19-.37-81.14-1.31-132.46-3.14v32.45s231.35-11.36,290.07-1.59v20.99ZM416.27,704.4c5.13-.08,10.01-.29,14.75-.56v39.49c-4.77-.01-9.7-.04-14.75-.07v-38.86Z"/>
      <path class="cls-2" d="M679.36,418.42s-37.15-3.56-34.09,35.11c0,0,36.13,3.56,34.09-35.11Z"/>
      <path class="cls-2" d="M623.63,467.54s24.9-26.42-6.96-48.44c0,0-25.52,27.23,6.96,48.44Z"/>
      <path class="cls-2" d="M600.73,492.99s24.9-26.42-6.96-48.44c0,0-25.52,27.23,6.96,48.44Z"/>
      <path class="cls-2" d="M633.82,479.3s26.18,26.59,48.68-5.01c0,0-25.4-25.94-48.68,5.01Z"/>
      <path class="cls-2" d="M612.44,502.2s23.42,29.05,48.94-.17c0,0-22.71-28.32-48.94.17Z"/>
    </g>
    <g>
      <path class="cls-2" d="M381.72,78.42c2.86,3.01,4.28,7,4.28,11.96,0,3.25-.64,6.15-1.91,8.68-1.27,2.53-3.11,4.49-5.51,5.88-2.4,1.39-5.23,2.08-8.5,2.08h-12.53v26.88h-9.58v-60h22.03c4.94,0,8.84,1.51,11.7,4.52ZM374.73,96.02c1.13-1.47,1.69-3.35,1.69-5.64s-.55-4.01-1.66-5.48c-1.11-1.47-2.79-2.2-5.04-2.2h-12.17v15.52h11.95c2.35,0,4.09-.73,5.22-2.2Z"/>
      <path class="cls-2" d="M401.77,125.1h25.27v8.8h-34.85v-60h33.91v8.8h-24.34v14.88h21.17v8.8h-21.17v18.72Z"/>
      <path class="cls-2" d="M468.3,133.9l-4.1-15.28h-18.5l-4.18,15.28h-9.86l16.99-60h12.67l16.92,60h-9.94ZM448.06,109.82h13.75l-6.77-25.04h-.22l-6.77,25.04Z"/>
      <path class="cls-2" d="M524.38,128.86c-4.51,4.16-10.13,6.24-16.85,6.24-5.18,0-9.79-1.33-13.82-4-4.03-2.67-7.18-6.36-9.43-11.08-2.26-4.72-3.38-10.09-3.38-16.12s1.13-11.4,3.38-16.12c2.26-4.72,5.4-8.4,9.43-11.04,4.03-2.64,8.64-3.96,13.82-3.96,6.62,0,12.19,2.03,16.7,6.08,4.51,4.05,7.46,9.65,8.86,16.8h-9.79c-1.34-4.27-3.29-7.48-5.83-9.64-2.54-2.16-5.86-3.24-9.94-3.24-3.41,0-6.38.88-8.93,2.64-2.54,1.76-4.5,4.24-5.87,7.44-1.37,3.2-2.05,6.91-2.05,11.12s.68,7.91,2.05,11.08c1.37,3.17,3.32,5.64,5.87,7.4,2.54,1.76,5.52,2.64,8.93,2.64,8.26,0,13.56-4.51,15.91-13.52h9.65c-1.3,7.36-4.2,13.12-8.71,17.28Z"/>
      <path class="cls-2" d="M551.67,125.1h25.27v8.8h-34.85v-60h33.91v8.8h-24.34v14.88h21.17v8.8h-21.17v18.72Z"/>
      <path class="cls-2" d="M581.12,145.98l5.47-23.68h9.43l-8.21,23.68h-6.7Z"/>
      <path class="cls-2" d="M632.89,125.1c1.1,0,1.9-.27,2.38-.8s.72-1.36.72-2.48v-39.12h-10.94v-8.8h20.52v47.04c0,4.16-1.01,7.36-3.02,9.6-2.02,2.24-4.94,3.36-8.78,3.36h-14.11v-8.8h13.25Z"/>
      <path class="cls-2" d="M695.85,123.06c-1.85,3.87-4.49,6.84-7.92,8.92-3.43,2.08-7.45,3.12-12.06,3.12s-8.56-1.04-11.99-3.12-6.08-5.05-7.96-8.92c-1.87-3.87-2.81-8.41-2.81-13.64v-35.52h9.58v36.24c0,4.64,1.16,8.35,3.49,11.12,2.33,2.77,5.55,4.16,9.68,4.16s7.36-1.39,9.68-4.16c2.33-2.77,3.49-6.48,3.49-11.12v-36.24h9.58v35.52c0,5.23-.92,9.77-2.77,13.64Z"/>
      <path class="cls-2" d="M711.22,129.22c-3.94-3.87-5.98-9.21-6.12-16.04h9.94c.1,3.95,1.26,7.03,3.49,9.24,2.23,2.21,5.24,3.32,9.04,3.32,3.17,0,5.74-.8,7.7-2.4,1.97-1.6,2.95-3.71,2.95-6.32,0-2.08-.41-3.75-1.22-5-.82-1.25-2.14-2.23-3.96-2.92-1.83-.69-4.34-1.2-7.56-1.52-6.29-.59-10.97-2.29-14.04-5.12-3.07-2.83-4.61-6.85-4.61-12.08,0-3.52.79-6.61,2.38-9.28,1.58-2.67,3.82-4.72,6.7-6.16s6.21-2.16,10.01-2.16c6.24,0,11.17,1.69,14.8,5.08,3.62,3.39,5.58,8.17,5.87,14.36h-9.86c-.24-3.31-1.27-5.85-3.1-7.64-1.83-1.79-4.34-2.68-7.56-2.68-2.98,0-5.34.71-7.09,2.12-1.75,1.41-2.63,3.32-2.63,5.72,0,1.97.41,3.55,1.22,4.72.82,1.17,2.15,2.09,4,2.76s4.36,1.13,7.52,1.4c6.38.59,11.09,2.29,14.11,5.12,3.02,2.83,4.54,6.99,4.54,12.48,0,3.79-.83,7.11-2.48,9.96-1.66,2.85-4.03,5.04-7.13,6.56-3.1,1.52-6.71,2.28-10.84,2.28-6.77,0-12.12-1.93-16.06-5.8Z"/>
      <path class="cls-2" d="M766.52,133.9v-51.2h-15.91v-8.8h41.4v8.8h-15.91v51.2h-9.58Z"/>
      <path class="cls-2" d="M798.99,73.9h9.43v60h-9.43v-60Z"/>
      <path class="cls-2" d="M859.62,128.86c-4.51,4.16-10.13,6.24-16.85,6.24-5.18,0-9.79-1.33-13.82-4-4.03-2.67-7.18-6.36-9.43-11.08-2.26-4.72-3.38-10.09-3.38-16.12s1.13-11.4,3.38-16.12c2.26-4.72,5.4-8.4,9.43-11.04,4.03-2.64,8.64-3.96,13.82-3.96,6.62,0,12.19,2.03,16.7,6.08,4.51,4.05,7.46,9.65,8.86,16.8h-9.79c-1.34-4.27-3.29-7.48-5.83-9.64-2.54-2.16-5.86-3.24-9.94-3.24-3.41,0-6.38.88-8.93,2.64-2.54,1.76-4.5,4.24-5.87,7.44-1.37,3.2-2.05,6.91-2.05,11.12s.68,7.91,2.05,11.08c1.37,3.17,3.32,5.64,5.87,7.4,2.54,1.76,5.52,2.64,8.93,2.64,8.26,0,13.56-4.51,15.91-13.52h9.65c-1.3,7.36-4.2,13.12-8.71,17.28Z"/>
      <path class="cls-2" d="M886.9,125.1h25.27v8.8h-34.85v-60h33.91v8.8h-24.34v14.88h21.17v8.8h-21.17v18.72Z"/>
      <path class="cls-2" d="M381.75,223.9l-4.1-15.28h-18.5l-4.18,15.28h-9.86l16.99-60h12.67l16.92,60h-9.94ZM361.52,199.82h13.75l-6.77-25.04h-.22l-6.77,25.04Z"/>
      <path class="cls-2" d="M398.46,223.9v-60h9.94l23.54,42.8h.22v-42.8h9.07v60h-9.94l-23.54-42.8h-.22v42.8h-9.07Z"/>
      <path class="cls-2" d="M482.7,167.66c4.13,2.51,7.27,6.01,9.43,10.52s3.24,9.72,3.24,15.64-1.09,11.16-3.28,15.72c-2.18,4.56-5.32,8.09-9.4,10.6-4.08,2.51-8.93,3.76-14.54,3.76h-17.28v-60h17.21c5.62,0,10.49,1.25,14.62,3.76ZM481.33,208.58c2.93-3.76,4.39-8.68,4.39-14.76s-1.48-10.93-4.43-14.72c-2.95-3.79-7.41-5.68-13.36-5.68h-7.7v40.8h7.78c5.95,0,10.39-1.88,13.32-5.64Z"/>
      <path class="cls-2" d="M524.53,219.22c-3.94-3.87-5.98-9.21-6.12-16.04h9.94c.1,3.95,1.26,7.03,3.49,9.24,2.23,2.21,5.24,3.32,9.04,3.32,3.17,0,5.74-.8,7.7-2.4,1.97-1.6,2.95-3.71,2.95-6.32,0-2.08-.41-3.75-1.22-5-.82-1.25-2.14-2.23-3.96-2.92-1.83-.69-4.34-1.2-7.56-1.52-6.29-.59-10.97-2.29-14.04-5.12-3.07-2.83-4.61-6.85-4.61-12.08,0-3.52.79-6.61,2.38-9.28,1.58-2.67,3.82-4.72,6.7-6.16s6.21-2.16,10.01-2.16c6.24,0,11.17,1.69,14.8,5.08,3.62,3.39,5.58,8.17,5.87,14.36h-9.86c-.24-3.31-1.27-5.85-3.1-7.64-1.83-1.79-4.34-2.68-7.56-2.68-2.98,0-5.34.71-7.09,2.12-1.75,1.41-2.63,3.32-2.63,5.72,0,1.97.41,3.55,1.22,4.72.82,1.17,2.15,2.09,4,2.76s4.36,1.13,7.52,1.4c6.38.59,11.09,2.29,14.11,5.12,3.02,2.83,4.54,6.99,4.54,12.48,0,3.79-.83,7.11-2.48,9.96-1.66,2.85-4.03,5.04-7.13,6.56-3.1,1.52-6.71,2.28-10.84,2.28-6.77,0-12.12-1.93-16.06-5.8Z"/>
      <path class="cls-2" d="M579.82,223.9v-51.2h-15.91v-8.8h41.4v8.8h-15.91v51.2h-9.58Z"/>
      <path class="cls-2" d="M647.57,190.42c-1.82,2.75-4.37,4.65-7.63,5.72l10.22,27.76h-10.15l-9.72-26.88h-8.42v26.88h-9.58v-60h21.46c3.41,0,6.36.71,8.86,2.12,2.5,1.41,4.4,3.39,5.72,5.92,1.32,2.53,1.98,5.43,1.98,8.68,0,3.79-.91,7.05-2.74,9.8ZM621.87,188.22h11.09c2.54,0,4.42-.73,5.62-2.2,1.2-1.47,1.8-3.32,1.8-5.56s-.59-4.09-1.76-5.56c-1.18-1.47-3.01-2.2-5.51-2.2h-11.23v15.52Z"/>
      <path class="cls-2" d="M668.35,221.1c-4.1-2.67-7.3-6.37-9.58-11.12-2.28-4.75-3.42-10.11-3.42-16.08s1.14-11.32,3.42-16.04c2.28-4.72,5.47-8.41,9.58-11.08,4.1-2.67,8.77-4,14-4s9.9,1.33,14,4c4.1,2.67,7.3,6.36,9.58,11.08,2.28,4.72,3.42,10.07,3.42,16.04s-1.14,11.33-3.42,16.08c-2.28,4.75-5.47,8.45-9.58,11.12-4.1,2.67-8.77,4-14,4s-9.9-1.33-14-4ZM691.42,212.46c2.59-1.76,4.6-4.24,6.01-7.44,1.42-3.2,2.12-6.88,2.12-11.04s-.71-7.92-2.12-11.12c-1.42-3.2-3.42-5.68-6.01-7.44-2.59-1.76-5.62-2.64-9.07-2.64s-6.48.88-9.07,2.64c-2.59,1.76-4.6,4.24-6.01,7.44-1.42,3.2-2.12,6.91-2.12,11.12s.71,7.84,2.12,11.04c1.42,3.2,3.42,5.68,6.01,7.44,2.59,1.76,5.62,2.64,9.07,2.64s6.48-.88,9.07-2.64Z"/>
      <path class="cls-2" d="M718.5,223.9v-60h9.94l23.54,42.8h.22v-42.8h9.07v60h-9.94l-23.54-42.8h-.22v42.8h-9.07Z"/>
      <path class="cls-2" d="M821.6,223.9h-7.92v-8.96c-1.97,3.25-4.5,5.76-7.6,7.52-3.1,1.76-6.64,2.64-10.62,2.64-5.09,0-9.65-1.36-13.68-4.08-4.03-2.72-7.18-6.45-9.43-11.2-2.26-4.75-3.38-10.05-3.38-15.92s1.13-11.32,3.38-16.04c2.26-4.72,5.41-8.41,9.47-11.08,4.06-2.67,8.7-4,13.93-4,6.29,0,11.7,1.75,16.24,5.24,4.54,3.49,7.6,8.31,9.18,14.44h-10.15c-1.15-3.09-3.01-5.53-5.58-7.32-2.57-1.79-5.75-2.68-9.54-2.68-3.46,0-6.48.89-9.07,2.68-2.59,1.79-4.6,4.31-6.01,7.56-1.42,3.25-2.12,7.01-2.12,11.28s.71,8.03,2.12,11.28,3.42,5.77,6.01,7.56c2.59,1.79,5.64,2.68,9.14,2.68,4.32,0,7.92-1.31,10.8-3.92,2.88-2.61,4.75-6.16,5.62-10.64h-13.68v-8.8h22.9v31.76Z"/>
      <path class="cls-2" d="M347.98,253.9h9.43v60h-9.43v-60Z"/>
      <path class="cls-2" d="M367.06,313.9v-60h9.94l23.54,42.8h.22v-42.8h9.07v60h-9.94l-23.54-42.8h-.22v42.8h-9.07Z"/>
      <path class="cls-2" d="M423.3,309.22c-3.94-3.87-5.98-9.21-6.12-16.04h9.94c.1,3.95,1.26,7.03,3.49,9.24,2.23,2.21,5.24,3.32,9.04,3.32,3.17,0,5.74-.8,7.7-2.4,1.97-1.6,2.95-3.71,2.95-6.32,0-2.08-.41-3.75-1.22-5-.82-1.25-2.14-2.23-3.96-2.92-1.83-.69-4.34-1.2-7.56-1.52-6.29-.59-10.97-2.29-14.04-5.12-3.07-2.83-4.61-6.85-4.61-12.08,0-3.52.79-6.61,2.38-9.28,1.58-2.67,3.82-4.72,6.7-6.16s6.21-2.16,10.01-2.16c6.24,0,11.17,1.69,14.8,5.08,3.62,3.39,5.58,8.17,5.87,14.36h-9.86c-.24-3.31-1.27-5.85-3.1-7.64-1.83-1.79-4.34-2.68-7.56-2.68-2.98,0-5.34.71-7.09,2.12-1.75,1.41-2.63,3.32-2.63,5.72,0,1.97.41,3.55,1.22,4.72.82,1.17,2.15,2.09,4,2.76s4.36,1.13,7.52,1.4c6.38.59,11.09,2.29,14.11,5.12,3.02,2.83,4.54,6.99,4.54,12.48,0,3.79-.83,7.11-2.48,9.96-1.66,2.85-4.03,5.04-7.13,6.56-3.1,1.52-6.71,2.28-10.84,2.28-6.77,0-12.12-1.93-16.06-5.8Z"/>
      <path class="cls-2" d="M478.59,313.9v-51.2h-15.91v-8.8h41.4v8.8h-15.91v51.2h-9.58Z"/>
      <path class="cls-2" d="M511.06,253.9h9.43v60h-9.43v-60Z"/>
      <path class="cls-2" d="M543.39,313.9v-51.2h-15.91v-8.8h41.4v8.8h-15.91v51.2h-9.58Z"/>
      <path class="cls-2" d="M617.73,303.06c-1.85,3.87-4.49,6.84-7.92,8.92-3.43,2.08-7.45,3.12-12.06,3.12s-8.56-1.04-11.99-3.12-6.08-5.05-7.96-8.92c-1.87-3.87-2.81-8.41-2.81-13.64v-35.52h9.58v36.24c0,4.64,1.16,8.35,3.49,11.12,2.33,2.77,5.55,4.16,9.68,4.16s7.36-1.39,9.68-4.16c2.33-2.77,3.49-6.48,3.49-11.12v-36.24h9.58v35.52c0,5.23-.92,9.77-2.77,13.64Z"/>
      <path class="cls-2" d="M642.54,313.9v-51.2h-15.91v-8.8h41.4v8.8h-15.91v51.2h-9.58Z"/>
      <path class="cls-2" d="M675.01,253.9h9.43v60h-9.43v-60Z"/>
      <path class="cls-2" d="M705.14,311.1c-4.1-2.67-7.3-6.37-9.58-11.12-2.28-4.75-3.42-10.11-3.42-16.08s1.14-11.32,3.42-16.04c2.28-4.72,5.47-8.41,9.58-11.08,4.1-2.67,8.77-4,14-4s9.9,1.33,14,4c4.1,2.67,7.3,6.36,9.58,11.08,2.28,4.72,3.42,10.07,3.42,16.04s-1.14,11.33-3.42,16.08c-2.28,4.75-5.47,8.45-9.58,11.12-4.1,2.67-8.77,4-14,4s-9.9-1.33-14-4ZM728.22,302.46c2.59-1.76,4.6-4.24,6.01-7.44,1.42-3.2,2.12-6.88,2.12-11.04s-.71-7.92-2.12-11.12c-1.42-3.2-3.42-5.68-6.01-7.44-2.59-1.76-5.62-2.64-9.07-2.64s-6.48.88-9.07,2.64c-2.59,1.76-4.6,4.24-6.01,7.44-1.42,3.2-2.12,6.91-2.12,11.12s.71,7.84,2.12,11.04c1.42,3.2,3.42,5.68,6.01,7.44,2.59,1.76,5.62,2.64,9.07,2.64s6.48-.88,9.07-2.64Z"/>
      <path class="cls-2" d="M755.29,313.9v-60h9.94l23.54,42.8h.22v-42.8h9.07v60h-9.94l-23.54-42.8h-.22v42.8h-9.07Z"/>
      <path class="cls-2" d="M811.52,309.22c-3.94-3.87-5.98-9.21-6.12-16.04h9.94c.1,3.95,1.26,7.03,3.49,9.24,2.23,2.21,5.24,3.32,9.04,3.32,3.17,0,5.74-.8,7.7-2.4,1.97-1.6,2.95-3.71,2.95-6.32,0-2.08-.41-3.75-1.22-5-.82-1.25-2.14-2.23-3.96-2.92-1.83-.69-4.34-1.2-7.56-1.52-6.29-.59-10.97-2.29-14.04-5.12-3.07-2.83-4.61-6.85-4.61-12.08,0-3.52.79-6.61,2.38-9.28,1.58-2.67,3.82-4.72,6.7-6.16s6.21-2.16,10.01-2.16c6.24,0,11.17,1.69,14.8,5.08,3.62,3.39,5.58,8.17,5.87,14.36h-9.86c-.24-3.31-1.27-5.85-3.1-7.64-1.83-1.79-4.34-2.68-7.56-2.68-2.98,0-5.34.71-7.09,2.12-1.75,1.41-2.63,3.32-2.63,5.72,0,1.97.41,3.55,1.22,4.72.82,1.17,2.15,2.09,4,2.76s4.36,1.13,7.52,1.4c6.38.59,11.09,2.29,14.11,5.12,3.02,2.83,4.54,6.99,4.54,12.48,0,3.79-.83,7.11-2.48,9.96-1.66,2.85-4.03,5.04-7.13,6.56-3.1,1.52-6.71,2.28-10.84,2.28-6.77,0-12.12-1.93-16.06-5.8Z"/>
    </g>
    <g>
      <path class="cls-2" d="M103.58,68.48h28.62v202.5h-33.75V103.31l-41.58,15.66v-31.59l46.71-18.9Z"/>
      <path class="cls-2" d="M266.26,153.8c10.35,5.76,18.4,13.5,24.17,23.22,5.76,9.72,8.64,20.43,8.64,32.13,0,12.42-3.02,23.67-9.04,33.75-6.03,10.08-14.4,17.96-25.11,23.62-10.71,5.67-22.82,8.5-36.32,8.5s-25.07-2.83-35.77-8.5c-10.71-5.67-19.13-13.45-25.25-23.35-6.12-9.9-9.18-20.97-9.18-33.21s3.51-23.94,10.53-35.1l65.07-106.38h40.77l-48.06,76.95c.9-.18,2.25-.27,4.05-.27,13.32,0,25.15,2.88,35.5,8.64ZM255.05,234.4c7.02-6.57,10.53-14.99,10.53-25.25s-3.47-18.5-10.4-25.25c-6.93-6.75-15.79-10.12-26.59-10.12s-19.17,3.38-26.19,10.12c-7.02,6.75-10.53,15.17-10.53,25.25s3.51,18.68,10.53,25.25c7.02,6.57,15.75,9.85,26.19,9.85s19.44-3.28,26.46-9.85Z"/>
    </g>
  </g>
</svg>