<?xml version="1.0" encoding="UTF-8"?>
<svg id="Layer_2" data-name="Layer 2" xmlns="http://www.w3.org/2000/svg" viewBox="0 0 943.22 943.22">
  <defs>
    <style>
      .cls-1 {
        fill: #b8202d;
      }

      .cls-1, .cls-2 {
        stroke-width: 0px;
      }

      .cls-2 {
        fill: #fff;
      }
    </style>
  </defs>
  <g id="Layer_1-2" data-name="Layer 1">
    <rect class="cls-1" y="0" width="943.22" height="943.22"/>
    <g>
      <g>
        <path class="cls-2" d="M414.43,811.89l-206.34-58.38v-337.55l23.16-12.31v332.34l182.85,51.73c5.9,1.67,12.16,1.58,18.01-.24l186.23-58.2v-325.63l23.16,12.31v330.35l-209.06,65.33c-5.85,1.83-12.11,1.91-18.01.24Z"/>
        <polygon class="cls-2" points="248.6 403.66 416.77 502.38 416.77 773.9 248.6 725.12 248.6 403.66"/>
        <polygon class="cls-2" points="602.92 403.66 434.75 502.38 434.75 773.9 602.92 725.12 602.92 403.66"/>
      </g>
      <g>
        <path class="cls-2" d="M734.91,396.35c-1.08-10.67-9.98-19.02-20.93-19.02s-19.85,8.36-20.94,19.02h-.21v27.61c0,.91.74,1.64,1.64,1.64h39.01c.91,0,1.64-.74,1.64-1.64v-27.61h-.21Z"/>
        <path class="cls-2" d="M735.06,720.7l-19.51,64.98c-.47,1.56-2.68,1.56-3.14,0l-19.51-64.98c-.05-.15-.07-.31-.07-.47v-280.42c0-.91.73-1.64,1.64-1.64h39.01c.91,0,1.64.73,1.64,1.64v280.42c0,.16-.02.32-.07.47Z"/>
      </g>
    </g>
    <g>
      <path class="cls-2" d="M307.75,114.11c-1.32,3.79-3.22,7.07-5.7,9.84l7.29,7.92h-10.49l-2.74-2.88c-4.41,2.72-9.37,4.08-14.89,4.08s-10.45-1.33-14.78-4c-4.33-2.67-7.7-6.37-10.11-11.12-2.41-4.75-3.61-10.11-3.61-16.08s1.2-11.32,3.61-16.04,5.78-8.41,10.11-11.08c4.33-2.67,9.26-4,14.78-4s10.45,1.33,14.78,4c4.33,2.67,7.7,6.36,10.11,11.08s3.61,10.07,3.61,16.04c0,4.37-.66,8.45-1.98,12.24ZM265.3,112.99c1.49,3.2,3.61,5.68,6.35,7.44,2.74,1.76,5.93,2.64,9.58,2.64,2.79,0,5.34-.53,7.68-1.6l-12.24-13.04h11.02l7.37,8c2.89-3.79,4.33-8.61,4.33-14.48,0-4.21-.75-7.92-2.24-11.12-1.5-3.2-3.61-5.68-6.35-7.44-2.74-1.76-5.93-2.64-9.58-2.64s-6.84.88-9.58,2.64c-2.74,1.76-4.85,4.24-6.35,7.44-1.5,3.2-2.24,6.91-2.24,11.12s.75,7.84,2.24,11.04Z"/>
      <path class="cls-2" d="M362.81,121.03c-1.95,3.87-4.74,6.84-8.36,8.92s-7.87,3.12-12.73,3.12-9.03-1.04-12.65-3.12c-3.62-2.08-6.42-5.05-8.4-8.92-1.98-3.87-2.96-8.41-2.96-13.64v-35.52h10.11v36.24c0,4.64,1.23,8.35,3.69,11.12,2.46,2.77,5.86,4.16,10.22,4.16s7.76-1.39,10.22-4.16c2.46-2.77,3.69-6.48,3.69-11.12v-36.24h10.11v35.52c0,5.23-.98,9.77-2.93,13.64Z"/>
      <path class="cls-2" d="M407.61,131.87l-4.33-15.28h-19.53l-4.41,15.28h-10.41l17.94-60h13.38l17.86,60h-10.49ZM386.26,107.79h14.52l-7.14-25.04h-.23l-7.14,25.04Z"/>
      <path class="cls-2" d="M435.35,123.07h25.46v8.8h-35.57v-60h10.11v51.2Z"/>
      <path class="cls-2" d="M468.64,71.87h9.96v60h-9.96v-60Z"/>
      <path class="cls-2" d="M502.76,131.87v-51.2h-16.79v-8.8h43.7v8.8h-16.8v51.2h-10.11Z"/>
      <path class="cls-2" d="M579.9,71.87l-18.09,41.12v18.88h-10.11v-19.04l-18.01-40.96h10.49l12.46,30.24h.23l12.54-30.24h10.49Z"/>
      <path class="cls-2" d="M264.88,213.07h26.68v8.8h-36.79v-60h35.8v8.8h-25.69v14.88h22.34v8.8h-22.34v18.72Z"/>
      <path class="cls-2" d="M333.06,165.63c4.36,2.51,7.68,6.01,9.96,10.52,2.28,4.51,3.42,9.72,3.42,15.64s-1.15,11.16-3.46,15.72c-2.31,4.56-5.61,8.09-9.92,10.6s-9.42,3.76-15.35,3.76h-18.24v-60h18.16c5.93,0,11.07,1.25,15.43,3.76ZM331.61,206.55c3.09-3.76,4.63-8.68,4.63-14.76s-1.56-10.93-4.67-14.72c-3.12-3.79-7.82-5.68-14.1-5.68h-8.13v40.8h8.21c6.28,0,10.97-1.88,14.06-5.64Z"/>
      <path class="cls-2" d="M399.52,211.03c-1.95,3.87-4.74,6.84-8.36,8.92-3.62,2.08-7.87,3.12-12.73,3.12s-9.03-1.04-12.65-3.12-6.42-5.05-8.4-8.92c-1.97-3.87-2.96-8.41-2.96-13.64v-35.52h10.11v36.24c0,4.64,1.23,8.35,3.69,11.12,2.46,2.77,5.87,4.16,10.22,4.16s7.76-1.39,10.22-4.16c2.46-2.77,3.69-6.48,3.69-11.12v-36.24h10.11v35.52c0,5.23-.97,9.77-2.93,13.64Z"/>
      <path class="cls-2" d="M456.33,216.83c-4.76,4.16-10.69,6.24-17.78,6.24-5.47,0-10.34-1.33-14.59-4-4.26-2.67-7.58-6.36-9.96-11.08-2.38-4.72-3.57-10.09-3.57-16.12s1.19-11.4,3.57-16.12c2.38-4.72,5.7-8.4,9.96-11.04,4.26-2.64,9.12-3.96,14.59-3.96,6.99,0,12.87,2.03,17.63,6.08,4.76,4.05,7.88,9.65,9.35,16.8h-10.34c-1.42-4.27-3.47-7.48-6.15-9.64-2.69-2.16-6.18-3.24-10.49-3.24-3.6,0-6.74.88-9.42,2.64-2.69,1.76-4.75,4.24-6.2,7.44-1.44,3.2-2.17,6.91-2.17,11.12s.72,7.91,2.17,11.08c1.45,3.17,3.51,5.64,6.2,7.4,2.68,1.76,5.82,2.64,9.42,2.64,8.71,0,14.31-4.51,16.79-13.52h10.18c-1.37,7.36-4.43,13.12-9.2,17.28Z"/>
      <path class="cls-2" d="M506.87,221.87l-4.33-15.28h-19.53l-4.41,15.28h-10.41l17.94-60h13.38l17.86,60h-10.49ZM485.51,197.79h14.52l-7.14-25.04h-.23l-7.14,25.04Z"/>
      <path class="cls-2" d="M531.11,221.87v-51.2h-16.79v-8.8h43.7v8.8h-16.8v51.2h-10.11Z"/>
      <path class="cls-2" d="M565.39,161.87h9.96v60h-9.96v-60Z"/>
      <path class="cls-2" d="M597.19,219.07c-4.33-2.67-7.7-6.37-10.11-11.12-2.41-4.75-3.61-10.11-3.61-16.08s1.2-11.32,3.61-16.04,5.78-8.41,10.11-11.08c4.33-2.67,9.26-4,14.78-4s10.45,1.33,14.78,4c4.33,2.67,7.7,6.36,10.11,11.08s3.61,10.07,3.61,16.04-1.21,11.33-3.61,16.08c-2.41,4.75-5.78,8.45-10.11,11.12-4.33,2.67-9.26,4-14.78,4s-10.45-1.33-14.78-4ZM621.55,210.43c2.73-1.76,4.85-4.24,6.35-7.44,1.49-3.2,2.24-6.88,2.24-11.04s-.75-7.92-2.24-11.12c-1.5-3.2-3.61-5.68-6.35-7.44-2.74-1.76-5.93-2.64-9.58-2.64s-6.84.88-9.58,2.64c-2.74,1.76-4.85,4.24-6.35,7.44-1.5,3.2-2.24,6.91-2.24,11.12s.75,7.84,2.24,11.04c1.49,3.2,3.61,5.68,6.35,7.44,2.74,1.76,5.93,2.64,9.58,2.64s6.84-.88,9.58-2.64Z"/>
      <path class="cls-2" d="M650.13,221.87v-60h10.49l24.85,42.8h.23v-42.8h9.58v60h-10.49l-24.85-42.8h-.23v42.8h-9.58Z"/>
    </g>
    <path class="cls-2" d="M197.56,188.49v29.7h-27.27v52.11h-33.48v-52.11H43.67v-24.3l93.15-126.09h33.48v120.69h27.27ZM84.43,188.49h52.38v-71.01l-52.38,71.01Z"/>
  </g>
</svg>