<?xml version="1.0" encoding="UTF-8"?>
<svg id="Layer_2" data-name="Layer 2" xmlns="http://www.w3.org/2000/svg" viewBox="0 0 943.22 943.22">
  <defs>
    <style>
      .cls-1 {
        fill: #d12166;
      }

      .cls-1, .cls-2 {
        stroke-width: 0px;
      }

      .cls-2 {
        fill: #fff;
      }
    </style>
  </defs>
  <g id="Layer_1-2" data-name="Layer 1">
    <rect class="cls-1" y="0" width="943.22" height="943.22"/>
    <g>
      <rect class="cls-2" x="384.81" y="541.56" width="190.11" height="48.81"/>
      <rect class="cls-2" x="384.81" y="618.67" width="190.11" height="48.81"/>
      <path class="cls-2" d="M686.78,663.12c5.79-24.03,7.74-48.08,6.32-71.53-2.03-11.53-4.88-23.05-8.67-34.49-10.79-32.58-27.87-61.28-49.38-85.31,30.3,34.48,48.72,79.66,48.72,129.17s-18.81,95.73-49.73,130.35c-35.87,40.17-88.02,65.49-146.12,65.49-108.16,0-195.84-87.68-195.84-195.84,0-33.5,8.43-65.03,23.25-92.6,34.36-55.33,95.65-92.19,165.57-92.19-3.69,0-7.34.16-10.98.36,81.73-.07,123.73,41.19,133.7,52.54l5.19-4.96,32.36-30.91c-41.57-40.89-98.53-66.18-161.31-66.18-126.92,0-230.19,103.26-230.19,230.19s103.26,230.19,230.19,230.19c54.07,0,103.81-18.79,143.13-50.11,30.33-30.45,52.97-69.32,63.78-114.16Z"/>
    </g>
    <g>
      <path class="cls-2" d="M367.71,90.06c-1.93,2.75-4.61,4.65-8.06,5.72l10.79,27.76h-10.72l-10.26-26.88h-8.89v26.88h-10.11v-60h22.65c3.6,0,6.71.71,9.35,2.12,2.63,1.41,4.65,3.39,6.04,5.92,1.39,2.53,2.09,5.43,2.09,8.68,0,3.79-.96,7.05-2.89,9.8ZM340.57,87.86h11.7c2.68,0,4.66-.73,5.93-2.2,1.27-1.47,1.9-3.32,1.9-5.56s-.62-4.09-1.86-5.56c-1.24-1.47-3.18-2.2-5.81-2.2h-11.86v15.52Z"/>
      <path class="cls-2" d="M388.07,114.74h26.68v8.8h-36.78v-60h35.8v8.8h-25.69v14.88h22.34v8.8h-22.34v18.72Z"/>
      <path class="cls-2" d="M456.25,67.3c4.36,2.51,7.68,6.01,9.96,10.52,2.28,4.51,3.42,9.72,3.42,15.64s-1.15,11.16-3.46,15.72c-2.31,4.56-5.61,8.09-9.92,10.6s-9.42,3.76-15.35,3.76h-18.24v-60h18.16c5.93,0,11.07,1.25,15.43,3.76ZM454.8,108.22c3.09-3.76,4.64-8.68,4.64-14.76s-1.56-10.93-4.67-14.72c-3.12-3.79-7.82-5.68-14.1-5.68h-8.13v40.8h8.21c6.28,0,10.97-1.88,14.06-5.64Z"/>
      <path class="cls-2" d="M522.71,112.7c-1.95,3.87-4.74,6.84-8.36,8.92-3.62,2.08-7.87,3.12-12.73,3.12s-9.03-1.04-12.65-3.12c-3.62-2.08-6.42-5.05-8.4-8.92-1.98-3.87-2.96-8.41-2.96-13.64v-35.52h10.11v36.24c0,4.64,1.23,8.35,3.69,11.12,2.46,2.77,5.86,4.16,10.22,4.16s7.76-1.39,10.22-4.16c2.46-2.77,3.69-6.48,3.69-11.12v-36.24h10.11v35.52c0,5.23-.98,9.77-2.93,13.64Z"/>
      <path class="cls-2" d="M579.52,118.5c-4.76,4.16-10.69,6.24-17.78,6.24-5.47,0-10.34-1.33-14.59-4-4.26-2.67-7.58-6.36-9.96-11.08-2.38-4.72-3.57-10.09-3.57-16.12s1.19-11.4,3.57-16.12c2.38-4.72,5.7-8.4,9.96-11.04,4.26-2.64,9.12-3.96,14.59-3.96,6.99,0,12.87,2.03,17.63,6.08,4.76,4.05,7.88,9.65,9.35,16.8h-10.34c-1.42-4.27-3.47-7.48-6.16-9.64-2.69-2.16-6.18-3.24-10.49-3.24-3.6,0-6.74.88-9.42,2.64-2.69,1.76-4.75,4.24-6.19,7.44s-2.17,6.91-2.17,11.12.72,7.91,2.17,11.08c1.44,3.17,3.51,5.64,6.19,7.4,2.68,1.76,5.83,2.64,9.42,2.64,8.71,0,14.31-4.51,16.8-13.52h10.18c-1.37,7.36-4.43,13.12-9.2,17.28Z"/>
      <path class="cls-2" d="M608.32,114.74h26.68v8.8h-36.78v-60h35.8v8.8h-25.69v14.88h22.34v8.8h-22.34v18.72Z"/>
      <path class="cls-2" d="M676.49,67.3c4.36,2.51,7.68,6.01,9.96,10.52,2.28,4.51,3.42,9.72,3.42,15.64s-1.15,11.16-3.46,15.72c-2.31,4.56-5.61,8.09-9.92,10.6s-9.42,3.76-15.35,3.76h-18.24v-60h18.16c5.93,0,11.07,1.25,15.43,3.76ZM675.05,108.22c3.09-3.76,4.64-8.68,4.64-14.76s-1.56-10.93-4.67-14.72c-3.12-3.79-7.82-5.68-14.1-5.68h-8.13v40.8h8.21c6.28,0,10.97-1.88,14.06-5.64Z"/>
      <path class="cls-2" d="M330.47,153.54h9.96v60h-9.96v-60Z"/>
      <path class="cls-2" d="M350.61,213.54v-60h10.49l24.85,42.8h.23v-42.8h9.58v60h-10.49l-24.85-42.8h-.23v42.8h-9.58Z"/>
      <path class="cls-2" d="M416.04,204.74h26.68v8.8h-36.78v-60h35.8v8.8h-25.69v14.88h22.34v8.8h-22.34v18.72Z"/>
      <path class="cls-2" d="M503.59,195.78c-1.32,3.79-3.22,7.07-5.7,9.84l7.3,7.92h-10.49l-2.74-2.88c-4.41,2.72-9.37,4.08-14.9,4.08s-10.45-1.33-14.78-4c-4.33-2.67-7.7-6.37-10.11-11.12-2.41-4.75-3.61-10.11-3.61-16.08s1.2-11.32,3.61-16.04c2.41-4.72,5.78-8.41,10.11-11.08,4.33-2.67,9.26-4,14.78-4s10.45,1.33,14.78,4c4.33,2.67,7.7,6.36,10.11,11.08,2.41,4.72,3.61,10.07,3.61,16.04,0,4.37-.66,8.45-1.98,12.24ZM461.15,194.66c1.49,3.2,3.61,5.68,6.35,7.44,2.74,1.76,5.93,2.64,9.58,2.64,2.79,0,5.34-.53,7.68-1.6l-12.24-13.04h11.02l7.37,8c2.89-3.79,4.33-8.61,4.33-14.48,0-4.21-.75-7.92-2.24-11.12-1.5-3.2-3.61-5.68-6.35-7.44-2.74-1.76-5.93-2.64-9.58-2.64s-6.84.88-9.58,2.64c-2.74,1.76-4.85,4.24-6.35,7.44-1.5,3.2-2.24,6.91-2.24,11.12s.75,7.84,2.24,11.04Z"/>
      <path class="cls-2" d="M558.66,202.7c-1.95,3.87-4.74,6.84-8.36,8.92-3.62,2.08-7.87,3.12-12.73,3.12s-9.03-1.04-12.65-3.12c-3.62-2.08-6.42-5.05-8.4-8.92-1.98-3.87-2.96-8.41-2.96-13.64v-35.52h10.11v36.24c0,4.64,1.23,8.35,3.69,11.12,2.46,2.77,5.86,4.16,10.22,4.16s7.76-1.39,10.22-4.16c2.46-2.77,3.69-6.48,3.69-11.12v-36.24h10.11v35.52c0,5.23-.98,9.77-2.93,13.64Z"/>
      <path class="cls-2" d="M603.46,213.54l-4.33-15.28h-19.53l-4.41,15.28h-10.41l17.94-60h13.38l17.86,60h-10.49ZM582.1,189.46h14.52l-7.14-25.04h-.23l-7.14,25.04Z"/>
      <path class="cls-2" d="M631.2,204.74h25.46v8.8h-35.57v-60h10.11v51.2Z"/>
      <path class="cls-2" d="M664.49,153.54h9.96v60h-9.96v-60Z"/>
      <path class="cls-2" d="M698.61,213.54v-51.2h-16.8v-8.8h43.7v8.8h-16.8v51.2h-10.11Z"/>
      <path class="cls-2" d="M732.89,153.54h9.96v60h-9.96v-60Z"/>
      <path class="cls-2" d="M763.13,204.74h26.68v8.8h-36.78v-60h35.8v8.8h-25.69v14.88h22.34v8.8h-22.34v18.72Z"/>
      <path class="cls-2" d="M801.74,208.86c-4.16-3.87-6.31-9.21-6.46-16.04h10.49c.1,3.95,1.33,7.03,3.69,9.24,2.36,2.21,5.54,3.32,9.54,3.32,3.34,0,6.05-.8,8.13-2.4,2.08-1.6,3.12-3.71,3.12-6.32,0-2.08-.43-3.75-1.29-5-.86-1.25-2.25-2.23-4.18-2.92-1.93-.69-4.59-1.2-7.98-1.52-6.64-.59-11.58-2.29-14.82-5.12-3.24-2.83-4.86-6.85-4.86-12.08,0-3.52.84-6.61,2.51-9.28,1.67-2.67,4.03-4.72,7.07-6.16s6.56-2.16,10.56-2.16c6.59,0,11.79,1.69,15.62,5.08,3.83,3.39,5.89,8.17,6.19,14.36h-10.41c-.25-3.31-1.34-5.85-3.27-7.64-1.93-1.79-4.59-2.68-7.98-2.68-3.14,0-5.64.71-7.49,2.12-1.85,1.41-2.77,3.32-2.77,5.72,0,1.97.43,3.55,1.29,4.72.86,1.17,2.27,2.09,4.22,2.76,1.95.67,4.6,1.13,7.94,1.4,6.74.59,11.7,2.29,14.9,5.12,3.19,2.83,4.79,6.99,4.79,12.48,0,3.79-.87,7.11-2.62,9.96-1.75,2.85-4.26,5.04-7.52,6.56-3.27,1.52-7.08,2.28-11.44,2.28-7.14,0-12.79-1.93-16.95-5.8Z"/>
    </g>
    <g>
      <path class="cls-2" d="M81.86,67.79h28.62v202.5h-33.75V102.62l-41.58,15.66v-31.59l46.71-18.9Z"/>
      <path class="cls-2" d="M272.48,239.65c-5.76,10.89-14,19.4-24.71,25.51-10.71,6.12-23.08,9.18-37.12,9.18s-26.1-3.06-36.72-9.18c-10.62-6.12-18.86-14.62-24.71-25.51-5.85-10.89-8.78-23.26-8.78-37.12v-66.96c0-13.5,2.92-25.69,8.78-36.58,5.85-10.89,14.08-19.44,24.71-25.65,10.62-6.21,22.86-9.32,36.72-9.32s26.41,3.11,37.12,9.32c10.71,6.21,18.94,14.76,24.71,25.65,5.76,10.89,8.64,23.08,8.64,36.58v66.96c0,13.86-2.88,26.24-8.64,37.12ZM183.65,232.09c6.48,7.11,15.48,10.67,27,10.67s21.01-3.55,27.41-10.67c6.39-7.11,9.58-16.69,9.58-28.75v-68.31c0-12.06-3.24-21.64-9.72-28.76-6.48-7.11-15.57-10.67-27.27-10.67s-20.3,3.6-26.87,10.8c-6.57,7.2-9.85,16.74-9.85,28.62v68.31c0,12.06,3.24,21.65,9.72,28.75Z"/>
    </g>
  </g>
</svg>