<?xml version="1.0" encoding="UTF-8"?>
<svg id="Layer_2" data-name="Layer 2" xmlns="http://www.w3.org/2000/svg" viewBox="0 0 943.22 943.22">
  <defs>
    <style>
      .cls-1 {
        fill: #fff;
      }

      .cls-1, .cls-2 {
        stroke-width: 0px;
      }

      .cls-2 {
        fill: #be8b2c;
      }
    </style>
  </defs>
  <g id="Layer_1-2" data-name="Layer 1">
    <rect class="cls-2" y="0" width="943.22" height="943.22"/>
    <path class="cls-1" d="M634.42,454.47c-62.19-5.62-117.55,26.95-145.26,76.89-.29.53-.28,1.18.04,1.7l32.37,52.19c.79,1.27,2.68.89,2.98-.58,9.55-47.6,53.57-82.88,104.88-78.32,47.93,4.26,86.34,44.13,88.95,92.18,3.06,56.49-42.02,103.44-97.86,103.44-16.79,0-32.6-4.25-46.43-11.73-8.27-5.71-15.47-10.99-21.88-16.14-32.53-26.15-44.76-49.07-74.55-109.13-.44-.89-.9-1.72-1.35-2.6-15.2-29.71-33.96-51.02-52.13-66.2-17.35-15.94-38.47-27.81-61.83-34.22-.98-.29-1.9-.56-2.67-.77-1.99-.54-3.28-.83-3.66-.92v.07c-20.24-4.6-41.94-5.26-64.42-.47-67.03,14.26-116.73,73.4-118.94,141.9-2.74,85.02,65.63,155.05,150.04,155.05,33.14,0,63.79-10.82,88.66-29.07l25.49,21.85c.88.76,2.25.21,2.36-.95l5.3-54.35,5.17-53.07c.1-.99-.82-1.78-1.78-1.53l-37,9.48-67.55,17.3c-1.13.29-1.46,1.72-.58,2.48l27.36,23.45c-18.07,10.04-39.6,14.58-62.35,11.18-43.41-6.5-77.74-42.33-82.48-85.97-6.4-58.91,39.77-108.92,97.41-108.92,9.13,0,17.93,1.35,26.32,3.69,1.32.37,2.57.91,3.87,1.33,8.07,2.94,20.95,8.84,35.04,20.05,14.6,11.61,30.36,28.82,43.04,54.38,13.25,26.7,23.78,47.34,34.52,64.82,14.29,23.26,29.05,40.87,51.02,59.11,9.04,8.7,19.15,16.27,30.13,22.51,1.62,1.11,3.12,2.18,4.8,3.31l.35-.52c20.61,10.66,43.96,16.72,68.72,16.72,88.43,0,159.25-76.86,149.16-167.28-7.82-70.07-65.05-125.98-135.27-132.33Z"/>
    <g>
      <path class="cls-1" d="M363.1,90.06c-1.82,2.75-4.37,4.65-7.63,5.72l10.22,27.76h-10.15l-9.72-26.88h-8.42v26.88h-9.58v-60h21.46c3.41,0,6.36.71,8.86,2.12,2.5,1.41,4.4,3.39,5.72,5.92,1.32,2.53,1.98,5.43,1.98,8.68,0,3.79-.91,7.05-2.74,9.8ZM337.4,87.86h11.09c2.54,0,4.42-.73,5.62-2.2,1.2-1.47,1.8-3.32,1.8-5.56s-.59-4.09-1.76-5.56c-1.18-1.47-3.01-2.2-5.51-2.2h-11.23v15.52Z"/>
      <path class="cls-1" d="M382.4,114.74h25.27v8.8h-34.85v-60h33.91v8.8h-24.34v14.88h21.17v8.8h-21.17v18.72Z"/>
      <path class="cls-1" d="M418.97,118.86c-3.94-3.87-5.98-9.21-6.12-16.04h9.94c.1,3.95,1.26,7.03,3.49,9.24,2.23,2.21,5.24,3.32,9.04,3.32,3.17,0,5.74-.8,7.7-2.4,1.97-1.6,2.95-3.71,2.95-6.32,0-2.08-.41-3.75-1.22-5-.82-1.25-2.14-2.23-3.96-2.92-1.83-.69-4.34-1.2-7.56-1.52-6.29-.59-10.97-2.29-14.04-5.12-3.07-2.83-4.61-6.85-4.61-12.08,0-3.52.79-6.61,2.38-9.28,1.58-2.67,3.82-4.72,6.7-6.16s6.21-2.16,10.01-2.16c6.24,0,11.17,1.69,14.8,5.08,3.62,3.39,5.58,8.17,5.87,14.36h-9.86c-.24-3.31-1.27-5.85-3.1-7.64-1.83-1.79-4.34-2.68-7.56-2.68-2.98,0-5.34.71-7.09,2.12-1.75,1.41-2.63,3.32-2.63,5.72,0,1.97.41,3.55,1.22,4.72.82,1.17,2.15,2.09,4,2.76s4.36,1.13,7.52,1.4c6.38.59,11.09,2.29,14.11,5.12,3.02,2.83,4.54,6.99,4.54,12.48,0,3.79-.83,7.11-2.48,9.96-1.66,2.85-4.03,5.04-7.13,6.56-3.1,1.52-6.71,2.28-10.84,2.28-6.77,0-12.12-1.93-16.06-5.8Z"/>
      <path class="cls-1" d="M496.19,68.06c2.86,3.01,4.28,7,4.28,11.96,0,3.25-.64,6.15-1.91,8.68-1.27,2.53-3.11,4.49-5.51,5.88-2.4,1.39-5.23,2.08-8.5,2.08h-12.53v26.88h-9.58v-60h22.03c4.94,0,8.84,1.51,11.7,4.52ZM489.21,85.66c1.13-1.47,1.69-3.35,1.69-5.64s-.55-4.01-1.66-5.48c-1.11-1.47-2.79-2.2-5.04-2.2h-12.17v15.52h11.95c2.35,0,4.09-.73,5.22-2.2Z"/>
      <path class="cls-1" d="M518.44,120.74c-4.1-2.67-7.3-6.37-9.58-11.12-2.28-4.75-3.42-10.11-3.42-16.08s1.14-11.32,3.42-16.04c2.28-4.72,5.47-8.41,9.58-11.08,4.1-2.67,8.77-4,14-4s9.9,1.33,14,4c4.1,2.67,7.3,6.36,9.58,11.08,2.28,4.72,3.42,10.07,3.42,16.04s-1.14,11.33-3.42,16.08c-2.28,4.75-5.47,8.45-9.58,11.12-4.1,2.67-8.77,4-14,4s-9.9-1.33-14-4ZM541.52,112.1c2.59-1.76,4.6-4.24,6.01-7.44,1.42-3.2,2.12-6.88,2.12-11.04s-.71-7.92-2.12-11.12c-1.42-3.2-3.42-5.68-6.01-7.44-2.59-1.76-5.62-2.64-9.07-2.64s-6.48.88-9.07,2.64c-2.59,1.76-4.6,4.24-6.01,7.44-1.42,3.2-2.12,6.91-2.12,11.12s.71,7.84,2.12,11.04c1.42,3.2,3.42,5.68,6.01,7.44,2.59,1.76,5.62,2.64,9.07,2.64s6.48-.88,9.07-2.64Z"/>
      <path class="cls-1" d="M568.59,123.54v-60h9.94l23.54,42.8h.22v-42.8h9.07v60h-9.94l-23.54-42.8h-.22v42.8h-9.07Z"/>
      <path class="cls-1" d="M624.82,118.86c-3.94-3.87-5.98-9.21-6.12-16.04h9.94c.1,3.95,1.26,7.03,3.49,9.24,2.23,2.21,5.24,3.32,9.04,3.32,3.17,0,5.74-.8,7.7-2.4,1.97-1.6,2.95-3.71,2.95-6.32,0-2.08-.41-3.75-1.22-5-.82-1.25-2.14-2.23-3.96-2.92-1.83-.69-4.34-1.2-7.56-1.52-6.29-.59-10.97-2.29-14.04-5.12-3.07-2.83-4.61-6.85-4.61-12.08,0-3.52.79-6.61,2.38-9.28,1.58-2.67,3.82-4.72,6.7-6.16s6.21-2.16,10.01-2.16c6.24,0,11.17,1.69,14.8,5.08,3.62,3.39,5.58,8.17,5.87,14.36h-9.86c-.24-3.31-1.27-5.85-3.1-7.64-1.83-1.79-4.34-2.68-7.56-2.68-2.98,0-5.34.71-7.09,2.12-1.75,1.41-2.63,3.32-2.63,5.72,0,1.97.41,3.55,1.22,4.72.82,1.17,2.15,2.09,4,2.76s4.36,1.13,7.52,1.4c6.38.59,11.09,2.29,14.11,5.12,3.02,2.83,4.54,6.99,4.54,12.48,0,3.79-.83,7.11-2.48,9.96-1.66,2.85-4.03,5.04-7.13,6.56-3.1,1.52-6.71,2.28-10.84,2.28-6.77,0-12.12-1.93-16.06-5.8Z"/>
      <path class="cls-1" d="M668.31,63.54h9.43v60h-9.43v-60Z"/>
      <path class="cls-1" d="M723.68,96.02c1.54,2.51,2.3,5.49,2.3,8.96,0,3.73-.77,7-2.3,9.8-1.54,2.8-3.74,4.96-6.62,6.48-2.88,1.52-6.24,2.28-10.08,2.28h-19.58v-60h20.81c4.94,0,8.83,1.35,11.66,4.04,2.83,2.69,4.25,6.36,4.25,11,0,2.67-.61,5.04-1.84,7.12s-2.92,3.68-5.08,4.8c2.78,1.17,4.94,3.01,6.48,5.52ZM713.1,74.26c-1.34-1.28-3.29-1.92-5.83-1.92h-10.73v14.8h10.66c2.45,0,4.38-.67,5.8-2,1.42-1.33,2.12-3.12,2.12-5.36,0-2.4-.67-4.24-2.02-5.52ZM713.99,112.1c1.85-1.76,2.77-4.13,2.77-7.12s-.89-5.19-2.66-6.76c-1.78-1.57-4.32-2.36-7.63-2.36h-9.94v18.88h9.86c3.21,0,5.75-.88,7.6-2.64Z"/>
      <path class="cls-1" d="M742.33,114.74h24.12v8.8h-33.7v-60h9.58v51.2Z"/>
      <path class="cls-1" d="M783.44,114.74h25.27v8.8h-34.85v-60h33.91v8.8h-24.34v14.88h21.17v8.8h-21.17v18.72Z"/>
      <path class="cls-1" d="M369.37,208.5c-4.51,4.16-10.13,6.24-16.85,6.24-5.18,0-9.79-1.33-13.82-4-4.03-2.67-7.18-6.36-9.43-11.08-2.26-4.72-3.38-10.09-3.38-16.12s1.13-11.4,3.38-16.12c2.26-4.72,5.4-8.4,9.43-11.04,4.03-2.64,8.64-3.96,13.82-3.96,6.62,0,12.19,2.03,16.7,6.08,4.51,4.05,7.46,9.65,8.86,16.8h-9.79c-1.34-4.27-3.29-7.48-5.83-9.64-2.54-2.16-5.86-3.24-9.94-3.24-3.41,0-6.38.88-8.93,2.64-2.54,1.76-4.5,4.24-5.87,7.44-1.37,3.2-2.05,6.91-2.05,11.12s.68,7.91,2.05,11.08c1.37,3.17,3.32,5.64,5.87,7.4,2.54,1.76,5.52,2.64,8.93,2.64,8.26,0,13.56-4.51,15.91-13.52h9.65c-1.3,7.36-4.2,13.12-8.71,17.28Z"/>
      <path class="cls-1" d="M397.41,210.74c-4.1-2.67-7.3-6.37-9.58-11.12-2.28-4.75-3.42-10.11-3.42-16.08s1.14-11.32,3.42-16.04c2.28-4.72,5.47-8.41,9.58-11.08,4.1-2.67,8.77-4,14-4s9.9,1.33,14,4c4.1,2.67,7.3,6.36,9.58,11.08,2.28,4.72,3.42,10.07,3.42,16.04s-1.14,11.33-3.42,16.08c-2.28,4.75-5.47,8.45-9.58,11.12-4.1,2.67-8.77,4-14,4s-9.9-1.33-14-4ZM420.49,202.1c2.59-1.76,4.6-4.24,6.01-7.44,1.42-3.2,2.12-6.88,2.12-11.04s-.71-7.92-2.12-11.12c-1.42-3.2-3.42-5.68-6.01-7.44-2.59-1.76-5.62-2.64-9.07-2.64s-6.48.88-9.07,2.64c-2.59,1.76-4.6,4.24-6.01,7.44-1.42,3.2-2.12,6.91-2.12,11.12s.71,7.84,2.12,11.04c1.42,3.2,3.42,5.68,6.01,7.44,2.59,1.76,5.62,2.64,9.07,2.64s6.48-.88,9.07-2.64Z"/>
      <path class="cls-1" d="M447.56,213.54v-60h9.94l23.54,42.8h.22v-42.8h9.07v60h-9.94l-23.54-42.8h-.22v42.8h-9.07Z"/>
      <path class="cls-1" d="M503.79,208.86c-3.94-3.87-5.98-9.21-6.12-16.04h9.94c.1,3.95,1.26,7.03,3.49,9.24,2.23,2.21,5.24,3.32,9.04,3.32,3.17,0,5.74-.8,7.7-2.4,1.97-1.6,2.95-3.71,2.95-6.32,0-2.08-.41-3.75-1.22-5-.82-1.25-2.14-2.23-3.96-2.92-1.83-.69-4.34-1.2-7.56-1.52-6.29-.59-10.97-2.29-14.04-5.12-3.07-2.83-4.61-6.85-4.61-12.08,0-3.52.79-6.61,2.38-9.28,1.58-2.67,3.82-4.72,6.7-6.16s6.21-2.16,10.01-2.16c6.24,0,11.17,1.69,14.8,5.08,3.62,3.39,5.58,8.17,5.87,14.36h-9.86c-.24-3.31-1.27-5.85-3.1-7.64-1.83-1.79-4.34-2.68-7.56-2.68-2.98,0-5.34.71-7.09,2.12-1.75,1.41-2.63,3.32-2.63,5.72,0,1.97.41,3.55,1.22,4.72.82,1.17,2.15,2.09,4,2.76s4.36,1.13,7.52,1.4c6.38.59,11.09,2.29,14.11,5.12,3.02,2.83,4.54,6.99,4.54,12.48,0,3.79-.83,7.11-2.48,9.96-1.66,2.85-4.03,5.04-7.13,6.56-3.1,1.52-6.71,2.28-10.84,2.28-6.77,0-12.12-1.93-16.06-5.8Z"/>
      <path class="cls-1" d="M589.15,202.7c-1.85,3.87-4.49,6.84-7.92,8.92-3.43,2.08-7.45,3.12-12.06,3.12s-8.56-1.04-11.99-3.12-6.08-5.05-7.96-8.92c-1.87-3.87-2.81-8.41-2.81-13.64v-35.52h9.58v36.24c0,4.64,1.16,8.35,3.49,11.12,2.33,2.77,5.55,4.16,9.68,4.16s7.36-1.39,9.68-4.16c2.33-2.77,3.49-6.48,3.49-11.12v-36.24h9.58v35.52c0,5.23-.92,9.77-2.77,13.64Z"/>
      <path class="cls-1" d="M600.7,213.54v-60h14.54l13.82,44.4h.22l13.9-44.4h14.47v60h-9.58v-45.44h-.22l-14.83,45.12h-7.7l-14.83-45.12h-.22v45.44h-9.58Z"/>
      <path class="cls-1" d="M701.03,158.06c2.86,3.01,4.28,7,4.28,11.96,0,3.25-.64,6.15-1.91,8.68-1.27,2.53-3.11,4.49-5.51,5.88-2.4,1.39-5.23,2.08-8.5,2.08h-12.53v26.88h-9.58v-60h22.03c4.94,0,8.84,1.51,11.7,4.52ZM694.05,175.66c1.13-1.47,1.69-3.35,1.69-5.64s-.55-4.01-1.66-5.48c-1.11-1.47-2.79-2.2-5.04-2.2h-12.17v15.52h11.95c2.35,0,4.09-.73,5.22-2.2Z"/>
      <path class="cls-1" d="M724.04,213.54v-51.2h-15.91v-8.8h41.4v8.8h-15.91v51.2h-9.58Z"/>
      <path class="cls-1" d="M756.51,153.54h9.43v60h-9.43v-60Z"/>
      <path class="cls-1" d="M786.64,210.74c-4.1-2.67-7.3-6.37-9.58-11.12-2.28-4.75-3.42-10.11-3.42-16.08s1.14-11.32,3.42-16.04c2.28-4.72,5.47-8.41,9.58-11.08,4.1-2.67,8.77-4,14-4s9.9,1.33,14,4c4.1,2.67,7.3,6.36,9.58,11.08,2.28,4.72,3.42,10.07,3.42,16.04s-1.14,11.33-3.42,16.08c-2.28,4.75-5.47,8.45-9.58,11.12-4.1,2.67-8.77,4-14,4s-9.9-1.33-14-4ZM809.72,202.1c2.59-1.76,4.6-4.24,6.01-7.44,1.42-3.2,2.12-6.88,2.12-11.04s-.71-7.92-2.12-11.12c-1.42-3.2-3.42-5.68-6.01-7.44-2.59-1.76-5.62-2.64-9.07-2.64s-6.48.88-9.07,2.64c-2.59,1.76-4.6,4.24-6.01,7.44-1.42,3.2-2.12,6.91-2.12,11.12s.71,7.84,2.12,11.04c1.42,3.2,3.42,5.68,6.01,7.44,2.59,1.76,5.62,2.64,9.07,2.64s6.48-.88,9.07-2.64Z"/>
      <path class="cls-1" d="M836.79,213.54v-60h9.94l23.54,42.8h.22v-42.8h9.07v60h-9.94l-23.54-42.8h-.22v42.8h-9.07Z"/>
      <path class="cls-1" d="M361.59,303.54l-4.1-15.28h-18.5l-4.18,15.28h-9.86l16.99-60h12.67l16.92,60h-9.94ZM341.36,279.46h13.75l-6.77-25.04h-.22l-6.77,25.04Z"/>
      <path class="cls-1" d="M378.29,303.54v-60h9.94l23.54,42.8h.22v-42.8h9.07v60h-9.94l-23.54-42.8h-.22v42.8h-9.07Z"/>
      <path class="cls-1" d="M462.53,247.3c4.13,2.51,7.27,6.01,9.43,10.52s3.24,9.72,3.24,15.64-1.09,11.16-3.28,15.72c-2.18,4.56-5.32,8.09-9.4,10.6-4.08,2.51-8.93,3.76-14.54,3.76h-17.28v-60h17.21c5.62,0,10.49,1.25,14.62,3.76ZM461.17,288.22c2.93-3.76,4.39-8.68,4.39-14.76s-1.48-10.93-4.43-14.72c-2.95-3.79-7.41-5.68-13.36-5.68h-7.7v40.8h7.78c5.95,0,10.39-1.88,13.32-5.64Z"/>
      <path class="cls-1" d="M361.55,338.06c2.86,3.01,4.28,7,4.28,11.96,0,3.25-.64,6.15-1.91,8.68-1.27,2.53-3.11,4.49-5.51,5.88-2.4,1.39-5.23,2.08-8.5,2.08h-12.53v26.88h-9.58v-60h22.03c4.94,0,8.84,1.51,11.7,4.52ZM354.57,355.66c1.13-1.47,1.69-3.35,1.69-5.64s-.55-4.01-1.66-5.48c-1.11-1.47-2.79-2.2-5.04-2.2h-12.17v15.52h11.95c2.35,0,4.09-.73,5.22-2.2Z"/>
      <path class="cls-1" d="M407.31,360.06c-1.82,2.75-4.37,4.65-7.63,5.72l10.22,27.76h-10.15l-9.72-26.88h-8.42v26.88h-9.58v-60h21.46c3.41,0,6.36.71,8.86,2.12,2.5,1.41,4.4,3.39,5.72,5.92,1.32,2.53,1.98,5.43,1.98,8.68,0,3.79-.91,7.05-2.74,9.8ZM381.61,357.86h11.09c2.54,0,4.42-.73,5.62-2.2,1.2-1.47,1.8-3.32,1.8-5.56s-.59-4.09-1.76-5.56c-1.18-1.47-3.01-2.2-5.51-2.2h-11.23v15.52Z"/>
      <path class="cls-1" d="M428.08,390.74c-4.1-2.67-7.3-6.37-9.58-11.12-2.28-4.75-3.42-10.11-3.42-16.08s1.14-11.32,3.42-16.04c2.28-4.72,5.47-8.41,9.58-11.08,4.1-2.67,8.77-4,14-4s9.9,1.33,14,4c4.1,2.67,7.3,6.36,9.58,11.08,2.28,4.72,3.42,10.07,3.42,16.04s-1.14,11.33-3.42,16.08c-2.28,4.75-5.47,8.45-9.58,11.12-4.1,2.67-8.77,4-14,4s-9.9-1.33-14-4ZM451.16,382.1c2.59-1.76,4.6-4.24,6.01-7.44,1.42-3.2,2.12-6.88,2.12-11.04s-.71-7.92-2.12-11.12c-1.42-3.2-3.42-5.68-6.01-7.44-2.59-1.76-5.62-2.64-9.07-2.64s-6.48.88-9.07,2.64c-2.59,1.76-4.6,4.24-6.01,7.44-1.42,3.2-2.12,6.91-2.12,11.12s.71,7.84,2.12,11.04c1.42,3.2,3.42,5.68,6.01,7.44,2.59,1.76,5.62,2.64,9.07,2.64s6.48-.88,9.07-2.64Z"/>
      <path class="cls-1" d="M510.06,337.3c4.13,2.51,7.27,6.01,9.43,10.52s3.24,9.72,3.24,15.64-1.09,11.16-3.28,15.72c-2.18,4.56-5.32,8.09-9.4,10.6-4.08,2.51-8.93,3.76-14.54,3.76h-17.28v-60h17.21c5.62,0,10.49,1.25,14.62,3.76ZM508.69,378.22c2.93-3.76,4.39-8.68,4.39-14.76s-1.48-10.93-4.43-14.72c-2.95-3.79-7.41-5.68-13.36-5.68h-7.7v40.8h7.78c5.95,0,10.39-1.88,13.32-5.64Z"/>
      <path class="cls-1" d="M573.02,382.7c-1.85,3.87-4.49,6.84-7.92,8.92-3.43,2.08-7.45,3.12-12.06,3.12s-8.56-1.04-11.99-3.12-6.08-5.05-7.96-8.92c-1.87-3.87-2.81-8.41-2.81-13.64v-35.52h9.58v36.24c0,4.64,1.16,8.35,3.49,11.12,2.33,2.77,5.55,4.16,9.68,4.16s7.36-1.39,9.68-4.16c2.33-2.77,3.49-6.48,3.49-11.12v-36.24h9.58v35.52c0,5.23-.92,9.77-2.77,13.64Z"/>
      <path class="cls-1" d="M626.84,388.5c-4.51,4.16-10.13,6.24-16.85,6.24-5.18,0-9.79-1.33-13.82-4-4.03-2.67-7.18-6.36-9.43-11.08-2.26-4.72-3.38-10.09-3.38-16.12s1.13-11.4,3.38-16.12c2.26-4.72,5.4-8.4,9.43-11.04,4.03-2.64,8.64-3.96,13.82-3.96,6.62,0,12.19,2.03,16.7,6.08,4.51,4.05,7.46,9.65,8.86,16.8h-9.79c-1.34-4.27-3.29-7.48-5.83-9.64-2.54-2.16-5.86-3.24-9.94-3.24-3.41,0-6.38.88-8.93,2.64-2.54,1.76-4.5,4.24-5.87,7.44-1.37,3.2-2.05,6.91-2.05,11.12s.68,7.91,2.05,11.08c1.37,3.17,3.32,5.64,5.87,7.4,2.54,1.76,5.52,2.64,8.93,2.64,8.26,0,13.56-4.51,15.91-13.52h9.65c-1.3,7.36-4.2,13.12-8.71,17.28Z"/>
      <path class="cls-1" d="M652.4,393.54v-51.2h-15.91v-8.8h41.4v8.8h-15.91v51.2h-9.58Z"/>
      <path class="cls-1" d="M684.87,333.54h9.43v60h-9.43v-60Z"/>
      <path class="cls-1" d="M715,390.74c-4.1-2.67-7.3-6.37-9.58-11.12-2.28-4.75-3.42-10.11-3.42-16.08s1.14-11.32,3.42-16.04c2.28-4.72,5.47-8.41,9.58-11.08,4.1-2.67,8.77-4,14-4s9.9,1.33,14,4c4.1,2.67,7.3,6.36,9.58,11.08,2.28,4.72,3.42,10.07,3.42,16.04s-1.14,11.33-3.42,16.08c-2.28,4.75-5.47,8.45-9.58,11.12-4.1,2.67-8.77,4-14,4s-9.9-1.33-14-4ZM738.08,382.1c2.59-1.76,4.6-4.24,6.01-7.44,1.42-3.2,2.12-6.88,2.12-11.04s-.71-7.92-2.12-11.12c-1.42-3.2-3.42-5.68-6.01-7.44-2.59-1.76-5.62-2.64-9.07-2.64s-6.48.88-9.07,2.64c-2.59,1.76-4.6,4.24-6.01,7.44-1.42,3.2-2.12,6.91-2.12,11.12s.71,7.84,2.12,11.04c1.42,3.2,3.42,5.68,6.01,7.44,2.59,1.76,5.62,2.64,9.07,2.64s6.48-.88,9.07-2.64Z"/>
      <path class="cls-1" d="M765.15,393.54v-60h9.94l23.54,42.8h.22v-42.8h9.07v60h-9.94l-23.54-42.8h-.22v42.8h-9.07Z"/>
    </g>
    <g>
      <path class="cls-1" d="M94.3,67.79h28.62v202.5h-33.75V102.62l-41.58,15.66v-31.59l46.71-18.9Z"/>
      <path class="cls-1" d="M279.52,239.24v31.05h-130.41v-27.81l76.41-84.24c6.12-6.66,10.4-12.64,12.83-17.96,2.43-5.31,3.65-10.67,3.65-16.07,0-8.28-2.48-15.12-7.43-20.52-4.95-5.4-12.2-8.1-21.73-8.1s-16.97,2.93-22.28,8.78c-5.31,5.85-7.96,13.01-7.96,21.46v3.51h-33.48v-3.51c0-11.52,2.61-21.96,7.83-31.32,5.22-9.36,12.73-16.78,22.54-22.28,9.81-5.49,21.37-8.24,34.7-8.24s24.44,2.66,33.88,7.96c9.45,5.31,16.65,12.47,21.6,21.47,4.95,9,7.42,18.99,7.42,29.97,0,9.9-2.03,19.13-6.08,27.67-4.05,8.55-11.12,18.41-21.2,29.57l-52.92,58.59h82.62Z"/>
    </g>
  </g>
</svg>