<?xml version="1.0" encoding="UTF-8"?>
<svg id="Layer_2" data-name="Layer 2" xmlns="http://www.w3.org/2000/svg" viewBox="0 0 943.22 943.22">
  <defs>
    <style>
      .cls-1 {
        fill: #fff;
      }

      .cls-1, .cls-2 {
        stroke-width: 0px;
      }

      .cls-2 {
        fill: #f2982e;
      }
    </style>
  </defs>
  <g id="Layer_1-2" data-name="Layer 1">
    <rect class="cls-2" y="0" width="943.22" height="943.22"/>
    <g>
      <rect class="cls-1" x="627.4" y="652.63" width="149.95" height="36.28" rx="1.64" ry="1.64"/>
      <path class="cls-1" d="M142.04,726.89v115.64c0,.91.73,1.64,1.64,1.64h47.56c.91,0,1.64-.74,1.64-1.64v-67.38c0-.91.73-1.64,1.64-1.64h41.53c.91,0,1.64.74,1.64,1.64v67.38c0,.91.73,1.64,1.64,1.64h51.01c.91,0,1.64-.74,1.64-1.64v-115.64c0-.91-.74-1.64-1.64-1.64h-146.67c-.91,0-1.64.73-1.64,1.64Z"/>
      <path class="cls-1" d="M215.28,613.23l-74.71,96.07c-.84,1.08-.07,2.65,1.3,2.65h149.41c1.37,0,2.13-1.57,1.3-2.65l-74.71-96.07c-.66-.85-1.93-.85-2.59,0Z"/>
      <path class="cls-1" d="M450.58,371.35h-140.77c-.91,0-1.64.74-1.64,1.64v469.55c0,.91.73,1.64,1.64,1.64h140.77c.91,0,1.64-.73,1.64-1.64v-469.55c0-.91-.74-1.64-1.64-1.64ZM367.77,790.02c0,.91-.74,1.64-1.64,1.64h-31.5c-.91,0-1.64-.73-1.64-1.64v-31.5c0-.91.73-1.64,1.64-1.64h31.5c.91,0,1.64.74,1.64,1.64v31.5ZM367.77,710.01c0,.91-.74,1.64-1.64,1.64h-31.5c-.91,0-1.64-.73-1.64-1.64v-31.5c0-.91.73-1.64,1.64-1.64h31.5c.91,0,1.64.74,1.64,1.64v31.5ZM367.77,629.99c0,.91-.74,1.64-1.64,1.64h-31.5c-.91,0-1.64-.73-1.64-1.64v-31.5c0-.91.73-1.64,1.64-1.64h31.5c.91,0,1.64.74,1.64,1.64v31.5ZM367.77,549.98c0,.91-.74,1.64-1.64,1.64h-31.5c-.91,0-1.64-.73-1.64-1.64v-31.5c0-.91.73-1.64,1.64-1.64h31.5c.91,0,1.64.73,1.64,1.64v31.5ZM367.77,469.97c0,.91-.74,1.64-1.64,1.64h-31.5c-.91,0-1.64-.73-1.64-1.64v-31.5c0-.91.73-1.64,1.64-1.64h31.5c.91,0,1.64.73,1.64,1.64v31.5ZM427.4,790.02c0,.91-.74,1.64-1.64,1.64h-31.5c-.91,0-1.64-.73-1.64-1.64v-31.5c0-.91.73-1.64,1.64-1.64h31.5c.91,0,1.64.74,1.64,1.64v31.5ZM427.4,710.01c0,.91-.74,1.64-1.64,1.64h-31.5c-.91,0-1.64-.73-1.64-1.64v-31.5c0-.91.73-1.64,1.64-1.64h31.5c.91,0,1.64.74,1.64,1.64v31.5ZM427.4,629.99c0,.91-.74,1.64-1.64,1.64h-31.5c-.91,0-1.64-.73-1.64-1.64v-31.5c0-.91.73-1.64,1.64-1.64h31.5c.91,0,1.64.74,1.64,1.64v31.5ZM427.4,549.98c0,.91-.74,1.64-1.64,1.64h-31.5c-.91,0-1.64-.73-1.64-1.64v-31.5c0-.91.73-1.64,1.64-1.64h31.5c.91,0,1.64.73,1.64,1.64v31.5ZM427.4,469.97c0,.91-.74,1.64-1.64,1.64h-31.5c-.91,0-1.64-.73-1.64-1.64v-31.5c0-.91.73-1.64,1.64-1.64h31.5c.91,0,1.64.73,1.64,1.64v31.5Z"/>
      <path class="cls-1" d="M775.71,698.94h-146.67c-.91,0-1.64.74-1.64,1.64v141.96c0,.91.74,1.64,1.64,1.64h146.67c.91,0,1.64-.73,1.64-1.64v-141.96c0-.91-.73-1.64-1.64-1.64ZM693.46,790.02c0,.91-.74,1.64-1.64,1.64h-42.98c-.91,0-1.64-.73-1.64-1.64v-25.69c0-.91.74-1.64,1.64-1.64h42.98c.91,0,1.64.74,1.64,1.64v25.69ZM693.46,743.6c0,.91-.74,1.64-1.64,1.64h-42.98c-.91,0-1.64-.73-1.64-1.64v-25.69c0-.91.74-1.64,1.64-1.64h42.98c.91,0,1.64.73,1.64,1.64v25.69ZM757.56,790.02c0,.91-.73,1.64-1.64,1.64h-42.98c-.91,0-1.64-.73-1.64-1.64v-25.69c0-.91.74-1.64,1.64-1.64h42.98c.91,0,1.64.74,1.64,1.64v25.69ZM757.56,743.6c0,.91-.73,1.64-1.64,1.64h-42.98c-.91,0-1.64-.73-1.64-1.64v-25.69c0-.91.74-1.64,1.64-1.64h42.98c.91,0,1.64.73,1.64,1.64v25.69Z"/>
      <path class="cls-1" d="M611.12,452.32l-140.77,177.93c-.23.29-.35.65-.35,1.02v211.26c0,.91.74,1.64,1.64,1.64h140.77c.91,0,1.64-.73,1.64-1.64v-389.2c0-1.56-1.96-2.24-2.93-1.02ZM533.54,790.02c0,.91-.74,1.64-1.64,1.64h-40.72c-.91,0-1.64-.73-1.64-1.64v-25.69c0-.91.74-1.64,1.64-1.64h40.72c.91,0,1.64.74,1.64,1.64v25.69ZM533.54,743.6c0,.91-.74,1.64-1.64,1.64h-40.72c-.91,0-1.64-.73-1.64-1.64v-25.69c0-.91.74-1.64,1.64-1.64h40.72c.91,0,1.64.73,1.64,1.64v25.69ZM533.54,698.1c0,.91-.74,1.64-1.64,1.64h-40.72c-.91,0-1.64-.73-1.64-1.64v-25.69c0-.91.74-1.64,1.64-1.64h40.72c.91,0,1.64.74,1.64,1.64v25.69ZM533.54,650.99c0,.91-.74,1.64-1.64,1.64h-40.72c-.91,0-1.64-.73-1.64-1.64v-9.1c0-.4.14-.78.41-1.08l40.72-46.49c1-1.14,2.88-.43,2.88,1.08v55.59ZM594.5,790.02c0,.91-.74,1.64-1.64,1.64h-40.72c-.91,0-1.64-.73-1.64-1.64v-25.69c0-.91.73-1.64,1.64-1.64h40.72c.91,0,1.64.74,1.64,1.64v25.69ZM594.5,743.6c0,.91-.74,1.64-1.64,1.64h-40.72c-.91,0-1.64-.73-1.64-1.64v-25.69c0-.91.73-1.64,1.64-1.64h40.72c.91,0,1.64.73,1.64,1.64v25.69ZM594.5,698.1c0,.91-.74,1.64-1.64,1.64h-40.72c-.91,0-1.64-.73-1.64-1.64v-25.69c0-.91.73-1.64,1.64-1.64h40.72c.91,0,1.64.74,1.64,1.64v25.69ZM594.5,650.99c0,.91-.74,1.64-1.64,1.64h-40.72c-.91,0-1.64-.73-1.64-1.64v-25.69c0-.91.73-1.64,1.64-1.64h40.72c.91,0,1.64.74,1.64,1.64v25.69ZM594.5,603.88c0,.91-.74,1.64-1.64,1.64h-40.72c-.91,0-1.64-.73-1.64-1.64v-25.69c0-.91.73-1.64,1.64-1.64h40.72c.91,0,1.64.73,1.64,1.64v25.69ZM594.5,556.77c0,.91-.74,1.64-1.64,1.64h-38.9c-1.38,0-2.15-1.61-1.27-2.68l38.9-47.76c.98-1.2,2.91-.51,2.91,1.04v47.76Z"/>
    </g>
    <g>
      <path class="cls-1" d="M281.76,118.86c-4.16-3.87-6.31-9.21-6.46-16.04h10.49c.1,3.95,1.33,7.03,3.69,9.24,2.36,2.21,5.54,3.32,9.54,3.32,3.34,0,6.05-.8,8.13-2.4,2.08-1.6,3.12-3.71,3.12-6.32,0-2.08-.43-3.75-1.29-5-.86-1.25-2.25-2.23-4.18-2.92-1.93-.69-4.59-1.2-7.98-1.52-6.64-.59-11.58-2.29-14.82-5.12-3.24-2.83-4.86-6.85-4.86-12.08,0-3.52.84-6.61,2.51-9.28,1.67-2.67,4.03-4.72,7.07-6.16s6.56-2.16,10.56-2.16c6.59,0,11.79,1.69,15.62,5.08,3.83,3.39,5.89,8.17,6.19,14.36h-10.41c-.25-3.31-1.34-5.85-3.27-7.64-1.93-1.79-4.59-2.68-7.98-2.68-3.14,0-5.64.71-7.49,2.12-1.85,1.41-2.77,3.32-2.77,5.72,0,1.97.43,3.55,1.29,4.72.86,1.17,2.27,2.09,4.22,2.76,1.95.67,4.6,1.13,7.94,1.4,6.74.59,11.7,2.29,14.9,5.12,3.19,2.83,4.79,6.99,4.79,12.48,0,3.79-.87,7.11-2.62,9.96-1.75,2.85-4.26,5.04-7.52,6.56-3.27,1.52-7.08,2.28-11.44,2.28-7.14,0-12.79-1.93-16.95-5.8Z"/>
      <path class="cls-1" d="M371.86,112.7c-1.95,3.87-4.74,6.84-8.36,8.92-3.62,2.08-7.87,3.12-12.73,3.12s-9.03-1.04-12.65-3.12c-3.62-2.08-6.42-5.05-8.4-8.92-1.98-3.87-2.96-8.41-2.96-13.64v-35.52h10.11v36.24c0,4.64,1.23,8.35,3.69,11.12,2.46,2.77,5.86,4.16,10.22,4.16s7.76-1.39,10.22-4.16c2.46-2.77,3.69-6.48,3.69-11.12v-36.24h10.11v35.52c0,5.23-.98,9.77-2.93,13.64Z"/>
      <path class="cls-1" d="M388.09,118.86c-4.16-3.87-6.31-9.21-6.46-16.04h10.49c.1,3.95,1.33,7.03,3.69,9.24,2.36,2.21,5.54,3.32,9.54,3.32,3.34,0,6.05-.8,8.13-2.4,2.08-1.6,3.12-3.71,3.12-6.32,0-2.08-.43-3.75-1.29-5-.86-1.25-2.25-2.23-4.18-2.92-1.93-.69-4.59-1.2-7.98-1.52-6.64-.59-11.58-2.29-14.82-5.12-3.24-2.83-4.86-6.85-4.86-12.08,0-3.52.84-6.61,2.51-9.28,1.67-2.67,4.03-4.72,7.07-6.16s6.56-2.16,10.56-2.16c6.59,0,11.79,1.69,15.62,5.08,3.83,3.39,5.89,8.17,6.19,14.36h-10.41c-.25-3.31-1.34-5.85-3.27-7.64-1.93-1.79-4.59-2.68-7.98-2.68-3.14,0-5.64.71-7.49,2.12-1.85,1.41-2.77,3.32-2.77,5.72,0,1.97.43,3.55,1.29,4.72.86,1.17,2.27,2.09,4.22,2.76,1.95.67,4.6,1.13,7.94,1.4,6.74.59,11.7,2.29,14.9,5.12,3.19,2.83,4.79,6.99,4.79,12.48,0,3.79-.87,7.11-2.62,9.96-1.75,2.85-4.26,5.04-7.52,6.56-3.27,1.52-7.08,2.28-11.44,2.28-7.14,0-12.79-1.93-16.95-5.8Z"/>
      <path class="cls-1" d="M446.46,123.54v-51.2h-16.8v-8.8h43.7v8.8h-16.8v51.2h-10.11Z"/>
      <path class="cls-1" d="M509,123.54l-4.33-15.28h-19.53l-4.41,15.28h-10.41l17.94-60h13.38l17.86,60h-10.49ZM487.65,99.46h14.52l-7.14-25.04h-.23l-7.14,25.04Z"/>
      <path class="cls-1" d="M526.64,63.54h9.96v60h-9.96v-60Z"/>
      <path class="cls-1" d="M546.77,123.54v-60h10.49l24.85,42.8h.23v-42.8h9.58v60h-10.49l-24.85-42.8h-.23v42.8h-9.58Z"/>
      <path class="cls-1" d="M637.75,123.54l-4.33-15.28h-19.53l-4.41,15.28h-10.41l17.94-60h13.38l17.86,60h-10.49ZM616.39,99.46h14.52l-7.14-25.04h-.23l-7.14,25.04Z"/>
      <path class="cls-1" d="M693.68,96.02c1.62,2.51,2.43,5.49,2.43,8.96,0,3.73-.81,7-2.43,9.8-1.62,2.8-3.95,4.96-6.99,6.48-3.04,1.52-6.59,2.28-10.64,2.28h-20.67v-60h21.96c5.22,0,9.32,1.35,12.31,4.04,2.99,2.69,4.48,6.36,4.48,11,0,2.67-.65,5.04-1.94,7.12s-3.08,3.68-5.36,4.8c2.94,1.17,5.22,3.01,6.84,5.52ZM682.51,74.26c-1.42-1.28-3.47-1.92-6.16-1.92h-11.32v14.8h11.25c2.58,0,4.62-.67,6.12-2,1.49-1.33,2.24-3.12,2.24-5.36,0-2.4-.71-4.24-2.13-5.52ZM683.46,112.1c1.95-1.76,2.93-4.13,2.93-7.12s-.94-5.19-2.81-6.76c-1.88-1.57-4.56-2.36-8.06-2.36h-10.49v18.88h10.41c3.39,0,6.07-.88,8.02-2.64Z"/>
      <path class="cls-1" d="M713.37,114.74h25.46v8.8h-35.57v-60h10.11v51.2Z"/>
      <path class="cls-1" d="M756.76,114.74h26.68v8.8h-36.78v-60h35.8v8.8h-25.69v14.88h22.34v8.8h-22.34v18.72Z"/>
      <path class="cls-1" d="M321.59,208.5c-4.76,4.16-10.69,6.24-17.78,6.24-5.47,0-10.34-1.33-14.59-4-4.26-2.67-7.58-6.36-9.96-11.08-2.38-4.72-3.57-10.09-3.57-16.12s1.19-11.4,3.57-16.12c2.38-4.72,5.7-8.4,9.96-11.04,4.26-2.64,9.12-3.96,14.59-3.96,6.99,0,12.87,2.03,17.63,6.08,4.76,4.05,7.88,9.65,9.35,16.8h-10.34c-1.42-4.27-3.47-7.48-6.16-9.64-2.69-2.16-6.18-3.24-10.49-3.24-3.6,0-6.74.88-9.42,2.64-2.69,1.76-4.75,4.24-6.19,7.44s-2.17,6.91-2.17,11.12.72,7.91,2.17,11.08c1.44,3.17,3.51,5.64,6.19,7.4,2.68,1.76,5.83,2.64,9.42,2.64,8.71,0,14.31-4.51,16.8-13.52h10.18c-1.37,7.36-4.43,13.12-9.2,17.28Z"/>
      <path class="cls-1" d="M340.28,153.54h9.96v60h-9.96v-60Z"/>
      <path class="cls-1" d="M374.41,213.54v-51.2h-16.8v-8.8h43.7v8.8h-16.8v51.2h-10.11Z"/>
      <path class="cls-1" d="M408.68,153.54h9.96v60h-9.96v-60Z"/>
      <path class="cls-1" d="M438.93,204.74h26.68v8.8h-36.78v-60h35.8v8.8h-25.69v14.88h22.34v8.8h-22.34v18.72Z"/>
      <path class="cls-1" d="M477.54,208.86c-4.16-3.87-6.31-9.21-6.46-16.04h10.49c.1,3.95,1.33,7.03,3.69,9.24,2.36,2.21,5.54,3.32,9.54,3.32,3.34,0,6.05-.8,8.13-2.4,2.08-1.6,3.12-3.71,3.12-6.32,0-2.08-.43-3.75-1.29-5-.86-1.25-2.25-2.23-4.18-2.92-1.93-.69-4.59-1.2-7.98-1.52-6.64-.59-11.58-2.29-14.82-5.12-3.24-2.83-4.86-6.85-4.86-12.08,0-3.52.84-6.61,2.51-9.28,1.67-2.67,4.03-4.72,7.07-6.16s6.56-2.16,10.56-2.16c6.59,0,11.79,1.69,15.62,5.08,3.83,3.39,5.89,8.17,6.19,14.36h-10.41c-.25-3.31-1.34-5.85-3.27-7.64-1.93-1.79-4.59-2.68-7.98-2.68-3.14,0-5.64.71-7.49,2.12-1.85,1.41-2.77,3.32-2.77,5.72,0,1.97.43,3.55,1.29,4.72.86,1.17,2.27,2.09,4.22,2.76,1.95.67,4.6,1.13,7.94,1.4,6.74.59,11.7,2.29,14.9,5.12,3.19,2.83,4.79,6.99,4.79,12.48,0,3.79-.87,7.11-2.62,9.96-1.75,2.85-4.26,5.04-7.52,6.56-3.27,1.52-7.08,2.28-11.44,2.28-7.14,0-12.79-1.93-16.95-5.8Z"/>
      <path class="cls-1" d="M577.71,213.54l-4.33-15.28h-19.53l-4.41,15.28h-10.41l17.94-60h13.38l17.86,60h-10.49ZM556.35,189.46h14.52l-7.14-25.04h-.23l-7.14,25.04Z"/>
      <path class="cls-1" d="M595.34,213.54v-60h10.49l24.85,42.8h.23v-42.8h9.58v60h-10.49l-24.85-42.8h-.23v42.8h-9.58Z"/>
      <path class="cls-1" d="M684.26,157.3c4.36,2.51,7.68,6.01,9.96,10.52,2.28,4.51,3.42,9.72,3.42,15.64s-1.15,11.16-3.46,15.72c-2.31,4.56-5.61,8.09-9.92,10.6s-9.42,3.76-15.35,3.76h-18.24v-60h18.16c5.93,0,11.07,1.25,15.43,3.76ZM682.81,198.22c3.09-3.76,4.64-8.68,4.64-14.76s-1.56-10.93-4.67-14.72c-3.12-3.79-7.82-5.68-14.1-5.68h-8.13v40.8h8.21c6.28,0,10.97-1.88,14.06-5.64Z"/>
      <path class="cls-1" d="M321.59,298.5c-4.76,4.16-10.69,6.24-17.78,6.24-5.47,0-10.34-1.33-14.59-4-4.26-2.67-7.58-6.36-9.96-11.08-2.38-4.72-3.57-10.09-3.57-16.12s1.19-11.4,3.57-16.12c2.38-4.72,5.7-8.4,9.96-11.04,4.26-2.64,9.12-3.96,14.59-3.96,6.99,0,12.87,2.03,17.63,6.08,4.76,4.05,7.88,9.65,9.35,16.8h-10.34c-1.42-4.27-3.47-7.48-6.16-9.64-2.69-2.16-6.18-3.24-10.49-3.24-3.6,0-6.74.88-9.42,2.64-2.69,1.76-4.75,4.24-6.19,7.44s-2.17,6.91-2.17,11.12.72,7.91,2.17,11.08c1.44,3.17,3.51,5.64,6.19,7.4,2.68,1.76,5.83,2.64,9.42,2.64,8.71,0,14.31-4.51,16.8-13.52h10.18c-1.37,7.36-4.43,13.12-9.2,17.28Z"/>
      <path class="cls-1" d="M351.19,300.74c-4.33-2.67-7.7-6.37-10.11-11.12-2.41-4.75-3.61-10.11-3.61-16.08s1.2-11.32,3.61-16.04c2.41-4.72,5.78-8.41,10.11-11.08,4.33-2.67,9.26-4,14.78-4s10.45,1.33,14.78,4c4.33,2.67,7.7,6.36,10.11,11.08,2.41,4.72,3.61,10.07,3.61,16.04s-1.2,11.33-3.61,16.08c-2.41,4.75-5.78,8.45-10.11,11.12-4.33,2.67-9.26,4-14.78,4s-10.45-1.33-14.78-4ZM375.55,292.1c2.74-1.76,4.85-4.24,6.35-7.44,1.49-3.2,2.24-6.88,2.24-11.04s-.75-7.92-2.24-11.12c-1.5-3.2-3.61-5.68-6.35-7.44-2.74-1.76-5.93-2.64-9.58-2.64s-6.84.88-9.58,2.64c-2.74,1.76-4.85,4.24-6.35,7.44-1.5,3.2-2.24,6.91-2.24,11.12s.75,7.84,2.24,11.04c1.49,3.2,3.61,5.68,6.35,7.44,2.74,1.76,5.93,2.64,9.58,2.64s6.84-.88,9.58-2.64Z"/>
      <path class="cls-1" d="M404.12,303.54v-60h15.35l14.59,44.4h.23l14.67-44.4h15.28v60h-10.11v-45.44h-.23l-15.66,45.12h-8.13l-15.66-45.12h-.23v45.44h-10.11Z"/>
      <path class="cls-1" d="M474.42,303.54v-60h15.35l14.59,44.4h.23l14.67-44.4h15.28v60h-10.11v-45.44h-.23l-15.66,45.12h-8.13l-15.66-45.12h-.23v45.44h-10.11Z"/>
      <path class="cls-1" d="M588.92,292.7c-1.95,3.87-4.74,6.84-8.36,8.92-3.62,2.08-7.87,3.12-12.73,3.12s-9.03-1.04-12.65-3.12c-3.62-2.08-6.42-5.05-8.4-8.92-1.98-3.87-2.96-8.41-2.96-13.64v-35.52h10.11v36.24c0,4.64,1.23,8.35,3.69,11.12,2.46,2.77,5.86,4.16,10.22,4.16s7.76-1.39,10.22-4.16c2.46-2.77,3.69-6.48,3.69-11.12v-36.24h10.11v35.52c0,5.23-.98,9.77-2.93,13.64Z"/>
      <path class="cls-1" d="M601.11,303.54v-60h10.49l24.85,42.8h.23v-42.8h9.58v60h-10.49l-24.85-42.8h-.23v42.8h-9.58Z"/>
      <path class="cls-1" d="M656.44,243.54h9.96v60h-9.96v-60Z"/>
      <path class="cls-1" d="M690.57,303.54v-51.2h-16.8v-8.8h43.7v8.8h-16.8v51.2h-10.11Z"/>
      <path class="cls-1" d="M724.84,243.54h9.96v60h-9.96v-60Z"/>
      <path class="cls-1" d="M755.09,294.74h26.68v8.8h-36.78v-60h35.8v8.8h-25.69v14.88h22.34v8.8h-22.34v18.72Z"/>
      <path class="cls-1" d="M793.7,298.86c-4.16-3.87-6.31-9.21-6.46-16.04h10.49c.1,3.95,1.33,7.03,3.69,9.24,2.36,2.21,5.54,3.32,9.54,3.32,3.34,0,6.05-.8,8.13-2.4,2.08-1.6,3.12-3.71,3.12-6.32,0-2.08-.43-3.75-1.29-5-.86-1.25-2.25-2.23-4.18-2.92-1.93-.69-4.59-1.2-7.98-1.52-6.64-.59-11.58-2.29-14.82-5.12-3.24-2.83-4.86-6.85-4.86-12.08,0-3.52.84-6.61,2.51-9.28,1.67-2.67,4.03-4.72,7.07-6.16s6.56-2.16,10.56-2.16c6.59,0,11.79,1.69,15.62,5.08,3.83,3.39,5.89,8.17,6.19,14.36h-10.41c-.25-3.31-1.34-5.85-3.27-7.64-1.93-1.79-4.59-2.68-7.98-2.68-3.14,0-5.64.71-7.49,2.12-1.85,1.41-2.77,3.32-2.77,5.72,0,1.97.43,3.55,1.29,4.72.86,1.17,2.27,2.09,4.22,2.76,1.95.67,4.6,1.13,7.94,1.4,6.74.59,11.7,2.29,14.9,5.12,3.19,2.83,4.79,6.99,4.79,12.48,0,3.79-.87,7.11-2.62,9.96-1.75,2.85-4.26,5.04-7.52,6.56-3.27,1.52-7.08,2.28-11.44,2.28-7.14,0-12.79-1.93-16.95-5.8Z"/>
    </g>
    <g>
      <path class="cls-1" d="M95.39,67.79h28.62v202.5h-33.75V102.62l-41.58,15.66v-31.59l46.71-18.9Z"/>
      <path class="cls-1" d="M195.56,67.79h28.62v202.5h-33.75V102.62l-41.58,15.66v-31.59l46.71-18.9Z"/>
    </g>
  </g>
</svg>