<?xml version="1.0" encoding="UTF-8"?>
<svg id="Layer_2" data-name="Layer 2" xmlns="http://www.w3.org/2000/svg" viewBox="0 0 943.22 943.22">
  <defs>
    <style>
      .cls-1 {
        fill: #d4a345;
      }

      .cls-1, .cls-2 {
        stroke-width: 0px;
      }

      .cls-2 {
        fill: #fff;
      }
    </style>
  </defs>
  <g id="Layer_1-2" data-name="Layer 1">
    <rect class="cls-1" y="0" width="943.22" height="943.22"/>
    <g>
      <path class="cls-2" d="M715.81,603.8H227.41c-1.84,0-3.36,1.53-3.33,3.37,1.64,88.98,68.2,164.54,161.16,193.98,1.36.43,2.28,1.67,2.28,3.09v12.6c0,1.81,1.47,3.28,3.28,3.28h161.61c1.81,0,3.28-1.47,3.28-3.28v-12.6c0-1.42.93-2.67,2.28-3.09,92.96-29.44,159.52-105,161.16-193.98.03-1.84-1.49-3.37-3.33-3.37Z"/>
      <path class="cls-2" d="M377.31,581.57c-.28,1.44-.31,2.86-.23,4.26h34.72c1.42-10.06,4.64-49.27-23.71-87.39-21.86-29.4-20.16-62.38,5.06-98.03,5.54-7.83,3.68-18.68-4.15-24.21-7.83-5.54-18.68-3.69-24.21,4.15-33.89,47.91-35.51,97.22-4.57,138.83,22.54,30.31,17.39,60.83,17.1,62.4Z"/>
      <path class="cls-2" d="M473.52,581.57c-.28,1.44-.31,2.86-.24,4.26h34.72c1.42-10.06,4.64-49.27-23.71-87.39-21.86-29.4-20.16-62.38,5.06-98.03,5.54-7.83,3.68-18.68-4.15-24.21-7.83-5.54-18.68-3.69-24.21,4.15-33.89,47.91-35.51,97.22-4.57,138.83,22.54,30.31,17.39,60.83,17.1,62.4Z"/>
      <path class="cls-2" d="M569.72,581.57c-.28,1.44-.31,2.86-.23,4.26h34.72c1.42-10.06,4.64-49.27-23.71-87.39-21.86-29.4-20.16-62.38,5.06-98.03,5.54-7.83,3.68-18.68-4.15-24.21-7.83-5.54-18.68-3.69-24.21,4.15-33.89,47.91-35.51,97.22-4.57,138.83,22.54,30.31,17.39,60.83,17.1,62.4Z"/>
    </g>
    <g>
      <path class="cls-2" d="M239.27,161.88v-8.16l32.68-42.8v-.24h-31.46v-8.8h43.32v8.96l-32,42v.24h32.68v8.8h-45.22Z"/>
      <path class="cls-2" d="M302.28,153.08h26.68v8.8h-36.78v-60h35.8v8.8h-25.69v14.88h22.34v8.8h-22.34v18.72Z"/>
      <path class="cls-2" d="M374.1,128.39c-1.93,2.75-4.61,4.65-8.06,5.72l10.79,27.76h-10.72l-10.26-26.88h-8.89v26.88h-10.11v-60h22.65c3.6,0,6.71.71,9.35,2.12,2.63,1.41,4.65,3.39,6.04,5.92,1.39,2.53,2.09,5.43,2.09,8.68,0,3.79-.96,7.05-2.89,9.8ZM346.97,126.2h11.7c2.68,0,4.66-.73,5.93-2.2,1.27-1.47,1.9-3.32,1.9-5.56s-.62-4.09-1.86-5.56c-1.24-1.47-3.18-2.2-5.81-2.2h-11.86v15.52Z"/>
      <path class="cls-2" d="M396.02,159.08c-4.33-2.67-7.7-6.37-10.11-11.12-2.41-4.75-3.61-10.11-3.61-16.08s1.2-11.32,3.61-16.04c2.41-4.72,5.78-8.41,10.11-11.08,4.33-2.67,9.26-4,14.78-4s10.45,1.33,14.78,4c4.33,2.67,7.7,6.36,10.11,11.08,2.41,4.72,3.61,10.07,3.61,16.04s-1.2,11.33-3.61,16.08c-2.41,4.75-5.78,8.45-10.11,11.12-4.33,2.67-9.26,4-14.78,4s-10.45-1.33-14.78-4ZM420.38,150.43c2.74-1.76,4.85-4.24,6.35-7.44,1.49-3.2,2.24-6.88,2.24-11.04s-.75-7.92-2.24-11.12c-1.5-3.2-3.61-5.68-6.35-7.44-2.74-1.76-5.93-2.64-9.58-2.64s-6.84.88-9.58,2.64c-2.74,1.76-4.85,4.24-6.35,7.44-1.5,3.2-2.24,6.91-2.24,11.12s.75,7.84,2.24,11.04c1.49,3.2,3.61,5.68,6.35,7.44,2.74,1.76,5.93,2.64,9.58,2.64s6.84-.88,9.58-2.64Z"/>
      <path class="cls-2" d="M274.69,191.88h10.11v60h-10.11v-27.52h-22.72v27.52h-10.11v-60h10.11v23.68h22.72v-23.68Z"/>
      <path class="cls-2" d="M339.18,241.04c-1.95,3.87-4.74,6.84-8.36,8.92-3.62,2.08-7.87,3.12-12.73,3.12s-9.03-1.04-12.65-3.12c-3.62-2.08-6.42-5.05-8.4-8.92-1.98-3.87-2.96-8.41-2.96-13.64v-35.52h10.11v36.24c0,4.64,1.23,8.35,3.69,11.12,2.46,2.77,5.86,4.16,10.22,4.16s7.76-1.39,10.22-4.16c2.46-2.77,3.69-6.48,3.69-11.12v-36.24h10.11v35.52c0,5.23-.98,9.77-2.93,13.64Z"/>
      <path class="cls-2" d="M351.37,251.88v-60h10.49l24.85,42.8h.23v-42.8h9.58v60h-10.49l-24.85-42.8h-.23v42.8h-9.58Z"/>
      <path class="cls-2" d="M460.21,251.88h-8.36v-8.96c-2.08,3.25-4.75,5.76-8.02,7.52-3.27,1.76-7,2.64-11.21,2.64-5.37,0-10.18-1.36-14.44-4.08-4.26-2.72-7.58-6.45-9.96-11.2-2.38-4.75-3.57-10.05-3.57-15.92s1.19-11.32,3.57-16.04c2.38-4.72,5.71-8.41,9.99-11.08,4.28-2.67,9.18-4,14.71-4,6.64,0,12.35,1.75,17.14,5.24,4.79,3.49,8.02,8.31,9.69,14.44h-10.72c-1.22-3.09-3.18-5.53-5.89-7.32-2.71-1.79-6.07-2.68-10.07-2.68-3.65,0-6.84.89-9.58,2.68-2.74,1.79-4.85,4.31-6.35,7.56-1.5,3.25-2.24,7.01-2.24,11.28s.75,8.03,2.24,11.28c1.49,3.25,3.61,5.77,6.35,7.56,2.74,1.79,5.95,2.68,9.65,2.68,4.56,0,8.36-1.31,11.4-3.92,3.04-2.61,5.02-6.16,5.93-10.64h-14.44v-8.8h24.17v31.76Z"/>
      <path class="cls-2" d="M479.51,243.08h26.68v8.8h-36.78v-60h35.8v8.8h-25.69v14.88h22.34v8.8h-22.34v18.72Z"/>
      <path class="cls-2" d="M551.33,218.39c-1.93,2.75-4.61,4.65-8.06,5.72l10.79,27.76h-10.72l-10.26-26.88h-8.89v26.88h-10.11v-60h22.65c3.6,0,6.71.71,9.35,2.12,2.63,1.41,4.65,3.39,6.04,5.92,1.39,2.53,2.09,5.43,2.09,8.68,0,3.79-.96,7.05-2.89,9.8ZM524.2,216.2h11.7c2.68,0,4.66-.73,5.93-2.2,1.27-1.47,1.9-3.32,1.9-5.56s-.62-4.09-1.86-5.56c-1.24-1.47-3.18-2.2-5.81-2.2h-11.86v15.52Z"/>
    </g>
    <path class="cls-2" d="M176.51,239.25v31.05H46.1v-27.81l76.41-84.24c6.12-6.66,10.4-12.64,12.83-17.96,2.43-5.31,3.65-10.67,3.65-16.07,0-8.28-2.48-15.12-7.43-20.52-4.95-5.4-12.2-8.1-21.73-8.1s-16.97,2.93-22.28,8.78c-5.31,5.85-7.96,13.01-7.96,21.46v3.51h-33.48v-3.51c0-11.52,2.61-21.96,7.83-31.32,5.22-9.36,12.73-16.78,22.54-22.28,9.81-5.49,21.37-8.24,34.7-8.24s24.44,2.66,33.88,7.96c9.45,5.31,16.65,12.47,21.6,21.47,4.95,9,7.42,18.99,7.42,29.97,0,9.9-2.03,19.13-6.08,27.67-4.05,8.55-11.12,18.41-21.2,29.57l-52.92,58.59h82.62Z"/>
  </g>
</svg>