<svg width="1238" height="346" viewBox="0 0 1238 346" fill="none" xmlns="http://www.w3.org/2000/svg">
<g clip-path="url(#clip0_1570_366)">
<path d="M168.8 56.2L112.5 0L0 112.5L112.5 225.1L168.8 168.8L112.5 112.5L168.8 56.2Z" fill="#4F008C"/>
<path d="M168.796 56.2129L112.511 112.498L168.796 168.783L225.081 112.498L168.796 56.2129Z" fill="#FF375E"/>
<path d="M300.3 137.3H326.7C329 146.2 336.6 151.3 349.2 151.3C362.4 151.3 370.4 146.6 370.4 138.5C370.4 130.7 367.3 126.7 347.5 125.9C313.7 124.5 303.2 113.5 303.2 94.7999C303.2 73.7999 319.9 61.3999 348 61.3999C375.4 61.3999 390.9 73.9999 394 92.8999H368.2C365.7 87.2999 360.4 82.7999 347.8 82.7999C335.8 82.7999 328.4 86.8999 328.4 93.6999C328.4 100.7 331.5 103.6 350.7 104.4C385.1 105.8 395.9 116.6 395.9 137.4C395.9 159.7 378.6 173.1 349.7 173.1C319.5 173.2 302.4 158.6 300.3 137.3Z" fill="#4F008C"/>
<path d="M467.7 150.1C486.3 150.1 497.6 137.1 497.6 117.1C497.6 97.4999 486.3 84.4999 467.7 84.4999C448.9 84.4999 437.8 97.4999 437.8 117.1C437.8 137.1 448.9 150.1 467.7 150.1ZM467.7 173.2C434.3 173.2 411.6 149.7 411.6 117.1C411.6 84.6999 434.3 61.3999 467.7 61.3999C501.3 61.3999 523.8 84.6999 523.8 117.1C523.8 149.7 501.3 173.2 467.7 173.2Z" fill="#4F008C"/>
<path d="M574.9 170.1C553.9 170.1 544 158.8 544 141.2V18.5H569.8V138.7C569.8 144.7 572.9 147.4 577.8 147.4H588.9V170.1H574.9Z" fill="#4F008C"/>
<path d="M682.3 170.1V157.3C673.8 167.4 661.5 173.2 646.6 173.2C622.7 173.2 608.2 156.7 608.2 132V64.3999H634V125.9C634 139.7 640.4 149.8 654.4 149.8C665.3 149.8 677.5 142.4 682.2 131.7V64.4999H708V170.3H682.3V170.1Z" fill="#4F008C"/>
<path d="M767.7 170.1C745.2 170.1 734.7 158.5 734.7 141V29.5H760.5V64.4H794.3V87H760.5V137.7C760.5 144.3 764 147.4 769.8 147.4H794.3V170.1H767.7Z" fill="#4F008C"/>
<path d="M837.3 18.5H863.1V44.7H837.3V18.5ZM837.3 87H813.1V64.3H863.1V170.1H837.3V87Z" fill="#4F008C"/>
<path d="M941.4 150.1C960 150.1 971.3 137.1 971.3 117.1C971.3 97.4999 960 84.4999 941.4 84.4999C922.6 84.4999 911.5 97.4999 911.5 117.1C911.5 137.1 922.7 150.1 941.4 150.1ZM941.4 173.2C908 173.2 885.3 149.7 885.3 117.1C885.3 84.6999 908 61.3999 941.4 61.3999C975 61.3999 997.5 84.6999 997.5 117.1C997.5 149.7 975.1 173.2 941.4 173.2Z" fill="#4F008C"/>
<path d="M1019.5 170.1V64.2999H1045.3V77.4999C1054 67.1999 1066.7 61.3999 1082 61.3999C1106.7 61.3999 1121.6 77.8999 1121.6 102.4V170H1095.8V108.8C1095.8 94.9999 1089.2 84.8999 1074.1 84.8999C1062.8 84.8999 1050.2 92.2999 1045.2 103V170H1019.5V170.1Z" fill="#4F008C"/>
<path d="M1142.1 137.3H1168.5C1170.8 146.2 1178.4 151.3 1191 151.3C1204.2 151.3 1212.2 146.6 1212.2 138.5C1212.2 130.7 1209.1 126.7 1189.3 125.9C1155.5 124.5 1145 113.5 1145 94.7999C1145 73.7999 1161.7 61.3999 1189.8 61.3999C1217.2 61.3999 1232.7 73.9999 1235.8 92.8999H1210C1207.5 87.2999 1202.2 82.7999 1189.6 82.7999C1177.6 82.7999 1170.2 86.8999 1170.2 93.6999C1170.2 100.7 1173.3 103.6 1192.5 104.4C1226.9 105.8 1237.7 116.6 1237.7 137.4C1237.7 159.7 1220.4 173.1 1191.5 173.1C1161.3 173.2 1144.2 158.6 1142.1 137.3Z" fill="#4F008C"/>
<path d="M905.1 287.7C905.1 290.8 905.5 293.6 906.3 296.3C907.1 299 908.2 301.3 909.6 303.3C911 305.3 912.8 306.8 914.9 308C917 309.1 919.4 309.7 922.1 309.7C924.7 309.7 927.1 309.1 929.2 308C931.3 306.9 933.1 305.3 934.6 303.3C936.1 301.3 937.2 299 938 296.3C938.8 293.6 939.2 290.8 939.2 287.7C939.2 284.6 938.8 281.8 938 279.1C937.2 276.4 936.1 274.1 934.6 272.1C933.1 270.2 931.3 268.6 929.2 267.5C927.1 266.4 924.7 265.8 922.1 265.8C919.4 265.8 917 266.4 914.9 267.5C912.8 268.6 911 270.2 909.6 272.1C908.2 274 907 276.4 906.3 279.1C905.5 281.7 905.1 284.6 905.1 287.7ZM905.3 318.5H894.2V226.8H905.3V267.1C905.6 266.4 906.2 265.3 907.2 264C908.1 262.7 909.3 261.4 910.8 260.1C912.3 258.8 914.2 257.7 916.4 256.8C918.6 255.9 921.3 255.4 924.3 255.4C927.9 255.4 931.3 256.1 934.5 257.6C937.7 259.1 940.5 261.2 942.8 264C945.2 266.8 947.1 270.2 948.5 274.2C949.9 278.2 950.6 282.8 950.6 287.9C950.6 293 949.9 297.5 948.5 301.5C947.1 305.5 945.2 308.9 942.8 311.7C940.4 314.5 937.6 316.6 934.5 318.1C931.3 319.6 927.9 320.3 924.3 320.3C921.2 320.3 918.6 319.8 916.4 318.9C914.2 318 912.3 316.9 910.8 315.7C909.3 314.5 908.1 313.3 907.2 312C906.3 310.8 905.7 309.8 905.3 309.1V318.5Z" fill="#4F008C"/>
<path d="M981.5 345.2H970.3L981.2 317.5L956.6 257H968.9L987 302.7L1005 257H1016.5L981.5 345.2Z" fill="#4F008C"/>
<path d="M1147.3 318.2C1154.7 318.2 1160 315.9 1162.3 313.9V298.5C1160.6 299.8 1157.2 301.3 1152.8 301.3C1149.7 301.3 1147.4 300.6 1145.7 299C1144.3 297.6 1143.6 295.2 1143.6 291.9V226.7H1124.8V246H1162.4V264.2H1124.8V296.5C1124.8 303.1 1126.8 308.3 1130.4 312C1134.2 316.1 1140 318.2 1147.3 318.2ZM1204.8 318.2C1215.3 318.2 1223.5 314.4 1229 308.9C1233.4 304.6 1236.1 299.6 1237.5 294.5L1220.8 288.9C1220.1 291.5 1218.7 294.2 1216.4 296.3C1213.7 298.9 1210 300.7 1204.7 300.7C1199.9 300.7 1195.3 298.8 1192 295.6C1188.7 292.2 1186.7 287.2 1186.7 280.9C1186.7 274.5 1188.7 269.6 1192 266.2C1195.3 262.9 1199.7 261.2 1204.5 261.2C1209.6 261.2 1213.2 262.9 1215.8 265.5C1217.9 267.6 1219.2 270.3 1220.1 273L1237 267.3C1235.7 262.3 1233 257.3 1229 253.2C1223.3 247.6 1215 243.7 1204.1 243.7C1194 243.7 1184.9 247.5 1178.3 254.1C1171.7 260.8 1167.8 270 1167.8 280.9C1167.8 291.7 1171.9 301 1178.6 307.7C1185.3 314.4 1194.6 318.2 1204.8 318.2ZM1084.6 318.2C1094.1 318.2 1102 315.2 1107.1 310.2C1110.9 306.4 1113.2 301.2 1113.2 295.2C1113.2 289.8 1111.2 284.9 1107.5 281.2C1103.8 277.5 1098.5 274.8 1091.8 273.5L1080.8 271.4C1076.2 270.5 1073.7 268.3 1073.7 265.1C1073.7 261 1077.7 258.1 1084.1 258.1C1088.1 258.1 1091.5 259.4 1093.8 261.7C1095.2 263.3 1096.2 265.3 1096.5 267.5L1112.3 263.9C1111.9 259.3 1109.7 255.4 1106.5 252.1C1101.4 247 1093.4 243.7 1084 243.7C1075.3 243.7 1068.1 246.5 1063.1 251.1C1058.8 255.1 1056.4 260.5 1056.4 266.5C1056.4 271.8 1058.1 276.2 1061.5 279.6C1064.9 283 1069.9 285.6 1076.5 287.1L1087.3 289.7C1092.7 291 1095.1 293 1095.1 296.5C1095.1 300.9 1091.1 303.5 1084.6 303.5C1079.9 303.5 1076.1 301.9 1073.6 299.4C1071.9 297.7 1070.9 295.4 1070.8 292.8L1054.6 296.4C1055 301.2 1057.3 305.5 1060.7 308.9C1066.1 314.8 1074.8 318.2 1084.6 318.2Z" fill="#4F008C"/>
</g>
<defs>
<clipPath id="clip0_1570_366">
<rect width="1237.7" height="345.2" fill="white"/>
</clipPath>
</defs>
</svg>
