<svg width="60" height="86" viewBox="0 0 60 86" fill="none" xmlns="http://www.w3.org/2000/svg">
<g clip-path="url(#clip0_2_145)">
<path d="M7.40002 76.66C7.40002 76.66 23.75 78.6 29.18 80.28C34.61 81.95 50.01 84.37 51.92 80.83C51.92 80.83 47.4 82.1 33.68 79.26C19.96 76.42 7.40002 76.67 7.40002 76.67" fill="#FF375E"/>
<path d="M50.88 81.35C47.39 83.45 34.42 81.51 29.29 79.93C26.13 78.96 19.43 77.91 14.27 77.19C19.2 77.45 26.26 78.08 33.6 79.6C43.68 81.69 48.81 81.57 50.88 81.35ZM45.24 83C48.65 83 51.42 82.47 52.23 80.99L52.63 80.24L51.81 80.47C51.81 80.47 50.66 80.78 47.86 80.73C45.29 80.69 40.75 80.34 33.74 78.89C20.13 76.07 7.51003 76.29 7.38003 76.29L7.34003 77.01C7.50003 77.03 23.72 78.97 29.06 80.61C31.99 81.51 39.5 83 45.23 83" fill="#FF375E"/>
<path d="M54.07 85.04L55.95 80.03L55.11 74.8L54.4 74.91L55.21 79.95L53.69 84.02C53.44 83.77 53.18 83.37 53.02 83.05V79.58L52.87 79.47C52.79 79.41 50.95 77.98 51.41 74.45L50.7 74.36C50.25 77.78 51.8 79.48 52.3 79.93V83.22L52.34 83.29C52.45 83.52 53.04 84.65 53.75 84.91L54.08 85.03L54.07 85.04Z" fill="#FF375E"/>
<path d="M48.84 75.31H57.19L57.16 74.92C57.16 74.86 56.68 69.23 55.22 63.75C53.66 57.87 42.98 33.27 40.55 29.44C38.03 25.48 34.81 24.03 34.67 23.97C34.51 23.89 30.52 22.05 27.49 21.85L27.44 22.57C30.34 22.76 34.33 24.61 34.37 24.63C34.41 24.65 37.54 26.07 39.94 29.83C42.26 33.47 53.01 58.25 54.53 63.94C55.75 68.53 56.27 73.24 56.41 74.6H49.36C48.57 72.31 42.89 55.95 40.63 51.43C38.24 46.64 36.65 43.48 36.13 40.6L35.42 40.73C35.96 43.71 37.56 46.91 39.98 51.76C42.34 56.48 48.7 74.9 48.76 75.09L48.84 75.33V75.31Z" fill="#FF375E"/>
<path d="M25.57 51.42H24.2V28.1H25.57V51.42ZM23.48 52.14H26.29V27.38H23.48V52.14Z" fill="#FF375E"/>
<path d="M16.0689 19.8515L15.6956 20.4672L22.6817 24.7031L23.055 24.0874L16.0689 19.8515Z" fill="#FF375E"/>
<path d="M9.69998 56.37C10.56 56.37 11.46 56.28 12.33 56.05C14.28 55.53 15.64 54.39 16.38 52.67C18.84 46.89 19.94 39.73 19.95 39.66L19.97 39.5L14.92 33.27L14.64 33.63C14.6 33.69 10.28 39.3 9.44998 40.13C8.57998 41 4.32998 46.59 4.14998 46.83L4.71998 47.26C4.75998 47.2 9.11998 41.47 9.94998 40.63C10.7 39.88 13.94 35.69 14.93 34.42L19.21 39.7C19.04 40.77 17.94 47.16 15.71 52.38C15.07 53.89 13.87 54.88 12.14 55.35C9.14998 56.15 5.56998 55.09 5.18998 54.81C3.91998 53.86 2.10998 52.07 1.04998 47.61C-1.77622e-05 43.14 1.58998 33.41 3.14998 29.67C6.07998 22.67 13.26 23.11 13.33 23.11L13.38 22.39C13.3 22.39 5.60998 21.91 2.47998 29.39C0.879982 33.21 -0.740018 43.18 0.349982 47.77C1.45998 52.45 3.39998 54.35 4.74998 55.37C5.11998 55.65 7.26998 56.36 9.68998 56.36" fill="#FF375E"/>
<path d="M15.57 22.21L9.35999 23.92L9.79999 26.85L15.57 22.21Z" fill="#FF375E"/>
<path d="M4.56002 26.62L4.46002 29.48L11.39 37.85L4.56002 26.62Z" fill="#FF375E"/>
<path d="M40.16 60.1201L40.67 59.6201C40.67 59.6201 38.24 57.1201 37.63 54.1001C36.79 49.9401 36.49 42.2601 36.49 42.1801L35.77 42.2101C35.77 42.2901 36.08 50.0301 36.93 54.2401C37.58 57.4801 40.06 60.0201 40.16 60.1301" fill="#FF375E"/>
<path d="M7.34001 15.1501L11.1 36.1501L4.94001 26.5601L7.34001 15.1601V15.1501ZM11.47 38.0501L12.13 37.7901L7.72001 13.2301L7.37001 12.9301L7.01001 13.1901V13.2201L4.20001 26.5501L4.25001 26.8201L11.47 38.0501Z" fill="#FF375E"/>
<path d="M7.99998 13.09L16.14 5.13L16.24 4.93C16.45 3.54 17.5 2.35 19.18 1.57C20.91 0.779999 23.1 0.529999 25.34 0.869999C27.58 1.21 29.6 2.1 31.01 3.38C32.39 4.62 33.03 6.06 32.82 7.46L33.53 7.57C33.78 5.93 33.06 4.25 31.49 2.85C29.97 1.48 27.82 0.529999 25.44 0.169999C23.06 -0.190001 20.73 0.0799986 18.87 0.929999C17.01 1.78 15.83 3.12 15.54 4.71L7.47998 12.59L7.97998 13.1L7.99998 13.09Z" fill="#FF375E"/>
<path d="M14.92 21.67L9.63998 23.45L7.75998 13.31C7.75998 13.31 7.75998 13.24 7.75998 13.23C7.75998 13.22 7.78998 13.2 7.80998 13.19L18.75 11.18L14.91 21.67H14.92ZM9.07998 24.4L15.48 22.25L19.87 10.25L7.68998 12.49C7.46998 12.54 7.28998 12.66 7.16998 12.85C7.04998 13.03 7.01998 13.25 7.05998 13.46L9.07998 24.4Z" fill="#FF375E"/>
<path d="M33.9 8.67006C34.24 8.67006 34.54 8.43006 34.61 8.08006C34.68 7.69006 34.42 7.32006 34.03 7.25006L15.34 3.90006C14.95 3.83006 14.57 4.09006 14.51 4.48006C14.44 4.87006 14.7 5.24006 15.09 5.32006L33.78 8.66006C33.78 8.66006 33.86 8.67006 33.91 8.67006" fill="#FF375E"/>
<path d="M9.3587 30.7645L8.74744 31.145L9.05393 31.6374L9.66519 31.2569L9.3587 30.7645Z" fill="#FF375E"/>
<path d="M8.22426 28.3249L7.61267 28.7048L7.91874 29.1975L8.53033 28.8176L8.22426 28.3249Z" fill="#FF375E"/>
<path d="M7.5548 24.879L6.94354 25.2595L7.25004 25.7519L7.8613 25.3714L7.5548 24.879Z" fill="#FF375E"/>
<path d="M7.85827 21.0182L7.24701 21.3987L7.5535 21.8911L8.16476 21.5106L7.85827 21.0182Z" fill="#FF375E"/>
<path d="M7.24184 17.6756L6.63025 18.0555L6.93631 18.5482L7.5479 18.1683L7.24184 17.6756Z" fill="#FF375E"/>
<path d="M5.9555 23.442L5.34424 23.8225L5.65073 24.3149L6.26199 23.9344L5.9555 23.442Z" fill="#FF375E"/>
<path d="M11.9437 10.8604L11.3339 10.9724L11.464 11.6806L12.0738 11.5685L11.9437 10.8604Z" fill="#FF375E"/>
<path d="M14.6336 8.06511L14.024 8.1781L14.1552 8.88604L14.7648 8.77306L14.6336 8.06511Z" fill="#FF375E"/>
<path d="M17.5518 6.3804L16.942 6.49243L17.0721 7.20058L17.6819 7.08855L17.5518 6.3804Z" fill="#FF375E"/>
<path d="M18.2973 9.58111L17.6877 9.69409L17.8189 10.402L18.4285 10.289L18.2973 9.58111Z" fill="#FF375E"/>
<path d="M20.8344 6.85806L20.2246 6.97009L20.3547 7.67824L20.9645 7.56621L20.8344 6.85806Z" fill="#FF375E"/>
<path d="M24.5002 8.1845L23.8906 8.29749L24.0218 9.00543L24.6314 8.89244L24.5002 8.1845Z" fill="#FF375E"/>
<path d="M18.89 2.09998H17.86V2.81998H18.89V2.09998Z" fill="#FF375E"/>
<path d="M22.5 0.699951H21.75V1.41995H22.5V0.699951Z" fill="#FF375E"/>
<path d="M21.99 3.80005H21.24V4.52005H21.99V3.80005Z" fill="#FF375E"/>
<path d="M25.18 3.27002H24.43V3.99002H25.18V3.27002Z" fill="#FF375E"/>
<path d="M28.21 4.95996H27.46V5.67996H28.21V4.95996Z" fill="#FF375E"/>
<path d="M31.82 4.56006H31.07V5.28006H31.82V4.56006Z" fill="#FF375E"/>
<path d="M29.18 1.66003H28.43V2.38003H29.18V1.66003Z" fill="#FF375E"/>
<path d="M21.67 9.93004L21.61 14.73C21.61 14.73 22.3 16.57 23.95 16.68C25.59 16.79 31.81 14.98 31.81 14.98C31.81 14.98 31.23 20.17 28.8 21.7C26.37 23.23 23.41 23.03 21.83 22.14C19.93 21.08 19.42 19.73 19.09 18.34C18.67 16.59 19.09 11.32 19.09 11.32L19.46 10.31L21.68 9.92004L21.67 9.93004Z" fill="#FF375E"/>
<path d="M31.57 15.84C31.63 15.64 33.15 10.92 32.39 7.53003L31.69 7.69003C32.41 10.88 30.9 15.57 30.88 15.62L31.56 15.84H31.57Z" fill="#FF375E"/>
<path d="M30.3514 6.98965L19.2034 10.3724L19.4124 11.0614L30.5605 7.67863L30.3514 6.98965Z" fill="#FF375E"/>
<path d="M21.02 28.72L25.76 18.19C26.17 17.27 27.26 16.87 28.17 17.3L31.66 18.95C32.54 19.37 32.93 20.41 32.54 21.3L28.69 30.05C28.29 30.95 27.24 31.37 26.34 30.98L21.01 28.72H21.02Z" fill="#FF375E"/>
<path d="M27.41 17.48C27.62 17.48 27.83 17.53 28.02 17.62L31.51 19.27C32.22 19.61 32.53 20.43 32.21 21.16L28.36 29.91C28.04 30.63 27.2 30.96 26.48 30.66L21.49 28.54L26.08 18.34C26.24 17.98 26.53 17.71 26.9 17.58C27.06 17.52 27.23 17.49 27.4 17.49M27.04 31.48C27.87 31.48 28.67 31 29.03 30.19L32.88 21.44C33.35 20.36 32.89 19.12 31.83 18.62L28.34 16.97C27.81 16.72 27.22 16.69 26.67 16.9C26.12 17.1 25.69 17.51 25.45 18.04L20.56 28.91L26.22 31.32C26.49 31.44 26.78 31.49 27.06 31.49" fill="#FF375E"/>
<path d="M24.52 33.86L18.69 38L16.01 34.63L16.4 34.35C16.77 34.09 17.04 33.72 17.19 33.29C17.51 32.34 18.38 30 19.58 28.77C20.14 28.2 20.55 27.71 20.89 27.32C21.23 26.92 21.56 26.53 21.73 26.46C21.71 26.89 21.26 28.19 20.37 30.03C20.29 30.19 20.33 30.37 20.45 30.49C20.57 30.61 20.76 30.63 20.91 30.55C21.52 30.22 24.62 28.45 25.77 26.47C26.47 25.26 27.14 24.84 27.38 24.78C27.38 24.83 27.36 24.92 27.31 25.04C26.95 26.02 25.54 29.36 22.64 30.99L22.99 31.62C23.86 31.13 24.61 30.5 25.24 29.82C25.18 31.08 24.64 33.32 24.51 33.87M18.55 38.97L25.15 34.29L25.18 34.16C25.22 34.02 25.98 30.43 25.87 29.08C25.87 29.08 27.74 25.97 27.99 25.29C28.3 24.46 27.88 24.18 27.74 24.12C27.09 23.81 26 24.65 25.15 26.12C24.38 27.45 22.59 28.71 21.46 29.41C22.9 26.24 22.39 25.97 22.14 25.84C21.5 25.5 21.04 26.05 20.33 26.87C20 27.26 19.59 27.73 19.06 28.28C17.8 29.57 16.92 31.83 16.5 33.07C16.4 33.36 16.22 33.6 15.98 33.77L14.96 34.49L18.54 38.99L18.55 38.97Z" fill="#FF375E"/>
<path d="M15.3935 21.6533L15.0151 22.2659L21.7876 26.4486L22.1659 25.836L15.3935 21.6533Z" fill="#FF375E"/>
<path d="M44.05 61.05C40.86 60.12 37.74 59.55 35.34 59.2L35.44 58.49C37.74 58.82 40.71 59.37 43.78 60.23L44.04 61.05H44.05Z" fill="#FF375E"/>
<path d="M55.25 77.9C57.23 76.23 58.34 74.77 58.51 73.6C58.75 72 58.19 70.19 56.94 68.51C56.54 67.97 56.09 67.47 55.6 66.99L55.32 65.77C56.15 66.48 56.89 67.24 57.52 68.08C58.88 69.92 59.49 71.92 59.22 73.71C59.01 75.11 57.74 76.78 55.42 78.69L55.24 77.9H55.25Z" fill="#FF375E"/>
<path d="M52.63 79.89C52.33 80.1 52.03 80.3 51.71 80.51L51.68 80.53C51.53 80.63 49.12 82.05 35 79.14C23.45 76.75 15.33 76.6 10.97 76.52C9.68 76.5 8.66999 76.48 7.99999 76.41C7.32999 76.34 6.70999 76.01 6.26999 75.48C0.279995 68.2 2.34999 60.08 5.05999 56.67C6.04999 55.42 8.56999 54.96 12.36 55.31C15.29 55.59 17.94 56.28 17.97 56.28L18.15 55.58C17.71 55.46 7.22999 52.77 4.49999 56.21C1.64999 59.8 -0.540006 68.32 5.71999 75.92C6.27999 76.6 7.06999 77.03 7.92999 77.11C8.62999 77.18 9.66 77.2 10.96 77.22C15.3 77.3 23.37 77.46 34.86 79.83C41.82 81.27 46.01 81.66 48.53 81.66C51.17 81.66 51.95 81.22 52.13 81.08C52.34 80.94 52.54 80.81 52.74 80.67L52.64 79.86L52.63 79.89Z" fill="#FF375E"/>
</g>
<defs>
<clipPath id="clip0_2_145">
<rect width="59.28" height="85.04" fill="white"/>
</clipPath>
</defs>
</svg>
