<svg width="66" height="73" viewBox="0 0 66 73" fill="none" xmlns="http://www.w3.org/2000/svg">
<path d="M28.5897 29.69C28.7297 29.93 28.8896 30.17 29.0696 30.39C28.1896 31.82 27.4697 33.35 26.9397 34.89C26.5597 33.31 26.1097 31.75 25.5997 30.22C26.5697 29.25 27.2597 28.08 27.6697 26.79C27.7397 27.78 28.0497 28.76 28.5997 29.69M18.4597 28.05C18.4597 31.6 15.5697 34.5 12.0097 34.5C8.44967 34.5 5.55966 31.61 5.55966 28.05C5.55966 24.49 8.44967 21.6 12.0097 21.6C15.5697 21.6 18.4597 24.49 18.4597 28.05ZM22.7997 29.6C22.0697 30.06 21.2297 30.35 20.3497 30.46C20.5797 29.68 20.6897 28.87 20.6897 28.06C20.6897 23.27 16.7997 19.38 12.0097 19.38C11.4397 19.38 10.8797 19.44 10.3197 19.55C10.2497 18.95 10.1997 18.34 10.1397 17.69C9.94968 15.67 9.75966 13.74 9.14966 11.99C16.7397 16.25 20.8397 23.72 22.9797 29.51C22.9197 29.55 22.8697 29.59 22.8097 29.62M10.9297 10.43C13.7997 10.69 16.4997 11.56 18.8297 12.99C21.8597 14.85 24.1997 17.63 25.2597 20.6C26.2497 23.39 26.0497 25.91 24.7197 27.81C21.6497 19.99 16.9197 14.04 10.9297 10.44M49.3397 33.25C49.3397 36.81 46.4496 39.7 42.8896 39.7C39.3296 39.7 36.4396 36.81 36.4396 33.25C36.4396 29.69 39.3296 26.8 42.8896 26.8C46.4496 26.8 49.3397 29.69 49.3397 33.25ZM33.4197 28.28C35.4897 26.02 38.9696 23.29 44.0696 22.49C43.5296 23.13 43.0496 23.84 42.5696 24.58C38.8796 24.71 35.6797 27.18 34.5897 30.71C34.1997 30.71 33.7996 30.65 33.3896 30.56C32.8896 30.45 32.4097 30.26 31.9797 30.01C32.4297 29.41 32.8997 28.83 33.4097 28.28M31.7797 26.77C31.2997 27.29 30.8497 27.83 30.4297 28.4C29.3597 26.4 29.9097 24.12 31.9097 22.25C33.7997 20.48 36.2897 19.55 39.0997 19.55C40.5897 19.55 42.1197 19.81 43.5897 20.31C37.9597 21.23 34.0997 24.26 31.7797 26.78M23.7297 57.9C23.7297 57.9 27.1697 58.01 31.0897 58.01C33.9497 58.01 37.8497 57.95 40.1697 57.65C40.7897 57.56 41.2096 57.02 41.1296 56.4C41.0596 55.79 40.4896 55.36 39.8796 55.43C35.3396 56.01 23.8997 55.67 23.7697 55.66C23.3097 55.66 22.8997 55.59 22.5597 55.46C21.6097 55.1 20.8997 54.34 20.7497 53.51C20.5897 52.64 20.8397 52.08 21.6597 51.52C21.6697 51.51 21.8197 51.42 22.2197 51.31C22.7997 51.17 23.3497 51.15 24.0597 51.15H24.5597C26.1997 51.15 28.0597 51.15 31.9797 50.86C34.7197 50.64 36.1197 50.19 37.4797 49.74C37.9497 49.58 38.3897 49.44 38.8697 49.31C41.4497 48.62 44.0697 48.74 47.3697 49.68C49.5397 50.3 52.8196 52.57 54.1296 53.52C54.4596 53.76 54.8397 54.02 55.2497 54.29L48.8597 64.7L48.3196 64.39C47.0396 63.66 45.5497 63.38 44.0997 63.56C42.5697 63.77 40.8397 64.06 38.9997 64.37L38.7596 64.41C36.1196 64.86 33.1297 65.36 31.0197 65.55C29.1197 65.75 27.2497 65.33 25.5897 64.45C25.4397 64.36 10.7797 55.62 3.12967 46.51C3.10967 46.48 3.05967 46.42 3.03967 46.4C1.87967 45.23 2.01967 43.7 2.81967 42.89C3.25967 42.45 3.91966 42.16 4.64966 42.16C5.23966 42.16 5.86967 42.35 6.46967 42.79L18.4897 52.45C18.4197 52.91 18.4297 53.39 18.5297 53.91C18.8197 55.51 20.0597 56.9 21.7497 57.55C22.3397 57.77 22.9997 57.89 23.6997 57.9M25.8297 41.32C25.8497 41.52 25.8797 41.71 25.8997 41.92C25.9097 42.06 25.9297 42.2 25.9597 42.41C25.9797 42.62 25.9997 42.81 26.0197 42.98C25.7497 43 25.4797 43.04 25.2197 43.08C24.5797 43.18 24.0097 43.33 23.5197 43.51C22.9797 43.71 22.5197 43.98 22.1597 44.29C21.6997 44.7 21.6697 45.41 22.0797 45.87C22.4997 46.33 23.1897 46.36 23.6597 45.94C23.7197 45.89 23.8897 45.75 24.3097 45.6C24.6797 45.46 25.0997 45.35 25.5797 45.28C26.6097 45.12 27.8397 45.12 28.8697 45.28C29.3497 45.36 29.7696 45.46 30.1296 45.6C30.5396 45.75 30.7297 45.9 30.7797 45.95C30.9997 46.15 31.2697 46.22 31.5797 46.24C31.8797 46.22 32.1597 46.09 32.3597 45.87C32.7697 45.42 32.7297 44.71 32.2697 44.29C31.9197 43.98 31.4697 43.72 30.9197 43.51C30.4397 43.33 29.8597 43.18 29.2097 43.08C28.8897 43.03 28.5697 42.99 28.2597 42.97C28.2297 42.58 28.1797 42.09 28.1097 41.53C28.1097 41.46 28.1097 41.39 28.1097 41.32C31.9397 41.59 34.7897 43.21 36.1797 44.18L39.9097 46.82C39.3697 46.91 38.8396 47.02 38.3196 47.16C37.8196 47.3 37.3597 47.44 36.7997 47.62C35.5697 48.03 34.2997 48.45 31.8297 48.64C28.0097 48.94 26.2897 48.94 24.5897 48.93H24.0997C23.2297 48.95 22.4997 48.96 21.6997 49.16C21.1697 49.29 20.7497 49.46 20.4197 49.69C20.0897 49.92 19.7997 50.16 19.5497 50.43L14.0397 46L19.4297 43.12C21.5497 42.09 23.7097 41.49 25.8397 41.33M55.3997 65.49C55.1597 65.33 54.8297 65.41 54.6797 65.65L53.5897 67.37L50.8196 65.79L57.1597 55.47C58.7397 56.43 60.2697 57.31 60.7697 57.59C61.2897 57.88 61.9897 57.7 62.2897 57.16C62.4497 56.88 62.5397 56.35 62.4097 55.9L63.0096 56.27L56.6396 66.64C56.6696 66.44 56.5897 66.23 56.3997 66.12L55.3896 65.49H55.3997ZM65.2697 55.73C65.1497 55.21 64.8296 54.77 64.3796 54.5L59.3597 51.44C58.4097 50.86 57.1897 51.16 56.6197 52.09L56.4396 52.38C56.0796 52.14 55.7397 51.92 55.4597 51.71C53.7197 50.45 50.4397 48.23 47.9997 47.53C46.3897 47.08 44.9497 46.8 43.5997 46.7C43.5797 46.69 43.5697 46.68 43.5497 46.66L37.4597 42.35C36.1997 41.47 32.8397 39.44 28.2097 39.12C28.5097 36.73 29.4096 34.2 30.7596 31.88C31.3996 32.27 32.1197 32.56 32.8997 32.74C33.3297 32.84 33.7697 32.9 34.2197 32.93C34.2197 33.04 34.2197 33.15 34.2197 33.26C34.2197 38.05 38.1097 41.94 42.8997 41.94C47.6897 41.94 51.5797 38.04 51.5797 33.26C51.5797 29.26 48.8897 25.84 45.0897 24.86C46.0197 23.54 46.8596 22.69 48.0096 22.28C48.5496 22.21 48.9797 21.76 48.9897 21.21C49.0097 20.7 48.6897 20.26 48.2197 20.1C45.1297 18.05 41.7597 17.1 38.3097 17.33C35.2897 17.54 32.3996 18.74 30.3896 20.62C29.3196 21.62 28.5497 22.74 28.1097 23.91C28.1097 22.61 27.8697 21.24 27.3797 19.86C26.1497 16.4 23.4697 13.21 20.0197 11.1C16.0397 8.65998 11.2597 7.68999 6.19968 8.29999C6.16968 8.29999 6.01966 8.34 5.99966 8.34C5.95966 8.35 5.81966 8.40999 5.77966 8.42999C5.55966 8.54999 5.38967 8.73997 5.28967 8.96997C5.27967 8.99997 5.25966 9.02998 5.24966 9.06998C5.16966 9.30998 5.17965 9.56999 5.26965 9.79999C5.26965 9.81999 5.34968 9.97999 5.35968 9.98999C5.41968 10.09 5.47966 10.16 5.52966 10.21C7.38966 12.09 7.64967 14.95 7.93967 18.03C8.00967 18.78 8.07966 19.54 8.17966 20.3C5.22966 21.77 3.34967 24.78 3.34967 28.08C3.34967 32.87 7.23966 36.76 12.0297 36.76C14.9697 36.76 17.7397 35.24 19.3397 32.76C20.9297 32.8 22.4397 32.43 23.7397 31.68C24.4997 34.07 25.0997 36.58 25.5297 39.15C23.1397 39.35 20.7597 40.01 18.4197 41.15L12.1597 44.49L7.78967 40.98C5.71967 39.5 2.98967 39.65 1.28967 41.34C-0.280327 42.91 -0.630324 45.82 1.44968 47.95C9.37968 57.4 24.3697 66.33 24.5097 66.42C24.5097 66.42 24.5297 66.43 24.5497 66.44C26.6097 67.54 28.9197 67.99 31.2497 67.81C33.3597 67.63 36.2097 67.15 38.9697 66.68L39.1697 66.65C41.0797 66.32 42.8796 66.02 44.4396 65.81C45.4096 65.67 46.3996 65.87 47.2596 66.36L47.7897 66.66C47.6797 67 47.6696 67.36 47.7596 67.71C47.8796 68.22 48.1997 68.67 48.6597 68.95L53.6797 72.01C53.9997 72.2 54.3497 72.31 54.7197 72.31C55.4197 72.31 56.0597 71.95 56.4297 71.36L65.0696 57.28C65.3496 56.84 65.4397 56.28 65.3097 55.77" fill="#FF375E"/>
<path d="M31.5197 2.23001C35.0697 2.23001 37.9597 5.12002 37.9597 8.68002C37.9597 12.24 35.0697 15.13 31.5197 15.13C27.9697 15.13 25.0697 12.24 25.0697 8.68002C25.0697 5.12002 27.9597 2.23001 31.5197 2.23001ZM31.5197 17.36C36.3097 17.36 40.1996 13.47 40.1996 8.68002C40.1996 3.89002 36.3097 0 31.5197 0C26.7297 0 22.8397 3.90002 22.8397 8.68002C22.8397 13.46 26.7297 17.36 31.5197 17.36Z" fill="#FF375E"/>
<path d="M30.0897 6.22C30.0897 5.59 30.6397 5.06 31.3897 4.88V7.56C30.6397 7.37 30.0897 6.83 30.0897 6.22ZM32.5697 8.89999C33.4197 9.09999 34.0497 9.70001 34.0497 10.42C34.0497 11.14 33.4297 11.74 32.5697 11.94V8.89999ZM31.3897 13.15V13.28C31.3897 13.61 31.6497 13.87 31.9797 13.87C32.3097 13.87 32.5697 13.61 32.5697 13.28V13.15C34.0897 12.91 35.2397 11.78 35.2397 10.42C35.2397 9.06001 34.0897 7.93 32.5697 7.69V4.89999C33.2797 5.09999 33.7797 5.62 33.7797 6.22C33.7797 6.55 34.0497 6.82001 34.3797 6.82001C34.7097 6.82001 34.9697 6.56 34.9697 6.22C34.9697 4.98 33.9397 3.94 32.5697 3.69V3.48001C32.5697 3.15001 32.3097 2.89001 31.9797 2.89001C31.6497 2.89001 31.3897 3.15001 31.3897 3.48001V3.67001C29.9797 3.89001 28.9097 4.95 28.9097 6.22C28.9097 7.49 29.9797 8.54 31.3897 8.78V11.94C30.5397 11.74 29.9097 11.14 29.9097 10.42C29.9097 10.09 29.6497 9.83002 29.3197 9.83002C28.9897 9.83002 28.7197 10.1 28.7197 10.42C28.7197 11.78 29.8697 12.91 31.3797 13.15" fill="#FF375E"/>
<path d="M12.3696 31.6201V28.5801C13.2196 28.7801 13.8496 29.3801 13.8496 30.1001C13.8496 30.8201 13.2296 31.4201 12.3696 31.6201ZM11.1796 27.2401C10.4296 27.0501 9.87964 26.5101 9.87964 25.9001C9.87964 25.2901 10.4196 24.7401 11.1796 24.5601V27.2401ZM12.3696 27.3701V24.5901C13.0796 24.7901 13.5796 25.3001 13.5796 25.9101C13.5796 26.2401 13.8396 26.5001 14.1696 26.5001C14.4996 26.5001 14.7596 26.2401 14.7596 25.9101C14.7596 24.6701 13.7296 23.6201 12.3596 23.3701V23.1701C12.3596 22.8401 12.0996 22.5701 11.7596 22.5701C11.4196 22.5701 11.1696 22.8301 11.1696 23.1701V23.36C9.75965 23.58 8.67963 24.6401 8.67963 25.9101C8.67963 27.1801 9.74965 28.2301 11.1696 28.4601V31.6201C10.3196 31.4201 9.68964 30.8201 9.68964 30.1001C9.68964 29.7701 9.41963 29.5001 9.08963 29.5001C8.75963 29.5001 8.49963 29.7701 8.49963 30.1001C8.49963 31.4601 9.64965 32.5901 11.1696 32.8301V32.9601C11.1696 33.2901 11.4296 33.55 11.7596 33.55C12.0896 33.55 12.3596 33.2901 12.3596 32.9601V32.8301C13.8696 32.5901 15.0196 31.4601 15.0196 30.1001C15.0196 28.7401 13.8696 27.6101 12.3596 27.3701" fill="#FF375E"/>
<path d="M43.2497 33.77C44.0997 33.97 44.7297 34.57 44.7297 35.29C44.7297 36.01 44.1097 36.62 43.2497 36.81V33.76V33.77ZM42.0696 32.45C41.3196 32.26 40.7697 31.72 40.7697 31.1C40.7697 30.48 41.3196 29.94 42.0696 29.76V32.45ZM42.0696 28.36V28.55C40.6596 28.78 39.5897 29.83 39.5897 31.1C39.5897 32.37 40.6596 33.42 42.0696 33.65V36.81C41.2196 36.61 40.5897 36.01 40.5897 35.29C40.5897 34.96 40.3297 34.7 39.9997 34.7C39.6697 34.7 39.4097 34.96 39.4097 35.29C39.4097 36.65 40.5596 37.78 42.0696 38.02V38.15C42.0696 38.48 42.3297 38.75 42.6597 38.75C42.9897 38.75 43.2497 38.48 43.2497 38.15V38.02C44.7697 37.78 45.9197 36.65 45.9197 35.29C45.9197 33.93 44.7697 32.8 43.2497 32.56V29.77C43.9597 29.97 44.4597 30.48 44.4597 31.09C44.4597 31.42 44.7297 31.69 45.0597 31.69C45.3897 31.69 45.6497 31.42 45.6497 31.09C45.6497 29.85 44.6197 28.8 43.2497 28.56V28.35C43.2497 28.02 42.9897 27.76 42.6597 27.76C42.3297 27.76 42.0696 28.03 42.0696 28.35" fill="#FF375E"/>
</svg>
