<svg width="71" height="73" viewBox="0 0 71 73" fill="none" xmlns="http://www.w3.org/2000/svg">
<path d="M14.98 20.92L25.13 31.43M40.55 47.35L47.32 54.33M11.31 61.72L25.2 47.35M40.64 31.53L59.97 11.52M16.54 16.99C16.54 20.09 14.1 22.61 11.09 22.61C8.08 22.61 5.64001 20.09 5.64001 16.99C5.64001 13.89 8.08 11.37 11.09 11.37C14.1 11.37 16.54 13.88 16.54 16.99ZM56.52 58.18C56.52 61.28 54.08 63.8 51.07 63.8C48.06 63.8 45.62 61.29 45.62 58.18C45.62 55.07 48.06 52.56 51.07 52.56C54.08 52.56 56.52 55.07 56.52 58.18ZM12.9 65.67C12.9 68.77 10.46 71.29 7.45001 71.29C4.44001 71.29 2 68.78 2 65.67C2 62.56 4.44001 60.05 7.45001 60.05C10.46 60.05 12.9 62.56 12.9 65.67ZM69.24 7.62C69.24 10.72 66.8 13.24 63.79 13.24C60.78 13.24 58.34 10.72 58.34 7.62C58.34 4.52 60.78 2 63.79 2C66.8 2 69.24 4.51 69.24 7.62ZM43.67 39.39C43.67 33.22 38.82 28.22 32.83 28.22C26.84 28.22 21.99 33.22 21.99 39.39C21.99 45.56 26.84 50.56 32.83 50.56C38.82 50.56 43.67 45.56 43.67 39.39Z" stroke="#FF375E" stroke-width="3" stroke-miterlimit="10"/>
</svg>
