<svg width="73" height="73" viewBox="0 0 73 73" fill="none" xmlns="http://www.w3.org/2000/svg">
<g clip-path="url(#clip0_2_25)">
<path d="M69.38 58.56L68.48 58.32L69.99 52.52L70.89 52.76L69.38 58.56ZM45 56.44L41.58 48.12L64.24 52.39L63.43 57.01L45 56.44ZM45.58 69.23C44.53 70.5 43.05 71.29 41.41 71.44C39.77 71.59 38.17 71.09 36.91 70.03L35.16 68.56V68.15H34.68L15.87 52.35L15.35 52.97L18.85 55.91L31.47 68.15H0.81V54.15C0.81 48.3 2.09 42.29 4.33 37.66C5.8 34.62 7.57 32.42 9.26 31.46C9.12 31.88 9.04 32.42 9.09 33.07C9.3 35.42 11.27 37.96 14.94 40.63C14.02 42.4 14.41 44.61 15.98 45.95L23.23 52.13L23.57 52.42L24.17 51.74C24.6 51.26 24.57 50.53 24.1 50.09C23.87 49.87 23.56 49.76 23.25 49.77C22.93 49.78 22.64 49.92 22.42 50.15L22.31 50.27L16.51 45.32C15.07 44.09 14.85 41.96 16 40.46C17.02 39.13 18.8 38.7 20.32 39.4L26.76 42.39L26.72 42.48C26.44 43.06 26.67 43.75 27.24 44.05C27.41 44.14 27.6 44.18 27.78 44.18C27.9 44.18 28.03 44.16 28.15 44.12C28.45 44.02 28.7 43.81 28.84 43.53L29.28 42.67L27.12 41.66L20.67 38.66C18.81 37.8 16.64 38.32 15.38 39.93C11.12 36.81 10.04 34.45 9.9 33.01C9.79 31.89 10.21 31.21 10.38 30.99C10.41 30.99 10.44 30.98 10.46 30.97L24.98 38.29L28.97 38.26L32.65 57.79L33.54 57.61L33.52 57.52L33.99 57.42L29.66 37.52L29.76 37.47L29.57 37.09L28.39 31.65L32.93 30.42L46.49 62.95C47.36 65.04 47.01 67.44 45.57 69.19M26.86 34.18L22.9 30.34V27.11C23.08 27.09 23.26 27.07 23.45 27.03L25.81 27.74C26.39 27.91 26.85 28.36 27.03 28.94L27.69 31.04L27.45 31.11L28.35 35.27C27.92 34.83 27.42 34.47 26.87 34.19M18.04 31.04C17.92 31 17.81 30.96 17.69 30.93H22.34L24.96 33.46L18.05 31.04H18.04ZM27.85 22.18C27.93 21.8 27.97 21.4 27.98 20.99L28.96 21.94C29.86 22.81 30.56 23.9 30.98 25.08L32.41 29.06L28.31 30.32L27.81 28.71C27.55 27.88 26.89 27.23 26.05 26.98L24.81 26.61C26.39 25.85 27.41 24.37 27.85 22.19M11.47 28.36C12.62 27.94 13.49 27.27 14.07 26.38C15.23 24.59 14.77 22.56 14.75 22.48L14.61 21.87L14.11 22.25C13.47 22.73 12.37 22.77 11.36 22.33C10.14 21.8 9.33 20.74 9.2 19.49C9.13 18.84 9.23 18.38 9.5 18.12C9.99 17.65 11.05 17.82 11.75 17.92C12.01 17.96 12.24 18 12.42 18C13.52 18 13.94 17.02 13.96 16.97L14.04 16.77L13.92 16.59C13.92 16.59 13.03 15.21 13.15 12.18C13.27 9.27 15.44 7.45 19.8 6.62C19.98 6.58 20.15 6.54 20.32 6.5C21.09 7.46 28.15 16.52 27.06 22.01C26.67 23.95 25.78 25.26 24.4 25.89C22.51 26.76 20.23 26.12 19.48 25.7L19.08 26.41C19.63 26.72 20.79 27.11 22.1 27.14V30.11H11.48V28.36H11.47ZM66.05 57.45L64.92 57.01L65.52 52.98L67.11 53.23L66.04 57.45H66.05ZM72.68 41.58C72.61 41.46 72.5 41.38 72.37 41.35L70.86 40.96C70.59 40.89 70.32 41.05 70.25 41.32L67.35 52.45L65.11 52.09L65.17 51.74L40.76 47.14L33.55 29.83L31.74 24.8C31.27 23.51 30.51 22.32 29.52 21.36L27.92 19.8C27.34 14.43 22.38 7.82 21.14 6.24C22.51 5.69 23 4.87 23.14 4.2C23.42 2.94 22.66 1.63 21.76 0.989999C20.01 -0.270001 16.17 -0.610001 13.87 1.68C12.81 2.74 11.36 2.73 9.69 2.72C8.29 2.72 6.84 2.7 5.46 3.34C2.34 4.79 2.64 7.13 3.01 10.1L3.03 10.29C3.21 11.7 2.67 12.26 1.99 12.97C1.3 13.69 0.51 14.51 0.38 16.29C0.22 18.36 1.02 18.98 1.8 19.58C2.39 20.03 3 20.5 3.37 21.74C3.51 22.2 3.63 22.71 3.75 23.24C4.35 25.79 5.08 28.9 8.67 28.9C9.12 28.9 9.62 28.85 10.17 28.74C10.34 28.71 10.5 28.67 10.66 28.63V30.16C5.73 30.72 0 41.22 0 54.18V68.99H34.38L36.39 70.67C37.65 71.73 39.21 72.29 40.84 72.29C41.06 72.29 41.28 72.28 41.49 72.26C43.35 72.09 45.03 71.2 46.21 69.75C47.84 67.76 48.24 65.06 47.25 62.69L44.98 57.26L64.11 57.85L64.16 57.59L65.85 58.25L63.27 68.15C63.23 68.28 63.25 68.42 63.32 68.53C63.39 68.64 63.5 68.73 63.63 68.76L65.13 69.15C65.13 69.15 65.21 69.17 65.26 69.17C65.48 69.17 65.68 69.02 65.74 68.8L68.27 59.11L69.42 59.41C69.42 59.41 69.51 59.43 69.56 59.43C69.81 59.43 70.04 59.26 70.1 59.01L71.74 52.72C71.82 52.42 71.64 52.12 71.34 52.04L70.19 51.74L72.74 41.96C72.77 41.83 72.75 41.7 72.69 41.58" fill="#FF375E"/>
</g>
<defs>
<clipPath id="clip0_2_25">
<rect width="72.75" height="72.28" fill="white"/>
</clipPath>
</defs>
</svg>
