<svg width="62" height="72" viewBox="0 0 62 72" fill="none" xmlns="http://www.w3.org/2000/svg">
<g clip-path="url(#clip0_2_28)">
<path d="M17.2 69.6499H44.1801V11.9099H17.2V69.6499ZM46.9399 72.3999H14.4399V11.8199C14.4399 10.3399 15.64 9.1499 17.11 9.1499H44.26C45.73 9.1499 46.9399 10.3499 46.9399 11.8199V72.3999Z" fill="#FF375E"/>
<path d="M46.9399 69.65H59.05V30.52H46.9399V69.65ZM59.14 72.4H44.1899V27.75H59.14C60.61 27.75 61.8101 28.95 61.8101 30.43V69.73C61.8101 71.2 60.61 72.4 59.14 72.4Z" fill="#FF375E"/>
<path d="M39.13 18.4099H22.25V20.1199H39.13V18.4099Z" fill="#FF375E"/>
<path d="M60.4399 63.22H45.5699V65.98H60.4399V63.22Z" fill="#FF375E"/>
<path d="M2.32996 69.65H14.4399V30.52H2.32996V69.65ZM17.2 72.4H-0.430054V30.43C-0.430054 28.95 0.77 27.75 2.25 27.75H17.2V72.4Z" fill="#FF375E"/>
<path d="M15.8199 63.22H0.949951V65.98H15.8199V63.22Z" fill="#FF375E"/>
<path d="M26.1899 28.9299H23.4301V31.6899H26.1899V28.9299Z" fill="#FF375E"/>
<path d="M37.97 28.9299H35.21V31.6899H37.97V28.9299Z" fill="#FF375E"/>
<path d="M26.1899 40.1401H23.4301V42.9001H26.1899V40.1401Z" fill="#FF375E"/>
<path d="M37.97 40.1401H35.21V42.9001H37.97V40.1401Z" fill="#FF375E"/>
<path d="M26.1899 51.3401H23.4301V54.1001H26.1899V51.3401Z" fill="#FF375E"/>
<path d="M37.97 51.3401H35.21V54.1001H37.97V51.3401Z" fill="#FF375E"/>
<path d="M32.08 0.120117H29.3199V10.0201H32.08V0.120117Z" fill="#FF375E"/>
<path d="M9.77002 38.46H7.01001V55.27H9.77002V38.46Z" fill="#FF375E"/>
<path d="M54.38 38.46H51.62V55.27H54.38V38.46Z" fill="#FF375E"/>
</g>
<defs>
<clipPath id="clip0_2_28">
<rect width="62" height="72" fill="white"/>
</clipPath>
</defs>
</svg>
