<svg width="71" height="63" viewBox="0 0 71 63" fill="none" xmlns="http://www.w3.org/2000/svg">
<g clip-path="url(#clip0_2_22)">
<path d="M67.7 59.69H62.55V43.87C62.55 43.16 61.98 42.58 61.28 42.58C60.58 42.58 60 43.16 60 43.87V59.69H44.73V42.62C44.73 37.93 43.3 33.59 40.87 29.97C43.19 28.45 45.88 27.47 48.78 27.22C47.31 27.82 46.28 29.28 46.28 30.98C46.28 32.01 46.66 32.95 47.29 33.67L45.83 52.74C45.81 52.96 45.91 53.17 46.09 53.31L49.91 56.12C50.02 56.2 50.15 56.24 50.28 56.24C50.41 56.24 50.55 56.2 50.66 56.12L54.49 53.31C54.67 53.17 54.77 52.96 54.75 52.74L53.3 33.67C53.93 32.95 54.31 32.01 54.31 30.98C54.31 29.28 53.27 27.82 51.81 27.22C60.7 28 67.7 35.56 67.7 44.74V59.68V59.69ZM41.88 59.38H36.1V41.65C36.1 40.85 35.46 40.21 34.67 40.21C33.88 40.21 33.24 40.86 33.24 41.65V59.38H11.48V41.65C11.48 40.85 10.84 40.21 10.05 40.21C9.26 40.21 8.62 40.86 8.62 41.65V59.38H2.86V42.63C2.86 32.33 10.7 23.86 20.67 22.98C19.02 23.66 17.86 25.29 17.86 27.2C17.86 28.36 18.29 29.41 19 30.21L17.36 51.59C17.34 51.84 17.45 52.08 17.66 52.23L21.94 55.38C22.07 55.47 22.22 55.52 22.36 55.52C22.51 55.52 22.66 55.48 22.78 55.38L27.07 52.23C27.27 52.08 27.38 51.84 27.36 51.59L25.73 30.21C26.44 29.41 26.87 28.35 26.87 27.2C26.87 25.29 25.71 23.66 24.06 22.98C34.03 23.85 41.87 32.33 41.87 42.63V59.38H41.88ZM25.91 51.3L22.36 53.91L18.81 51.3L20.35 31.27C20.95 31.58 21.64 31.76 22.37 31.76C23.1 31.76 23.78 31.58 24.39 31.27L25.92 51.3H25.91ZM22.36 30.31C20.66 30.31 19.28 28.91 19.28 27.2C19.28 25.49 20.66 24.08 22.36 24.08C24.06 24.08 25.44 25.48 25.44 27.2C25.44 28.92 24.06 30.31 22.36 30.31ZM13.89 11.45C13.89 6.73001 17.69 2.88001 22.36 2.88001C27.03 2.88001 30.83 6.72001 30.83 11.45C30.83 16.18 27.03 20.01 22.36 20.01C17.69 20.01 13.89 16.17 13.89 11.45ZM53.46 52.49L50.29 54.81L47.13 52.49L48.49 34.62C49.04 34.9 49.64 35.05 50.29 35.05C50.94 35.05 51.55 34.89 52.09 34.62L53.45 52.49H53.46ZM50.3 33.76C48.79 33.76 47.55 32.51 47.55 30.98C47.55 29.45 48.78 28.2 50.3 28.2C51.82 28.2 53.05 29.45 53.05 30.98C53.05 32.51 51.82 33.76 50.3 33.76ZM42.74 16.94C42.74 12.73 46.13 9.30001 50.29 9.30001C54.45 9.30001 57.85 12.73 57.85 16.94C57.85 21.15 54.46 24.58 50.29 24.58C46.12 24.58 42.74 21.15 42.74 16.94ZM55.94 25.41C58.63 23.57 60.4 20.46 60.4 16.94C60.4 11.31 55.87 6.73001 50.3 6.73001C44.73 6.73001 40.2 11.31 40.2 16.94C40.2 20.46 41.97 23.57 44.66 25.41C42.75 25.98 40.96 26.85 39.33 27.94C36.56 24.67 32.88 22.2 28.7 20.95C31.71 18.89 33.7 15.4 33.7 11.46C33.7 5.14001 28.62 0.0100098 22.38 0.0100098C16.14 0.0100098 11.05 5.15001 11.05 11.46C11.05 15.4 13.03 18.89 16.05 20.95C6.78 23.71 0 32.38 0 42.62V60.81C0 61.61 0.64 62.25 1.43 62.25H68.97C69.68 62.25 70.24 61.67 70.24 60.96V44.74C70.24 35.6 64.2 27.86 55.94 25.4" fill="#FF375E"/>
</g>
<defs>
<clipPath id="clip0_2_22">
<rect width="70.24" height="62.26" fill="white"/>
</clipPath>
</defs>
</svg>
