<svg width="19" height="39" viewBox="0 0 19 39" fill="none" xmlns="http://www.w3.org/2000/svg">
<g clip-path="url(#clip0_154_4)">
<path d="M14.75 17.1904H10.65V21.2904H14.75V17.1904Z" fill="#F05662"/>
<path d="M18.85 16.28C18.54 7.25 11.1 0 2 0H0V4.12H2C8.83 4.12 14.42 9.52 14.73 16.27C14.73 16.47 14.75 16.67 14.75 16.86V21.59C14.75 21.79 14.75 21.99 14.73 22.18C14.42 28.94 8.83 34.33 2 34.33H0V38.45H2C11.1 38.45 18.54 31.2 18.85 22.17C18.85 21.97 18.86 21.78 18.86 21.58V16.85C18.86 16.65 18.86 16.45 18.85 16.26" fill="white"/>
<path d="M10.65 21.29H6.54L6.52 21.78C6.49 22.19 6.45 22.49 6.4 22.69C5.87 24.71 4.04 26.21 1.85 26.21H0V30.33H1.86C5.8 30.33 9.13 27.73 10.26 24.17C10.57 23.02 10.64 22.11 10.65 21.64V21.3V21.29Z" fill="white"/>
<path d="M10.24 14.2396C9.09 10.7096 5.77 8.13965 1.86 8.13965H0V12.2596H1.86C4.03 12.2596 5.86 13.7396 6.4 15.7496C6.45 15.9396 6.5 16.2696 6.53 16.6996L6.55 17.1896H10.66V16.8496C10.65 16.3696 10.57 15.4296 10.25 14.2396" fill="white"/>
</g>
<defs>
<clipPath id="clip0_154_4">
<rect width="18.87" height="38.47" fill="white"/>
</clipPath>
</defs>
</svg>
