<svg width="80" height="80" viewBox="0 0 80 80" fill="none" xmlns="http://www.w3.org/2000/svg">
<path d="M40.0503 19C35.4133 19 31.6566 22.7568 31.6566 27.3937C31.6566 32.0307 35.4133 35.7875 40.0503 35.7875C44.6873 35.7875 48.4441 32.0307 48.4441 27.3937C48.4441 22.7568 44.6873 19 40.0503 19Z" stroke="#4F008C" stroke-width="1.58" stroke-miterlimit="10"/>
<path d="M22.8541 60.23H50.5346C54.37 60.23 57.4823 57.1178 57.4823 53.2824V47.9066C57.4823 44.0713 54.37 40.959 50.5346 40.959H29.8018C25.9664 40.959 22.8541 44.0713 22.8541 47.9066V60.23Z" stroke="#4F008C" stroke-width="1.58" stroke-miterlimit="10"/>
<path d="M33.0084 39.9842C33.0084 37.2177 30.7606 34.97 27.9941 34.97H13.0142C10.2478 34.97 8 37.2177 8 39.9842V48.8967H22.8541" stroke="#4F008C" stroke-width="1.58" stroke-miterlimit="10"/>
<path d="M47.3123 39.9842C47.3123 37.2177 49.5601 34.97 52.3266 34.97H67.3064C70.0729 34.97 72.3207 37.2177 72.3207 39.9842V43.8667C72.3207 46.6332 70.0729 48.881 67.3064 48.881H57.4666" stroke="#4F008C" stroke-width="1.58" stroke-miterlimit="10"/>
<path d="M59.8244 20.3362C56.8221 20.3362 54.4014 22.7726 54.4014 25.7591C54.4014 28.7457 56.8221 31.182 59.8244 31.182C62.8266 31.182 65.2473 28.7614 65.2473 25.7591C65.2473 22.7568 62.8266 20.3362 59.8244 20.3362Z" stroke="#4F008C" stroke-width="1.58" stroke-miterlimit="10"/>
<path d="M20.4963 20.3362C17.4941 20.3362 15.0734 22.7726 15.0734 25.7591C15.0734 28.7457 17.4941 31.182 20.4963 31.182C23.4986 31.182 25.9193 28.7614 25.9193 25.7591C25.9193 22.7568 23.4986 20.3362 20.4963 20.3362Z" stroke="#4F008C" stroke-width="1.58" stroke-miterlimit="10"/>
</svg>
