<svg width="66" height="80" viewBox="0 0 66 80" fill="none" xmlns="http://www.w3.org/2000/svg">
<path d="M30.2892 67.591C30.1299 67.591 30 67.4569 30 67.2976C30 67.1383 30.1299 67 30.2892 67H35.5955C35.7548 67 35.8805 67.1341 35.8805 67.2976C35.8805 67.4611 35.7506 67.591 35.5955 67.591H30.2892Z" fill="white" stroke="white" stroke-width="0.5"/>
<path d="M27.2892 64.591C27.1299 64.591 27 64.4569 27 64.2976C27 64.1383 27.1299 64 27.2892 64H38.0569C38.2162 64 38.342 64.1341 38.342 64.2976C38.342 64.4611 38.212 64.591 38.0569 64.591H27.2892Z" fill="white" stroke="white" stroke-width="0.5"/>
<path d="M27.3683 61.8016C27.209 61.8016 27.0791 61.6675 27.0791 61.504C27.0791 61.3406 27.209 61.2106 27.3683 61.2106H38.136C38.2953 61.2106 38.4211 61.3448 38.4211 61.504C38.4211 61.6633 38.2911 61.8016 38.136 61.8016H27.3683Z" fill="white" stroke="white" stroke-width="0.5"/>
<path d="M29.1413 36.4687C28.5336 37.2944 27.6115 37.8058 26.6097 37.8729L25.7672 37.9315L26.1822 38.6902C31.0987 47.6724 31.4592 54.0307 31.3837 56.3486L31.367 56.9144H34.2046L34.1878 56.3486C34.1123 54.0307 34.4728 47.6724 39.3851 38.6944L39.8085 37.9232L38.9492 37.8771C37.9265 37.8226 36.9876 37.3112 36.3631 36.4687L35.9398 35.8945L35.5165 36.4687C34.85 37.3699 33.8441 37.8854 32.7543 37.8854C31.6646 37.8854 30.6586 37.3699 29.9922 36.4687L29.5689 35.8945L29.1455 36.4687H29.1413ZM42.3736 34.021C42.4323 34.021 42.4868 34.0377 42.5329 34.0713C42.6502 34.1551 42.688 34.3102 42.6293 34.4401L42.5874 34.5281L42.579 34.6287C42.4826 35.7772 41.8413 36.8166 40.8647 37.3992L40.7473 37.4705L40.6761 37.592C37.3481 43.3133 35.9314 47.9742 35.3279 50.8746C34.5231 54.7391 34.8039 57.0611 34.8165 57.1617V57.1701C34.8291 57.2623 34.7997 57.3545 34.7327 57.4216L33.8022 58.3605H36.9667C38.2702 58.3605 39.3348 57.2665 39.3348 55.9211C39.3348 54.5002 39.8755 53.0122 40.9443 51.5033C41.812 50.2752 42.7844 49.3783 43.2915 48.9508L43.5011 48.7747H43.5053L43.5095 48.7663C47.353 45.4635 49.5577 40.6224 49.5577 35.4754C49.5577 25.9357 42.0215 18.1774 32.7585 18.1774C23.4955 18.1774 15.951 25.9357 15.951 35.4754C15.951 40.6224 18.1557 45.4677 21.9992 48.7663L22.0034 48.7747H22.0117L22.0285 48.7957L22.0411 48.8041L22.2046 48.9382C23.1392 49.7304 26.1654 52.5596 26.1654 55.9169C26.1654 57.2623 27.2259 58.3563 28.5336 58.3563H31.74L30.843 57.4342C30.843 57.4342 30.8221 57.409 30.8137 57.4006C30.8137 57.4006 30.7969 57.3839 30.7969 57.3797C30.7969 57.3755 30.7718 57.3336 30.7718 57.3336C30.7718 57.3336 30.755 57.2875 30.755 57.2791L30.7508 57.2455C30.7508 57.2372 30.7508 57.2246 30.7508 57.2162C30.7508 57.2078 30.7508 57.1994 30.7508 57.1869C30.7508 57.1701 30.7508 57.1533 30.7508 57.1366C30.7886 56.8264 31.0065 54.5672 30.2395 50.8746C29.6401 47.9867 28.2318 43.3468 24.929 37.6549L24.8535 37.525L24.7278 37.4537C23.6129 36.8292 22.9171 35.6346 22.9087 34.3311C22.9087 34.3185 22.9087 34.306 22.9087 34.2934C22.9087 34.285 22.9087 34.2682 22.9087 34.2599C22.9087 34.2515 22.9213 34.2221 22.9213 34.2221L22.9297 34.197C22.9297 34.197 22.9381 34.1802 22.9422 34.176C22.9464 34.1677 22.9506 34.1593 22.9548 34.1551L23.0638 34.0461C23.0638 34.0461 23.0638 34.0461 23.068 34.0461C23.0764 34.0461 23.0889 34.0377 23.0973 34.0335C23.1225 34.021 23.135 34.021 23.1392 34.0168C23.1518 34.0168 23.1686 34.0126 23.1812 34.0126C23.1937 34.0126 23.2063 34.0126 23.2189 34.0126C23.2189 34.0126 23.2482 34.0126 23.2524 34.0126C23.2524 34.0126 23.2734 34.021 23.2817 34.021C23.2901 34.021 23.2985 34.0251 23.3069 34.0293L23.332 34.0419C23.3404 34.0461 23.3572 34.0545 23.3572 34.0545L23.3781 34.0754C23.3781 34.0754 23.3949 34.088 23.4033 34.0964C23.4033 34.1006 23.4117 34.109 23.4243 34.1215L23.4326 34.1299C23.4326 34.1299 23.4452 34.1467 23.4536 34.1551C24.0362 35.0353 24.6146 35.9532 25.1637 36.8753L25.2643 37.043L25.4445 37.1058C25.7714 37.2232 26.0816 37.2819 26.3918 37.2819C27.9887 37.2819 29.288 35.9448 29.288 34.2976C29.288 34.1341 29.418 34.0042 29.573 34.0042C29.7281 34.0042 29.8581 34.1383 29.8581 34.2976C29.8581 35.9448 31.1574 37.2819 32.7543 37.2819C34.3513 37.2819 35.6506 35.9448 35.6506 34.2976C35.6506 34.1341 35.7805 34.0042 35.9356 34.0042C36.0907 34.0042 36.2206 34.1383 36.2206 34.2976C36.2206 35.9448 37.52 37.2819 39.1169 37.2819C39.4648 37.2819 39.8169 37.2106 40.1605 37.0765L40.3282 37.0094L40.4204 36.8502C40.894 36.0538 41.4096 35.2323 41.9461 34.4149L42.0006 34.3311L42.0215 34.2305C42.0509 34.1048 42.1557 34.0126 42.2772 34C42.2898 34 42.3024 34 42.3149 34H42.3317H42.3485C42.3527 34 42.3568 34 42.361 34M28.5378 58.9515C26.9157 58.9515 25.5954 57.5934 25.5954 55.9211C25.5954 54.5547 25.0379 53.1128 23.9314 51.6291C23.0973 50.5058 22.1962 49.701 21.8483 49.4034L21.7854 49.3531C21.7393 49.3154 21.6974 49.2819 21.6513 49.2441L21.6429 49.2358H21.6387L21.6303 49.2232C17.6527 45.8114 15.3726 40.7985 15.3726 35.4796C15.3726 25.613 23.1686 17.5906 32.7459 17.5906C42.3233 17.5906 50.1193 25.6172 50.1193 35.4796C50.1193 40.7817 47.856 45.7779 43.9077 49.1897L43.8951 49.2022L43.8825 49.2148C43.8825 49.2148 43.8657 49.2316 43.8616 49.2358H43.8532L43.8448 49.2483C43.8029 49.2861 43.7526 49.3238 43.7065 49.3615L43.6394 49.4202C43.0149 49.9483 39.9007 52.7482 39.9007 55.9294C39.9007 57.5976 38.5804 58.9598 36.9583 58.9598H28.5336L28.5378 58.9515Z" fill="white"/>
<path d="M42.3736 34.021C42.4323 34.021 42.4868 34.0377 42.5329 34.0713C42.6502 34.1551 42.688 34.3102 42.6293 34.4401L42.5874 34.5281L42.579 34.6287C42.4826 35.7772 41.8413 36.8166 40.8647 37.3992L40.7473 37.4705L40.6761 37.592C37.3481 43.3133 35.9314 47.9742 35.3279 50.8746C34.5231 54.7391 34.8039 57.0611 34.8165 57.1617V57.1701C34.8291 57.2623 34.7997 57.3545 34.7327 57.4216L33.8022 58.3605H36.9667C38.2702 58.3605 39.3348 57.2665 39.3348 55.9211C39.3348 54.5002 39.8755 53.0122 40.9443 51.5033C41.812 50.2752 42.7844 49.3783 43.2915 48.9508L43.5011 48.7747H43.5053L43.5095 48.7663C47.353 45.4635 49.5577 40.6224 49.5577 35.4754C49.5577 25.9357 42.0215 18.1774 32.7585 18.1774C23.4955 18.1774 15.951 25.9357 15.951 35.4754C15.951 40.6224 18.1557 45.4677 21.9992 48.7663L22.0034 48.7747H22.0117L22.0285 48.7957L22.0411 48.8041L22.2046 48.9382C23.1392 49.7304 26.1654 52.5596 26.1654 55.9169C26.1654 57.2623 27.2259 58.3563 28.5336 58.3563H31.74L30.843 57.4342C30.843 57.4342 30.8221 57.409 30.8137 57.4006C30.8137 57.4006 30.7969 57.3839 30.7969 57.3797C30.7969 57.3755 30.7718 57.3336 30.7718 57.3336C30.7718 57.3336 30.755 57.2875 30.755 57.2791L30.7508 57.2455C30.7508 57.2372 30.7508 57.2246 30.7508 57.2162C30.7508 57.2078 30.7508 57.1994 30.7508 57.1869C30.7508 57.1701 30.7508 57.1533 30.7508 57.1366C30.7886 56.8264 31.0065 54.5672 30.2395 50.8746C29.6401 47.9867 28.2318 43.3468 24.929 37.6549L24.8535 37.525L24.7278 37.4537C23.6129 36.8292 22.9171 35.6346 22.9087 34.3311C22.9087 34.3185 22.9087 34.306 22.9087 34.2934C22.9087 34.285 22.9087 34.2682 22.9087 34.2599C22.9087 34.2515 22.9213 34.2221 22.9213 34.2221L22.9297 34.197C22.9297 34.197 22.9381 34.1802 22.9422 34.176C22.9464 34.1677 22.9506 34.1593 22.9548 34.1551L23.0638 34.0461C23.0638 34.0461 23.0638 34.0461 23.068 34.0461C23.0764 34.0461 23.0889 34.0377 23.0973 34.0335C23.1225 34.021 23.135 34.021 23.1392 34.0168C23.1518 34.0168 23.1686 34.0126 23.1812 34.0126C23.1937 34.0126 23.2063 34.0126 23.2189 34.0126C23.2189 34.0126 23.2482 34.0126 23.2524 34.0126C23.2524 34.0126 23.2734 34.021 23.2817 34.021C23.2901 34.021 23.2985 34.0251 23.3069 34.0293L23.332 34.0419C23.3404 34.0461 23.3572 34.0545 23.3572 34.0545L23.3781 34.0754C23.3781 34.0754 23.3949 34.088 23.4033 34.0964C23.4033 34.1006 23.4117 34.109 23.4243 34.1215L23.4326 34.1299C23.4326 34.1299 23.4452 34.1467 23.4536 34.1551C24.0362 35.0353 24.6146 35.9532 25.1637 36.8753L25.2643 37.043L25.4445 37.1058C25.7714 37.2232 26.0816 37.2819 26.3918 37.2819C27.9887 37.2819 29.288 35.9448 29.288 34.2976C29.288 34.1341 29.418 34.0042 29.573 34.0042C29.7281 34.0042 29.8581 34.1383 29.8581 34.2976C29.8581 35.9448 31.1574 37.2819 32.7543 37.2819C34.3513 37.2819 35.6506 35.9448 35.6506 34.2976C35.6506 34.1341 35.7805 34.0042 35.9356 34.0042C36.0907 34.0042 36.2206 34.1383 36.2206 34.2976C36.2206 35.9448 37.52 37.2819 39.1169 37.2819C39.4648 37.2819 39.8169 37.2106 40.1605 37.0765L40.3282 37.0094L40.4204 36.8502C40.894 36.0538 41.4096 35.2323 41.9461 34.4149L42.0006 34.3311L42.0215 34.2305C42.0509 34.1048 42.1557 34.0126 42.2772 34C42.2898 34 42.3024 34 42.3149 34H42.3317H42.3485C42.3527 34 42.3568 34 42.361 34M29.1413 36.4687C28.5336 37.2944 27.6115 37.8058 26.6097 37.8729L25.7672 37.9315L26.1822 38.6902C31.0987 47.6724 31.4592 54.0307 31.3837 56.3486L31.367 56.9144H34.2046L34.1878 56.3486C34.1123 54.0307 34.4728 47.6724 39.3851 38.6944L39.8085 37.9232L38.9492 37.8771C37.9265 37.8226 36.9876 37.3112 36.3631 36.4687L35.9398 35.8945L35.5165 36.4687C34.85 37.3699 33.8441 37.8854 32.7543 37.8854C31.6646 37.8854 30.6586 37.3699 29.9922 36.4687L29.5689 35.8945L29.1455 36.4687H29.1413ZM28.5378 58.9515C26.9157 58.9515 25.5954 57.5934 25.5954 55.9211C25.5954 54.5547 25.0379 53.1128 23.9314 51.6291C23.0973 50.5058 22.1962 49.701 21.8483 49.4034L21.7854 49.3531C21.7393 49.3154 21.6974 49.2819 21.6513 49.2441L21.6429 49.2358H21.6387L21.6303 49.2232C17.6527 45.8114 15.3726 40.7985 15.3726 35.4796C15.3726 25.613 23.1686 17.5906 32.7459 17.5906C42.3233 17.5906 50.1193 25.6172 50.1193 35.4796C50.1193 40.7817 47.856 45.7779 43.9077 49.1897L43.8951 49.2022L43.8825 49.2148C43.8825 49.2148 43.8657 49.2316 43.8616 49.2358H43.8532L43.8448 49.2483C43.8029 49.2861 43.7526 49.3238 43.7065 49.3615L43.6394 49.4202C43.0149 49.9483 39.9007 52.7482 39.9007 55.9294C39.9007 57.5976 38.5804 58.9598 36.9583 58.9598H28.5336L28.5378 58.9515Z" stroke="white" stroke-width="0.5"/>
<path d="M32.8004 15.1722C32.6412 15.1722 32.5112 15.0381 32.5112 14.8746V10.2976C32.5112 10.1341 32.6412 10 32.8004 10C32.9597 10 33.0855 10.1341 33.0855 10.2976V14.8746C33.0855 15.0381 32.9555 15.1722 32.8004 15.1722Z" fill="white" stroke="white" stroke-width="0.5"/>
<path d="M18.6376 21.1617C18.5622 21.1617 18.4867 21.1324 18.4364 21.0737L15.2929 17.8337C15.1797 17.7206 15.1797 17.5319 15.2929 17.4146C15.3474 17.3601 15.4186 17.3266 15.4941 17.3266C15.5695 17.3266 15.6408 17.3559 15.6953 17.4146L18.8388 20.6545C18.952 20.7677 18.952 20.9563 18.8388 21.0737C18.7843 21.1282 18.7131 21.1617 18.6376 21.1617Z" fill="white" stroke="white" stroke-width="0.5"/>
<path d="M8.28921 35.7101C8.12993 35.7101 8 35.5759 8 35.4125C8 35.249 8.12993 35.1191 8.28921 35.1191H12.7363C12.8956 35.1191 13.0213 35.2532 13.0213 35.4125C13.0213 35.5718 12.8914 35.7101 12.7363 35.7101H8.28921Z" fill="white" stroke="white" stroke-width="0.5"/>
<path d="M15.4105 53.5362C15.3351 53.5362 15.2596 53.5068 15.2093 53.4481C15.1548 53.3937 15.1255 53.3182 15.1255 53.2386C15.1255 53.1589 15.1548 53.0877 15.2093 53.029L18.3529 49.789C18.4074 49.7346 18.4786 49.701 18.5541 49.701C18.6295 49.701 18.705 49.7304 18.7552 49.789C18.8684 49.9022 18.8684 50.0908 18.7552 50.2082L15.6117 53.4481C15.5404 53.5236 15.4524 53.5362 15.4105 53.5362Z" fill="white" stroke="white" stroke-width="0.5"/>
<path d="M49.9934 53.62C49.9179 53.62 49.8425 53.5907 49.788 53.532L46.6444 50.292C46.5313 50.1788 46.5313 49.9902 46.6444 49.8729C46.6989 49.8184 46.7702 49.7849 46.8456 49.7849C46.9211 49.7849 46.9923 49.8142 47.0468 49.8729L50.1904 53.1128C50.2449 53.1673 50.2742 53.2428 50.2742 53.3224C50.2742 53.402 50.2449 53.4733 50.1904 53.532C50.1359 53.5865 50.0646 53.62 49.9892 53.62" fill="white"/>
<path d="M49.9934 53.62C49.9179 53.62 49.8425 53.5907 49.788 53.532L46.6444 50.292C46.5313 50.1788 46.5313 49.9902 46.6444 49.8729C46.6989 49.8184 46.7702 49.7849 46.8456 49.7849C46.9211 49.7849 46.9923 49.8142 47.0468 49.8729L50.1904 53.1128C50.2449 53.1673 50.2742 53.2428 50.2742 53.3224C50.2742 53.402 50.2449 53.4733 50.1904 53.532C50.1359 53.5865 50.0646 53.62 49.9892 53.62" stroke="white" stroke-width="0.5"/>
<path d="M52.7516 35.8317C52.5923 35.8317 52.4624 35.6975 52.4624 35.5341C52.4624 35.3706 52.5923 35.2407 52.7516 35.2407H57.1987C57.358 35.2407 57.4837 35.3748 57.4837 35.5341C57.4837 35.6933 57.3538 35.8317 57.1987 35.8317H52.7516Z" fill="white"/>
<path d="M46.9295 21.2455C46.8541 21.2455 46.7828 21.2162 46.7284 21.1575C46.6739 21.103 46.6445 21.0276 46.6445 20.9479C46.6445 20.8683 46.6739 20.7971 46.7284 20.7384L49.8719 17.4984C49.9264 17.4439 49.9977 17.4104 50.0731 17.4104C50.1485 17.4104 50.2198 17.4397 50.2743 17.4984C50.3288 17.5529 50.3581 17.6284 50.3581 17.708C50.3581 17.7876 50.3288 17.8631 50.2743 17.9176L47.1307 21.1575C47.0762 21.212 47.005 21.2455 46.9295 21.2455Z" fill="white" stroke="white" stroke-width="0.5"/>
<path d="M18.3361 35.8316C18.1768 35.8316 18.0469 35.6975 18.0469 35.534C18.0469 27.1848 24.6442 20.3947 32.7503 20.3947C32.9096 20.3947 33.0395 20.5288 33.0395 20.6881C33.0395 20.8474 32.9096 20.9857 32.7503 20.9857C24.9585 20.9857 18.6211 27.5117 18.6211 35.534C18.6211 35.6975 18.4912 35.8316 18.3361 35.8316Z" fill="white" stroke="white" stroke-width="0.5"/>
</svg>
