<svg width="80" height="80" viewBox="0 0 80 80" fill="none" xmlns="http://www.w3.org/2000/svg">
<g clip-path="url(#clip0_2836_483)">
<path d="M53.3816 40C53.3816 47.3508 47.3961 53.3059 40.0078 53.3059C32.6195 53.3059 26.634 47.3508 26.634 40C26.634 32.6492 32.6195 26.6941 40.0078 26.6941C47.3961 26.6941 53.3816 32.6492 53.3816 40Z" stroke="#4F008C" stroke-width="1.58" stroke-miterlimit="10"/>
<path d="M46.5077 67.7748H33.5547L32.5727 63.0759C32.1363 61.0288 30.7958 59.2919 28.9253 58.3615C27.273 57.5395 25.3714 57.4 23.6256 57.9738L19.0898 59.4935L12.6211 48.3278L15.7229 45.5673C17.2972 44.1561 18.2013 42.1556 18.2013 40.0465V39.9845C18.2013 37.8599 17.2816 35.8283 15.6918 34.4326L12.6055 31.7187L19.0742 20.5529L23.0645 21.8556C25.0753 22.5069 27.273 22.2898 29.1123 21.2353C30.9672 20.1807 32.2765 18.3663 32.6974 16.2882L33.5235 12.2251H46.4765L47.3338 16.3192C47.7702 18.3818 49.064 20.1652 50.9033 21.2198C52.7581 22.2898 54.9715 22.5069 56.9979 21.8246L60.957 20.5064L67.4413 31.6722L64.355 34.3706C62.7495 35.7818 61.8299 37.8133 61.8299 39.9534V40C61.8299 42.1246 62.7495 44.1406 64.3394 45.5518L67.4569 48.2968L60.9882 59.4625L56.9979 58.1599C54.9871 57.5085 52.7893 57.7256 50.95 58.7802C49.0951 59.8502 47.7858 61.6492 47.365 63.7272L46.5388 67.7748H46.5077Z" stroke="#4F008C" stroke-width="1.58" stroke-miterlimit="10"/>
</g>
<defs>
<clipPath id="clip0_2836_483">
<rect width="58" height="58" fill="white" transform="translate(11 11)"/>
</clipPath>
</defs>
</svg>
