<svg width="81" height="80" viewBox="0 0 81 80" fill="none" xmlns="http://www.w3.org/2000/svg">
<path d="M35.8513 29.9828C28.2598 29.9828 22.0798 36.3844 22.0798 44.2482C22.0798 52.112 28.2553 58.5136 35.8513 58.5136C43.4473 58.5136 49.6227 52.1167 49.6227 44.2482C49.6227 42.8657 49.4327 41.5067 49.0617 40.2085L48.84 39.4259L46.587 41.7597L46.6368 42.0128C46.777 42.7486 46.8494 43.4984 46.8494 44.2435C46.8494 50.5233 41.9181 55.6315 35.8513 55.6315C29.7844 55.6315 24.8577 50.5233 24.8577 44.2435C24.8577 37.9638 29.789 32.8556 35.8513 32.8556C36.5751 32.8556 37.299 32.9306 38.0048 33.0758L38.2491 33.1274L40.5021 30.7936L39.7466 30.5639C38.4934 30.1796 37.1814 29.9828 35.8468 29.9828M35.8513 59.2869C27.8481 59.2869 21.3379 52.5432 21.3379 44.2482C21.3379 35.9533 27.8481 29.2096 35.8513 29.2096C37.9279 29.2096 39.932 29.6548 41.8096 30.5358L38.4798 33.985C37.6202 33.7507 36.738 33.6288 35.8513 33.6288C30.2007 33.6288 25.5996 38.3902 25.5996 44.2482C25.5996 50.1062 30.1961 54.8676 35.8513 54.8676C41.5064 54.8676 46.1029 50.1062 46.1029 44.2482C46.1029 43.3297 45.9853 42.4158 45.7591 41.5254L49.0889 38.0762C49.9394 40.0164 50.3692 42.0925 50.3692 44.2435C50.3692 52.5338 43.859 59.2822 35.8513 59.2822" fill="white"/>
<path d="M35.8513 29.9828C28.2598 29.9828 22.0798 36.3844 22.0798 44.2482C22.0798 52.112 28.2553 58.5136 35.8513 58.5136C43.4473 58.5136 49.6227 52.1167 49.6227 44.2482C49.6227 42.8657 49.4327 41.5067 49.0617 40.2085L48.84 39.4259L46.587 41.7597L46.6368 42.0128C46.777 42.7486 46.8494 43.4984 46.8494 44.2435C46.8494 50.5233 41.9181 55.6315 35.8513 55.6315C29.7844 55.6315 24.8577 50.5233 24.8577 44.2435C24.8577 37.9638 29.789 32.8556 35.8513 32.8556C36.5751 32.8556 37.299 32.9306 38.0048 33.0758L38.2491 33.1274L40.5021 30.7936L39.7466 30.5639C38.4934 30.1796 37.1814 29.9828 35.8468 29.9828M35.8513 59.2869C27.8481 59.2869 21.3379 52.5432 21.3379 44.2482C21.3379 35.9533 27.8481 29.2096 35.8513 29.2096C37.9279 29.2096 39.932 29.6548 41.8096 30.5358L38.4798 33.985C37.6202 33.7507 36.738 33.6288 35.8513 33.6288C30.2007 33.6288 25.5996 38.3902 25.5996 44.2482C25.5996 50.1062 30.1961 54.8676 35.8513 54.8676C41.5064 54.8676 46.1029 50.1062 46.1029 44.2482C46.1029 43.3297 45.9853 42.4158 45.7591 41.5254L49.0889 38.0762C49.9394 40.0164 50.3692 42.0925 50.3692 44.2435C50.3692 52.5338 43.859 59.2822 35.8513 59.2822" stroke="white" stroke-width="0.5"/>
<path d="M35.851 19.2744C22.5591 19.2744 11.7465 30.4796 11.7465 44.2482C11.7465 58.0168 22.5591 69.222 35.851 69.222C49.1429 69.222 59.9601 58.0215 59.9601 44.2482C59.9601 41.0193 59.3765 37.8888 58.2228 34.9363L58.0645 34.5333L57.6573 34.6551C57.2637 34.7723 56.852 34.8332 56.4358 34.8332H56.3408C56.3408 34.8332 56.3136 34.8332 56.3001 34.8332C56.1643 34.8332 56.0377 34.8192 55.911 34.8051L55.1012 34.7067L55.4269 35.4799C56.5896 38.259 57.1823 41.2161 57.1823 44.2576C57.1823 56.4422 47.6137 66.354 35.851 66.354C24.0883 66.354 14.5198 56.4328 14.5198 44.2482C14.5198 32.0636 24.0883 22.1518 35.851 22.1518C38.7827 22.1518 41.6329 22.7657 44.3247 23.9701L45.0712 24.3029L44.9762 23.4687C44.9626 23.3469 44.9536 23.2203 44.949 23.0797V23.0657V23.0282C44.949 23.0282 44.949 23.0094 44.949 22.9954V22.986C44.94 22.5361 44.9988 22.0909 45.1209 21.6551L45.2386 21.238L44.8495 21.0739C41.9993 19.8789 38.9727 19.2744 35.8601 19.2744M35.851 69.9906C22.1474 69.9906 11 58.4433 11 44.2482C11 30.0531 22.1474 18.5058 35.851 18.5058C39.4884 18.5058 42.9901 19.3025 46.2656 20.8818C45.881 21.5051 45.6774 22.2455 45.6865 22.9907V23.0563C45.6955 23.225 45.7091 23.3843 45.7317 23.5249L45.9624 25.6807C42.8815 23.8764 39.4025 22.9251 35.851 22.9251C24.5 22.9251 15.2617 32.49 15.2617 44.2529C15.2617 56.0158 24.4955 65.576 35.851 65.576C47.2066 65.576 56.4403 56.0111 56.4403 44.2529C56.4403 40.5694 55.5219 36.9655 53.7846 33.7788L55.8657 34.0178C56.015 34.0412 56.1643 34.0553 56.3272 34.0646H56.3363H56.4403C57.1506 34.0646 57.8337 33.8538 58.4174 33.4695C59.9375 36.8577 60.7066 40.485 60.7066 44.2576C60.7066 58.4527 49.5591 70 35.8555 70" fill="white"/>
<path d="M35.851 19.2744C22.5591 19.2744 11.7465 30.4796 11.7465 44.2482C11.7465 58.0168 22.5591 69.222 35.851 69.222C49.1429 69.222 59.9601 58.0215 59.9601 44.2482C59.9601 41.0193 59.3765 37.8888 58.2228 34.9363L58.0645 34.5333L57.6573 34.6551C57.2637 34.7723 56.852 34.8332 56.4358 34.8332H56.3408C56.3408 34.8332 56.3136 34.8332 56.3001 34.8332C56.1643 34.8332 56.0377 34.8192 55.911 34.8051L55.1012 34.7067L55.4269 35.4799C56.5896 38.259 57.1823 41.2161 57.1823 44.2576C57.1823 56.4422 47.6137 66.354 35.851 66.354C24.0883 66.354 14.5198 56.4328 14.5198 44.2482C14.5198 32.0636 24.0883 22.1518 35.851 22.1518C38.7827 22.1518 41.6329 22.7657 44.3247 23.9701L45.0712 24.3029L44.9762 23.4687C44.9626 23.3469 44.9536 23.2203 44.949 23.0797V23.0657V23.0282C44.949 23.0282 44.949 23.0094 44.949 22.9954V22.986C44.94 22.5361 44.9988 22.0909 45.1209 21.6551L45.2386 21.238L44.8495 21.0739C41.9993 19.8789 38.9727 19.2744 35.8601 19.2744M35.851 69.9906C22.1474 69.9906 11 58.4433 11 44.2482C11 30.0531 22.1474 18.5058 35.851 18.5058C39.4884 18.5058 42.9901 19.3025 46.2656 20.8818C45.881 21.5051 45.6774 22.2455 45.6865 22.9907V23.0563C45.6955 23.225 45.7091 23.3843 45.7317 23.5249L45.9624 25.6807C42.8815 23.8764 39.4025 22.9251 35.851 22.9251C24.5 22.9251 15.2617 32.49 15.2617 44.2529C15.2617 56.0158 24.4955 65.576 35.851 65.576C47.2066 65.576 56.4403 56.0111 56.4403 44.2529C56.4403 40.5694 55.5219 36.9655 53.7846 33.7788L55.8657 34.0178C56.015 34.0412 56.1643 34.0553 56.3272 34.0646H56.3363H56.4403C57.1506 34.0646 57.8337 33.8538 58.4174 33.4695C59.9375 36.8577 60.7066 40.485 60.7066 44.2576C60.7066 58.4527 49.5591 70 35.8555 70" stroke="white" stroke-width="0.5"/>
<path d="M49.4551 22.9579L49.8894 27.0116C49.9302 27.3912 49.8035 27.7661 49.5411 28.038L48.971 28.6284L45.302 32.4291L41.5379 36.3282L34.8739 43.236C34.6115 43.5078 34.4667 43.8686 34.4667 44.2529C34.4667 44.6372 34.6115 44.998 34.8739 45.2699C35.1363 45.5417 35.4846 45.6916 35.8556 45.6916C36.2266 45.6916 36.5795 45.5417 36.8419 45.2699L43.5059 38.3668L47.27 34.4677L51.5136 30.0765C51.7398 29.8422 52.052 29.711 52.3687 29.711C52.4139 29.711 52.4591 29.711 52.5044 29.7204L56.4132 30.1703L56.7028 29.8703L59.562 26.9085L57.6347 26.468C57.2004 26.3696 56.8566 26.0322 56.7299 25.5917C56.6078 25.1511 56.7209 24.6778 57.0376 24.3498L59.372 21.9269C59.5982 21.6926 59.9104 21.5567 60.2316 21.5567C60.2723 21.5567 60.3175 21.5567 60.3628 21.566L64.2445 22.0112L67.3933 18.7495L62.4529 17.6248C61.9915 17.5217 61.6295 17.1421 61.53 16.6687L60.4442 11.5512L57.2954 14.8129L57.7297 18.8948C57.7705 19.2744 57.6438 19.6493 57.3814 19.9211L55.0741 22.3112C54.8434 22.5502 54.5402 22.6767 54.2145 22.6767C54.1014 22.6767 53.9838 22.658 53.8752 22.6252C53.4499 22.4939 53.1242 22.1378 53.0292 21.6879L52.6039 19.6915L49.4551 22.9532V22.9579ZM35.8511 46.4555C35.281 46.4555 34.7472 46.2259 34.3445 45.8088C33.9419 45.3917 33.7202 44.8387 33.7202 44.2482C33.7202 43.6577 33.9419 43.1047 34.3445 42.6877L41.0086 35.7799L44.7727 31.8808L48.4417 28.0801L49.1701 27.3256L48.7177 23.0797V23.061C48.7086 23.0282 48.7041 22.9907 48.7041 22.9345C48.6996 22.7517 48.7675 22.5736 48.8941 22.4424L53.0428 18.145L53.9431 22.3815L57.0149 19.1994L56.558 14.9301V14.916C56.5489 14.8645 56.5444 14.827 56.5399 14.7942C56.5354 14.602 56.6032 14.4286 56.7299 14.2927L60.874 10L62.3172 16.7953L68.8772 18.2902L64.7286 22.5877C64.6109 22.7142 64.4481 22.7798 64.2716 22.7798H64.24C64.2083 22.7798 64.1766 22.7798 64.145 22.7704H64.1223L60.0506 22.2971L56.9516 25.512L61.0414 26.4446L57.2185 30.4046L56.8928 30.7373C56.7706 30.8639 56.6078 30.9342 56.4313 30.9342H56.4042C56.3635 30.9342 56.3273 30.9295 56.2911 30.9201H56.2775L52.1832 30.4468L51.4548 31.2013L47.7857 35.002L44.0216 38.901L37.3576 45.8041C36.955 46.2212 36.4166 46.4508 35.8466 46.4508" fill="white"/>
<path d="M35.8511 46.4555C35.281 46.4555 34.7472 46.2259 34.3445 45.8088C33.9419 45.3917 33.7202 44.8387 33.7202 44.2482C33.7202 43.6577 33.9419 43.1047 34.3445 42.6877L41.0086 35.7799L44.7727 31.8808L48.4417 28.0801L49.1701 27.3256L48.7177 23.0797V23.061C48.7086 23.0282 48.7041 22.9907 48.7041 22.9345C48.6996 22.7517 48.7675 22.5736 48.8941 22.4424L53.0428 18.145L53.9431 22.3815L57.0149 19.1994L56.558 14.9301V14.916C56.5489 14.8645 56.5444 14.827 56.5399 14.7942C56.5354 14.602 56.6032 14.4286 56.7299 14.2927L60.874 10L62.3172 16.7953L68.8772 18.2902L64.7286 22.5877C64.6109 22.7142 64.4481 22.7798 64.2716 22.7798H64.24C64.2083 22.7798 64.1766 22.7798 64.145 22.7704H64.1223L60.0506 22.2971L56.9516 25.512L61.0414 26.4446L57.2185 30.4046L56.8928 30.7373C56.7706 30.8639 56.6078 30.9342 56.4313 30.9342H56.4042C56.3635 30.9342 56.3273 30.9295 56.2911 30.9201H56.2775L52.1832 30.4468L51.4548 31.2013L47.7857 35.002L44.0216 38.901L37.3576 45.8041C36.955 46.2212 36.4166 46.4508 35.8466 46.4508M49.4551 22.9579L49.8894 27.0116C49.9302 27.3912 49.8035 27.7661 49.5411 28.038L48.971 28.6284L45.302 32.4291L41.5379 36.3282L34.8739 43.236C34.6115 43.5078 34.4667 43.8686 34.4667 44.2529C34.4667 44.6372 34.6115 44.998 34.8739 45.2699C35.1363 45.5417 35.4846 45.6916 35.8556 45.6916C36.2266 45.6916 36.5795 45.5417 36.8419 45.2699L43.5059 38.3668L47.27 34.4677L51.5136 30.0765C51.7398 29.8422 52.052 29.711 52.3687 29.711C52.4139 29.711 52.4591 29.711 52.5044 29.7204L56.4132 30.1703L56.7028 29.8703L59.562 26.9085L57.6347 26.468C57.2004 26.3696 56.8566 26.0322 56.7299 25.5917C56.6078 25.1511 56.7209 24.6778 57.0376 24.3498L59.372 21.9269C59.5982 21.6926 59.9104 21.5567 60.2316 21.5567C60.2723 21.5567 60.3175 21.5567 60.3628 21.566L64.2445 22.0112L67.3933 18.7495L62.4529 17.6248C61.9915 17.5217 61.6295 17.1421 61.53 16.6687L60.4442 11.5512L57.2954 14.8129L57.7297 18.8948C57.7705 19.2744 57.6438 19.6493 57.3814 19.9211L55.0741 22.3112C54.8434 22.5502 54.5402 22.6767 54.2145 22.6767C54.1014 22.6767 53.9838 22.658 53.8752 22.6252C53.4499 22.4939 53.1242 22.1378 53.0292 21.6879L52.6039 19.6915L49.4551 22.9532V22.9579Z" stroke="white" stroke-width="0.5"/>
</svg>
